%TF.GenerationSoftware,KiCad,Pcbnew,8.0.7*%
%TF.CreationDate,2024-12-24T10:01:26+05:30*%
%TF.ProjectId,task1,7461736b-312e-46b6-9963-61645f706362,rev?*%
%TF.SameCoordinates,Original*%
%TF.FileFunction,Copper,L1,Top*%
%TF.FilePolarity,Positive*%
%FSLAX46Y46*%
G04 Gerber Fmt 4.6, Leading zero omitted, Abs format (unit mm)*
G04 Created by KiCad (PCBNEW 8.0.7) date 2024-12-24 10:01:26*
%MOMM*%
%LPD*%
G01*
G04 APERTURE LIST*
%TA.AperFunction,ComponentPad*%
%ADD10R,1.800000X1.800000*%
%TD*%
%TA.AperFunction,ComponentPad*%
%ADD11C,1.800000*%
%TD*%
%TA.AperFunction,ComponentPad*%
%ADD12C,1.600000*%
%TD*%
%TA.AperFunction,ComponentPad*%
%ADD13O,1.600000X1.600000*%
%TD*%
%TA.AperFunction,ComponentPad*%
%ADD14C,2.000000*%
%TD*%
%TA.AperFunction,ComponentPad*%
%ADD15R,1.524000X1.524000*%
%TD*%
%TA.AperFunction,ComponentPad*%
%ADD16C,1.524000*%
%TD*%
%TA.AperFunction,ComponentPad*%
%ADD17R,2.000000X2.000000*%
%TD*%
%TA.AperFunction,ComponentPad*%
%ADD18R,1.560000X1.560000*%
%TD*%
%TA.AperFunction,ComponentPad*%
%ADD19C,1.560000*%
%TD*%
%TA.AperFunction,Conductor*%
%ADD20C,0.300000*%
%TD*%
%TA.AperFunction,Conductor*%
%ADD21C,0.500000*%
%TD*%
G04 APERTURE END LIST*
D10*
%TO.P,D1,1,K*%
%TO.N,GND*%
X169815000Y-133550000D03*
D11*
%TO.P,D1,2,A*%
%TO.N,Net-(D1-A)*%
X169815000Y-131010000D03*
%TD*%
D10*
%TO.P,D2,1,K*%
%TO.N,GND*%
X169315000Y-124540000D03*
D11*
%TO.P,D2,2,A*%
%TO.N,Net-(D2-A)*%
X169315000Y-122000000D03*
%TD*%
D12*
%TO.P,R1,1*%
%TO.N,LED1*%
X177190000Y-131500000D03*
D13*
%TO.P,R1,2*%
%TO.N,Net-(D1-A)*%
X184810000Y-131500000D03*
%TD*%
D14*
%TO.P,SW2,1,1*%
%TO.N,GND*%
X190000000Y-120950000D03*
X196500000Y-120950000D03*
%TO.P,SW2,2,2*%
%TO.N,LOCK2*%
X190000000Y-125450000D03*
X196500000Y-125450000D03*
%TD*%
D15*
%TO.P,U2,1,VCC*%
%TO.N,VCC*%
X190000000Y-85500000D03*
D16*
%TO.P,U2,2,TRIG*%
%TO.N,TRIGG*%
X190000000Y-82706000D03*
%TO.P,U2,3,ECHO*%
%TO.N,echo*%
X190000000Y-80420000D03*
%TO.P,U2,4,GND*%
%TO.N,GND*%
X190000000Y-78134000D03*
%TD*%
D12*
%TO.P,R3,1*%
%TO.N,LED3*%
X176690000Y-114500000D03*
D13*
%TO.P,R3,2*%
%TO.N,Net-(D3-A)*%
X184310000Y-114500000D03*
%TD*%
D14*
%TO.P,SW3,1,1*%
%TO.N,GND*%
X190000000Y-129500000D03*
X196500000Y-129500000D03*
%TO.P,SW3,2,2*%
%TO.N,LOCK3*%
X190000000Y-134000000D03*
X196500000Y-134000000D03*
%TD*%
D17*
%TO.P,BZ1,1,+*%
%TO.N,BUZZER*%
X166700000Y-93000000D03*
D14*
%TO.P,BZ1,2,-*%
%TO.N,GND*%
X174300000Y-93000000D03*
%TD*%
D15*
%TO.P,arduino_nano1,1,TX*%
%TO.N,unconnected-(arduino_nano1-TX-Pad1)*%
X155240000Y-101740000D03*
D16*
%TO.P,arduino_nano1,2,RX*%
%TO.N,unconnected-(arduino_nano1-RX-Pad2)*%
X155240000Y-99200000D03*
%TO.P,arduino_nano1,3,RST*%
%TO.N,unconnected-(arduino_nano1-RST-Pad3)*%
X155240000Y-96660000D03*
%TO.P,arduino_nano1,4,GND*%
%TO.N,GND*%
X155240000Y-94120000D03*
%TO.P,arduino_nano1,5,D2*%
%TO.N,LOCK1*%
X155240000Y-91580000D03*
%TO.P,arduino_nano1,6,D3*%
%TO.N,LOCK2*%
X155240000Y-89040000D03*
%TO.P,arduino_nano1,7,D4*%
%TO.N,LOCK3*%
X155240000Y-86500000D03*
%TO.P,arduino_nano1,8,D5*%
%TO.N,unconnected-(arduino_nano1-D5-Pad8)*%
X155240000Y-83960000D03*
%TO.P,arduino_nano1,9,D6*%
%TO.N,unconnected-(arduino_nano1-D6-Pad9)*%
X155240000Y-81420000D03*
%TO.P,arduino_nano1,10,D7*%
%TO.N,TRIGG*%
X155240000Y-78880000D03*
%TO.P,arduino_nano1,11,D8*%
%TO.N,echo*%
X155240000Y-76340000D03*
%TO.P,arduino_nano1,12,D9*%
%TO.N,BUZZER*%
X155240000Y-73800000D03*
%TO.P,arduino_nano1,13,D10*%
%TO.N,unconnected-(arduino_nano1-D10-Pad13)*%
X155240000Y-71260000D03*
%TO.P,arduino_nano1,14,D11*%
%TO.N,unconnected-(arduino_nano1-D11-Pad14)*%
X155240000Y-68720000D03*
%TO.P,arduino_nano1,15,D12*%
%TO.N,unconnected-(arduino_nano1-D12-Pad15)*%
X155240000Y-66180000D03*
%TO.P,arduino_nano1,16,D13*%
%TO.N,unconnected-(arduino_nano1-D13-Pad16)*%
X140000000Y-66180000D03*
%TO.P,arduino_nano1,17,3.3v*%
%TO.N,unconnected-(arduino_nano1-3.3v-Pad17)*%
X140000000Y-68720000D03*
%TO.P,arduino_nano1,18,REF*%
%TO.N,unconnected-(arduino_nano1-REF-Pad18)*%
X140000000Y-71260000D03*
%TO.P,arduino_nano1,19,A0*%
%TO.N,LED3*%
X140000000Y-73800000D03*
%TO.P,arduino_nano1,20,A1*%
%TO.N,LED2*%
X140000000Y-76340000D03*
%TO.P,arduino_nano1,21,A2*%
%TO.N,LED1*%
X140000000Y-78880000D03*
%TO.P,arduino_nano1,22,A3*%
%TO.N,unconnected-(arduino_nano1-A3-Pad22)*%
X140000000Y-81420000D03*
%TO.P,arduino_nano1,23,A4*%
%TO.N,SDA*%
X140000000Y-83960000D03*
%TO.P,arduino_nano1,24,A5*%
%TO.N,SCL*%
X140000000Y-86500000D03*
%TO.P,arduino_nano1,25,A6*%
%TO.N,unconnected-(arduino_nano1-A6-Pad25)*%
X140000000Y-89040000D03*
%TO.P,arduino_nano1,26,A7*%
%TO.N,unconnected-(arduino_nano1-A7-Pad26)*%
X140000000Y-91580000D03*
%TO.P,arduino_nano1,27,5v*%
%TO.N,VCC*%
X140000000Y-94120000D03*
%TO.P,arduino_nano1,28,RST*%
%TO.N,unconnected-(arduino_nano1-RST-Pad28)*%
X140000000Y-96660000D03*
%TO.P,arduino_nano1,29,GND*%
%TO.N,unconnected-(arduino_nano1-GND-Pad29)*%
X140000000Y-99200000D03*
%TO.P,arduino_nano1,30,Vin*%
%TO.N,unconnected-(arduino_nano1-Vin-Pad30)*%
X140000000Y-101740000D03*
%TD*%
D18*
%TO.P,U1,1,GND*%
%TO.N,GND*%
X139894000Y-125986000D03*
D19*
%TO.P,U1,2,VCC_IN*%
%TO.N,SCL*%
X139894000Y-123192000D03*
%TO.P,U1,3,SCL*%
%TO.N,SDA*%
X139894000Y-120652000D03*
%TO.P,U1,4,SDA*%
%TO.N,VCC*%
X139894000Y-118366000D03*
%TD*%
D10*
%TO.P,D3,1,K*%
%TO.N,GND*%
X169315000Y-116030000D03*
D11*
%TO.P,D3,2,A*%
%TO.N,Net-(D3-A)*%
X169315000Y-113490000D03*
%TD*%
D12*
%TO.P,R2,1*%
%TO.N,LED2*%
X177190000Y-123500000D03*
D13*
%TO.P,R2,2*%
%TO.N,Net-(D2-A)*%
X184810000Y-123500000D03*
%TD*%
D14*
%TO.P,SW1,1,1*%
%TO.N,GND*%
X190000000Y-112400000D03*
X196500000Y-112400000D03*
%TO.P,SW1,2,2*%
%TO.N,LOCK1*%
X190000000Y-116900000D03*
X196500000Y-116900000D03*
%TD*%
D20*
%TO.N,SDA*%
X138545026Y-118615088D02*
X138545026Y-85414974D01*
X139894000Y-119964062D02*
X138545026Y-118615088D01*
X138545026Y-85414974D02*
X140000000Y-83960000D01*
X139894000Y-120652000D02*
X139894000Y-119964062D01*
%TO.N,LED2*%
X177190000Y-123500000D02*
X178436346Y-123500000D01*
X185960000Y-131976346D02*
X182636346Y-135300000D01*
X146240894Y-135300000D02*
X136345026Y-125404132D01*
X185960000Y-131023654D02*
X185960000Y-131976346D01*
X178436346Y-123500000D02*
X185960000Y-131023654D01*
X182636346Y-135300000D02*
X146240894Y-135300000D01*
X136345026Y-79994974D02*
X140000000Y-76340000D01*
X136345026Y-125404132D02*
X136345026Y-79994974D01*
D21*
%TO.N,GND*%
X189000000Y-119950000D02*
X169050000Y-119950000D01*
X169315000Y-116030000D02*
X149850000Y-116030000D01*
X169815000Y-133550000D02*
X168415000Y-133550000D01*
X155570000Y-94450000D02*
X155240000Y-94120000D01*
X190000000Y-112400000D02*
X186370000Y-116030000D01*
X141328000Y-80208000D02*
X155240000Y-94120000D01*
X190000000Y-78134000D02*
X173684000Y-94450000D01*
X141340000Y-124540000D02*
X139894000Y-125986000D01*
X172418001Y-94881999D02*
X156001999Y-94881999D01*
X160851000Y-125986000D02*
X139894000Y-125986000D01*
X149850000Y-116030000D02*
X139894000Y-125986000D01*
X190000000Y-120950000D02*
X189000000Y-119950000D01*
X156001999Y-94881999D02*
X155240000Y-94120000D01*
X167965000Y-121035000D02*
X167965000Y-123190000D01*
X186370000Y-116030000D02*
X169315000Y-116030000D01*
X167965000Y-123190000D02*
X169315000Y-124540000D01*
X169315000Y-124540000D02*
X141340000Y-124540000D01*
X169050000Y-119950000D02*
X167965000Y-121035000D01*
X173684000Y-94450000D02*
X155570000Y-94450000D01*
X168415000Y-133550000D02*
X160851000Y-125986000D01*
X137445026Y-82260947D02*
X139497973Y-80208000D01*
X139497973Y-80208000D02*
X141328000Y-80208000D01*
X196500000Y-112400000D02*
X190000000Y-112400000D01*
X139894000Y-125986000D02*
X137445026Y-123537026D01*
X137445026Y-123537026D02*
X137445026Y-82260947D01*
X174300000Y-93000000D02*
X172418001Y-94881999D01*
X196500000Y-120950000D02*
X190000000Y-120950000D01*
D20*
%TO.N,LED1*%
X136845026Y-82012419D02*
X139977445Y-78880000D01*
X136845026Y-125197026D02*
X136845026Y-82012419D01*
X177190000Y-131500000D02*
X173890000Y-134800000D01*
X146448000Y-134800000D02*
X136845026Y-125197026D01*
X139977445Y-78880000D02*
X140000000Y-78880000D01*
X173890000Y-134800000D02*
X146448000Y-134800000D01*
D21*
%TO.N,VCC*%
X177628000Y-97872000D02*
X190000000Y-85500000D01*
X140000000Y-94120000D02*
X143752000Y-97872000D01*
X139894000Y-118366000D02*
X145500000Y-112760000D01*
X143752000Y-97872000D02*
X177628000Y-97872000D01*
X145500000Y-99620000D02*
X140000000Y-94120000D01*
X145500000Y-112760000D02*
X145500000Y-99620000D01*
D20*
%TO.N,BUZZER*%
X161500000Y-80060000D02*
X155240000Y-73800000D01*
X161500000Y-87800000D02*
X161500000Y-80060000D01*
X166700000Y-93000000D02*
X161500000Y-87800000D01*
%TO.N,SCL*%
X141112000Y-85388000D02*
X140000000Y-86500000D01*
X138045026Y-84342368D02*
X139539394Y-82848000D01*
X140460606Y-82848000D02*
X141112000Y-83499394D01*
X141112000Y-83499394D02*
X141112000Y-85388000D01*
X139539394Y-82848000D02*
X140460606Y-82848000D01*
X139894000Y-123192000D02*
X138045026Y-121343026D01*
X138045026Y-121343026D02*
X138045026Y-84342368D01*
%TO.N,TRIGG*%
X192000000Y-77854287D02*
X184293713Y-70148000D01*
X153628000Y-71299394D02*
X153628000Y-77268000D01*
X184293713Y-70148000D02*
X154779394Y-70148000D01*
X190000000Y-82706000D02*
X192000000Y-80706000D01*
X153628000Y-77268000D02*
X155240000Y-78880000D01*
X192000000Y-80706000D02*
X192000000Y-77854287D01*
X154779394Y-70148000D02*
X153628000Y-71299394D01*
%TO.N,LED3*%
X168065000Y-109935000D02*
X192500000Y-85500000D01*
X146192000Y-67608000D02*
X140000000Y-73800000D01*
X176690000Y-114500000D02*
X176450000Y-114740000D01*
X176450000Y-114740000D02*
X168797233Y-114740000D01*
X168065000Y-114007767D02*
X168065000Y-109935000D01*
X168797233Y-114740000D02*
X168065000Y-114007767D01*
X192500000Y-85500000D02*
X192500000Y-77647180D01*
X182460820Y-67608000D02*
X146192000Y-67608000D01*
X192500000Y-77647180D02*
X182460820Y-67608000D01*
%TO.N,echo*%
X154128000Y-73339394D02*
X154779394Y-72688000D01*
X155240000Y-76340000D02*
X154128000Y-75228000D01*
X186126606Y-72688000D02*
X191500000Y-78061394D01*
X154779394Y-72688000D02*
X186126606Y-72688000D01*
X191500000Y-78061394D02*
X191500000Y-78920000D01*
X191500000Y-78920000D02*
X190000000Y-80420000D01*
X154128000Y-75228000D02*
X154128000Y-73339394D01*
%TO.N,Net-(D1-A)*%
X170715000Y-130110000D02*
X183420000Y-130110000D01*
X169815000Y-131010000D02*
X170715000Y-130110000D01*
X183420000Y-130110000D02*
X184810000Y-131500000D01*
%TO.N,Net-(D2-A)*%
X169315000Y-122000000D02*
X183310000Y-122000000D01*
X183310000Y-122000000D02*
X184810000Y-123500000D01*
%TO.N,Net-(D3-A)*%
X170215000Y-112590000D02*
X182400000Y-112590000D01*
X182400000Y-112590000D02*
X184310000Y-114500000D01*
X169315000Y-113490000D02*
X170215000Y-112590000D01*
%TD*%
%TA.AperFunction,Conductor*%
%TO.N,GND*%
G36*
X176044687Y-130779245D02*
G01*
X176063432Y-130824500D01*
X176057436Y-130851544D01*
X176002637Y-130969062D01*
X175963260Y-131053505D01*
X175904364Y-131273311D01*
X175904364Y-131273312D01*
X175884532Y-131499995D01*
X175884532Y-131500004D01*
X175904364Y-131726692D01*
X175904364Y-131726694D01*
X175924174Y-131800623D01*
X175917781Y-131849187D01*
X175907610Y-131862442D01*
X173639299Y-134130755D01*
X173594044Y-134149500D01*
X171279000Y-134149500D01*
X171233745Y-134130755D01*
X171215000Y-134085500D01*
X171215000Y-133800000D01*
X170190278Y-133800000D01*
X170234333Y-133723694D01*
X170265000Y-133609244D01*
X170265000Y-133490756D01*
X170234333Y-133376306D01*
X170190278Y-133300000D01*
X171215000Y-133300000D01*
X171215000Y-132602172D01*
X171214999Y-132602158D01*
X171208598Y-132542625D01*
X171158350Y-132407906D01*
X171072191Y-132292814D01*
X171072185Y-132292808D01*
X170957093Y-132206649D01*
X170957094Y-132206649D01*
X170822374Y-132156401D01*
X170803562Y-132154379D01*
X170760570Y-132130903D01*
X170746771Y-132083904D01*
X170765651Y-132046466D01*
X170764992Y-132045860D01*
X170833530Y-131971407D01*
X170923979Y-131873153D01*
X171050924Y-131678849D01*
X171144157Y-131466300D01*
X171201134Y-131241305D01*
X171201135Y-131241296D01*
X171220300Y-131010005D01*
X171220300Y-131009994D01*
X171205368Y-130829785D01*
X171220312Y-130783137D01*
X171263864Y-130760719D01*
X171269149Y-130760500D01*
X175999432Y-130760500D01*
X176044687Y-130779245D01*
G37*
%TD.AperFunction*%
%TA.AperFunction,Conductor*%
G36*
X154018471Y-68277245D02*
G01*
X154037216Y-68322500D01*
X154035035Y-68339065D01*
X153991928Y-68499937D01*
X153972677Y-68719994D01*
X153972677Y-68720005D01*
X153991929Y-68940063D01*
X154049104Y-69153446D01*
X154142467Y-69353664D01*
X154269174Y-69534620D01*
X154325746Y-69591192D01*
X154344491Y-69636447D01*
X154325746Y-69681702D01*
X153122724Y-70884723D01*
X153051538Y-70991261D01*
X153051534Y-70991269D01*
X153002498Y-71109652D01*
X153002497Y-71109654D01*
X152977500Y-71235322D01*
X152977500Y-77332071D01*
X153002427Y-77457383D01*
X153002431Y-77457425D01*
X153002435Y-77457425D01*
X153002497Y-77457737D01*
X153002500Y-77457749D01*
X153032799Y-77530894D01*
X153051535Y-77576127D01*
X153051536Y-77576129D01*
X153051538Y-77576132D01*
X153087607Y-77630114D01*
X153115473Y-77671819D01*
X153122724Y-77682670D01*
X153988637Y-78548583D01*
X154007382Y-78593838D01*
X154005201Y-78610402D01*
X153991929Y-78659935D01*
X153991929Y-78659936D01*
X153972677Y-78879994D01*
X153972677Y-78880005D01*
X153991929Y-79100063D01*
X154049104Y-79313446D01*
X154142467Y-79513664D01*
X154234662Y-79645332D01*
X154269174Y-79694620D01*
X154425380Y-79850826D01*
X154606338Y-79977534D01*
X154806550Y-80070894D01*
X154806552Y-80070894D01*
X154806553Y-80070895D01*
X154871064Y-80088181D01*
X154909926Y-80118000D01*
X154916319Y-80166564D01*
X154886500Y-80205426D01*
X154871064Y-80211819D01*
X154806553Y-80229104D01*
X154606336Y-80322467D01*
X154425379Y-80449174D01*
X154269174Y-80605379D01*
X154142467Y-80786336D01*
X154049104Y-80986553D01*
X153991929Y-81199936D01*
X153972677Y-81419994D01*
X153972677Y-81420005D01*
X153991929Y-81640063D01*
X154049104Y-81853446D01*
X154142467Y-82053664D01*
X154269174Y-82234620D01*
X154425380Y-82390826D01*
X154606338Y-82517534D01*
X154806550Y-82610894D01*
X154806552Y-82610894D01*
X154806553Y-82610895D01*
X154871064Y-82628181D01*
X154909926Y-82658000D01*
X154916319Y-82706564D01*
X154886500Y-82745426D01*
X154871064Y-82751819D01*
X154806553Y-82769104D01*
X154606336Y-82862467D01*
X154425379Y-82989174D01*
X154269174Y-83145379D01*
X154142467Y-83326336D01*
X154049104Y-83526553D01*
X153991929Y-83739936D01*
X153972677Y-83959994D01*
X153972677Y-83960005D01*
X153991929Y-84180063D01*
X154049104Y-84393446D01*
X154142467Y-84593664D01*
X154269174Y-84774620D01*
X154425380Y-84930826D01*
X154606338Y-85057534D01*
X154806550Y-85150894D01*
X154806552Y-85150894D01*
X154806553Y-85150895D01*
X154871064Y-85168181D01*
X154909926Y-85198000D01*
X154916319Y-85246564D01*
X154886500Y-85285426D01*
X154871064Y-85291819D01*
X154806553Y-85309104D01*
X154606336Y-85402467D01*
X154425379Y-85529174D01*
X154269174Y-85685379D01*
X154142467Y-85866336D01*
X154049104Y-86066553D01*
X153991929Y-86279936D01*
X153972677Y-86499994D01*
X153972677Y-86500005D01*
X153991929Y-86720063D01*
X153991929Y-86720066D01*
X153991930Y-86720068D01*
X154007249Y-86777240D01*
X154049104Y-86933446D01*
X154049106Y-86933450D01*
X154142466Y-87133662D01*
X154269174Y-87314620D01*
X154425380Y-87470826D01*
X154606338Y-87597534D01*
X154806550Y-87690894D01*
X154806552Y-87690894D01*
X154806553Y-87690895D01*
X154871064Y-87708181D01*
X154909926Y-87738000D01*
X154916319Y-87786564D01*
X154886500Y-87825426D01*
X154871064Y-87831819D01*
X154806553Y-87849104D01*
X154606336Y-87942467D01*
X154425379Y-88069174D01*
X154269174Y-88225379D01*
X154142467Y-88406336D01*
X154049104Y-88606553D01*
X153991929Y-88819936D01*
X153972677Y-89039994D01*
X153972677Y-89040005D01*
X153991929Y-89260063D01*
X154049104Y-89473446D01*
X154049106Y-89473450D01*
X154142466Y-89673662D01*
X154269174Y-89854620D01*
X154425380Y-90010826D01*
X154606338Y-90137534D01*
X154806550Y-90230894D01*
X154806552Y-90230894D01*
X154806553Y-90230895D01*
X154871064Y-90248181D01*
X154909926Y-90278000D01*
X154916319Y-90326564D01*
X154886500Y-90365426D01*
X154871064Y-90371819D01*
X154806553Y-90389104D01*
X154606336Y-90482467D01*
X154425379Y-90609174D01*
X154269174Y-90765379D01*
X154142467Y-90946336D01*
X154049104Y-91146553D01*
X153991929Y-91359936D01*
X153972677Y-91579994D01*
X153972677Y-91580005D01*
X153991929Y-91800063D01*
X154049104Y-92013446D01*
X154049106Y-92013450D01*
X154142466Y-92213662D01*
X154269174Y-92394620D01*
X154425380Y-92550826D01*
X154606338Y-92677534D01*
X154806550Y-92770894D01*
X154806552Y-92770894D01*
X154806553Y-92770895D01*
X154872031Y-92788440D01*
X154910893Y-92818259D01*
X154917286Y-92866823D01*
X154887467Y-92905685D01*
X154872031Y-92912078D01*
X154806725Y-92929576D01*
X154606591Y-93022900D01*
X154606584Y-93022904D01*
X154541810Y-93068257D01*
X155212553Y-93739000D01*
X155189840Y-93739000D01*
X155092939Y-93764964D01*
X155006060Y-93815124D01*
X154935124Y-93886060D01*
X154884964Y-93972939D01*
X154859000Y-94069840D01*
X154859000Y-94092553D01*
X154188257Y-93421810D01*
X154142904Y-93486584D01*
X154142900Y-93486591D01*
X154049576Y-93686725D01*
X153992424Y-93900023D01*
X153973179Y-94119995D01*
X153973179Y-94120004D01*
X153992424Y-94339976D01*
X154049577Y-94553277D01*
X154142900Y-94753411D01*
X154188258Y-94818187D01*
X154859000Y-94147445D01*
X154859000Y-94170160D01*
X154884964Y-94267061D01*
X154935124Y-94353940D01*
X155006060Y-94424876D01*
X155092939Y-94475036D01*
X155189840Y-94501000D01*
X155212553Y-94501000D01*
X154541810Y-95171741D01*
X154606584Y-95217097D01*
X154806722Y-95310422D01*
X154872031Y-95327921D01*
X154910892Y-95357739D01*
X154917286Y-95406304D01*
X154887468Y-95445165D01*
X154872032Y-95451559D01*
X154806551Y-95469105D01*
X154606336Y-95562467D01*
X154425379Y-95689174D01*
X154269174Y-95845379D01*
X154142467Y-96026336D01*
X154049104Y-96226553D01*
X153991929Y-96439936D01*
X153972677Y-96659994D01*
X153972677Y-96660005D01*
X153991928Y-96880062D01*
X154035035Y-97040935D01*
X154028642Y-97089500D01*
X153989781Y-97119319D01*
X153973216Y-97121500D01*
X144089377Y-97121500D01*
X144044122Y-97102755D01*
X141271856Y-94330488D01*
X141253111Y-94285233D01*
X141253355Y-94279655D01*
X141267323Y-94120004D01*
X141267323Y-94119994D01*
X141248070Y-93899936D01*
X141248070Y-93899932D01*
X141190894Y-93686550D01*
X141097534Y-93486339D01*
X140970826Y-93305380D01*
X140814620Y-93149174D01*
X140804473Y-93142069D01*
X140633664Y-93022467D01*
X140433446Y-92929104D01*
X140368935Y-92911819D01*
X140330073Y-92882000D01*
X140323680Y-92833436D01*
X140353499Y-92794574D01*
X140368935Y-92788181D01*
X140433446Y-92770895D01*
X140433445Y-92770895D01*
X140433450Y-92770894D01*
X140633662Y-92677534D01*
X140814620Y-92550826D01*
X140970826Y-92394620D01*
X141097534Y-92213662D01*
X141190894Y-92013450D01*
X141248070Y-91800068D01*
X141261859Y-91642454D01*
X141267323Y-91580005D01*
X141267323Y-91579994D01*
X141248070Y-91359936D01*
X141248070Y-91359932D01*
X141190894Y-91146550D01*
X141097534Y-90946339D01*
X140970826Y-90765380D01*
X140814620Y-90609174D01*
X140804473Y-90602069D01*
X140633664Y-90482467D01*
X140433446Y-90389104D01*
X140368935Y-90371819D01*
X140330073Y-90342000D01*
X140323680Y-90293436D01*
X140353499Y-90254574D01*
X140368935Y-90248181D01*
X140433446Y-90230895D01*
X140433445Y-90230895D01*
X140433450Y-90230894D01*
X140633662Y-90137534D01*
X140814620Y-90010826D01*
X140970826Y-89854620D01*
X141097534Y-89673662D01*
X141190894Y-89473450D01*
X141248070Y-89260068D01*
X141267323Y-89040000D01*
X141267323Y-89039994D01*
X141248070Y-88819936D01*
X141248070Y-88819932D01*
X141190894Y-88606550D01*
X141097534Y-88406339D01*
X140970826Y-88225380D01*
X140814620Y-88069174D01*
X140804473Y-88062069D01*
X140633664Y-87942467D01*
X140433446Y-87849104D01*
X140368935Y-87831819D01*
X140330073Y-87802000D01*
X140323680Y-87753436D01*
X140353499Y-87714574D01*
X140368935Y-87708181D01*
X140433446Y-87690895D01*
X140433445Y-87690895D01*
X140433450Y-87690894D01*
X140633662Y-87597534D01*
X140814620Y-87470826D01*
X140970826Y-87314620D01*
X141097534Y-87133662D01*
X141190894Y-86933450D01*
X141248070Y-86720068D01*
X141267323Y-86500000D01*
X141267323Y-86499994D01*
X141248071Y-86279942D01*
X141248070Y-86279936D01*
X141248070Y-86279932D01*
X141234798Y-86230402D01*
X141241191Y-86181839D01*
X141251362Y-86168583D01*
X141353395Y-86066550D01*
X141617276Y-85802670D01*
X141688465Y-85696127D01*
X141737501Y-85577744D01*
X141757134Y-85479043D01*
X141762500Y-85452069D01*
X141762500Y-83435325D01*
X141762500Y-83435322D01*
X141737502Y-83309654D01*
X141737501Y-83309652D01*
X141737501Y-83309650D01*
X141688465Y-83191267D01*
X141688465Y-83191266D01*
X141617276Y-83084725D01*
X141526669Y-82994118D01*
X140914253Y-82381701D01*
X140895508Y-82336446D01*
X140914253Y-82291192D01*
X140970826Y-82234620D01*
X141097534Y-82053662D01*
X141190894Y-81853450D01*
X141248070Y-81640068D01*
X141267323Y-81420000D01*
X141267323Y-81419994D01*
X141251105Y-81234620D01*
X141248070Y-81199932D01*
X141190894Y-80986550D01*
X141097534Y-80786339D01*
X140970826Y-80605380D01*
X140814620Y-80449174D01*
X140681491Y-80355956D01*
X140633664Y-80322467D01*
X140433446Y-80229104D01*
X140368935Y-80211819D01*
X140330073Y-80182000D01*
X140323680Y-80133436D01*
X140353499Y-80094574D01*
X140368935Y-80088181D01*
X140433446Y-80070895D01*
X140433445Y-80070895D01*
X140433450Y-80070894D01*
X140633662Y-79977534D01*
X140814620Y-79850826D01*
X140970826Y-79694620D01*
X141097534Y-79513662D01*
X141190894Y-79313450D01*
X141248070Y-79100068D01*
X141267323Y-78880000D01*
X141267323Y-78879994D01*
X141248070Y-78659936D01*
X141248070Y-78659935D01*
X141248070Y-78659932D01*
X141190894Y-78446550D01*
X141097534Y-78246339D01*
X140970826Y-78065380D01*
X140814620Y-77909174D01*
X140700297Y-77829124D01*
X140633664Y-77782467D01*
X140433446Y-77689104D01*
X140368935Y-77671819D01*
X140330073Y-77642000D01*
X140323680Y-77593436D01*
X140353499Y-77554574D01*
X140368935Y-77548181D01*
X140433446Y-77530895D01*
X140433445Y-77530895D01*
X140433450Y-77530894D01*
X140633662Y-77437534D01*
X140814620Y-77310826D01*
X140970826Y-77154620D01*
X141097534Y-76973662D01*
X141190894Y-76773450D01*
X141248070Y-76560068D01*
X141267323Y-76340000D01*
X141267323Y-76339995D01*
X141267323Y-76339994D01*
X141248070Y-76119936D01*
X141248070Y-76119932D01*
X141190894Y-75906550D01*
X141097534Y-75706339D01*
X140970826Y-75525380D01*
X140814620Y-75369174D01*
X140633664Y-75242467D01*
X140433446Y-75149104D01*
X140368935Y-75131819D01*
X140330073Y-75102000D01*
X140323680Y-75053436D01*
X140353499Y-75014574D01*
X140368935Y-75008181D01*
X140433446Y-74990895D01*
X140433445Y-74990895D01*
X140433450Y-74990894D01*
X140633662Y-74897534D01*
X140814620Y-74770826D01*
X140970826Y-74614620D01*
X141097534Y-74433662D01*
X141190894Y-74233450D01*
X141248070Y-74020068D01*
X141267323Y-73800000D01*
X141267323Y-73799994D01*
X141248071Y-73579942D01*
X141248070Y-73579936D01*
X141248070Y-73579932D01*
X141234798Y-73530402D01*
X141241191Y-73481837D01*
X141251358Y-73468586D01*
X146442701Y-68277245D01*
X146487956Y-68258500D01*
X153973216Y-68258500D01*
X154018471Y-68277245D01*
G37*
%TD.AperFunction*%
%TA.AperFunction,Conductor*%
G36*
X185875905Y-73357245D02*
G01*
X189430834Y-76912174D01*
X189449579Y-76957429D01*
X189430834Y-77002684D01*
X189412627Y-77015432D01*
X189366600Y-77036895D01*
X189366584Y-77036904D01*
X189301810Y-77082257D01*
X189972553Y-77753000D01*
X189949840Y-77753000D01*
X189852939Y-77778964D01*
X189766060Y-77829124D01*
X189695124Y-77900060D01*
X189644964Y-77986939D01*
X189619000Y-78083840D01*
X189619000Y-78106553D01*
X188948257Y-77435810D01*
X188902904Y-77500584D01*
X188902900Y-77500591D01*
X188809576Y-77700725D01*
X188752424Y-77914023D01*
X188733179Y-78133995D01*
X188733179Y-78134004D01*
X188752424Y-78353976D01*
X188809577Y-78567277D01*
X188902900Y-78767411D01*
X188948258Y-78832187D01*
X189619000Y-78161445D01*
X189619000Y-78184160D01*
X189644964Y-78281061D01*
X189695124Y-78367940D01*
X189766060Y-78438876D01*
X189852939Y-78489036D01*
X189949840Y-78515000D01*
X189972552Y-78515000D01*
X189301811Y-79185740D01*
X189356835Y-79224268D01*
X189383154Y-79265580D01*
X189372552Y-79313403D01*
X189356835Y-79329120D01*
X189185379Y-79449174D01*
X189029174Y-79605379D01*
X188902467Y-79786336D01*
X188809104Y-79986553D01*
X188751929Y-80199936D01*
X188732677Y-80419994D01*
X188732677Y-80420005D01*
X188751929Y-80640063D01*
X188809104Y-80853446D01*
X188809106Y-80853450D01*
X188902466Y-81053662D01*
X189029174Y-81234620D01*
X189185380Y-81390826D01*
X189356399Y-81510574D01*
X189382717Y-81551885D01*
X189372115Y-81599708D01*
X189356398Y-81615425D01*
X189185379Y-81735174D01*
X189029174Y-81891379D01*
X188902467Y-82072336D01*
X188809104Y-82272553D01*
X188751929Y-82485936D01*
X188732677Y-82705994D01*
X188732677Y-82706005D01*
X188751929Y-82926063D01*
X188809104Y-83139446D01*
X188871346Y-83272924D01*
X188902466Y-83339662D01*
X189029174Y-83520620D01*
X189185380Y-83676826D01*
X189366338Y-83803534D01*
X189566550Y-83896894D01*
X189566552Y-83896894D01*
X189566553Y-83896895D01*
X189599562Y-83905739D01*
X189779932Y-83954070D01*
X189877740Y-83962626D01*
X189999995Y-83973323D01*
X190000000Y-83973323D01*
X190000005Y-83973323D01*
X190110034Y-83963696D01*
X190220068Y-83954070D01*
X190433450Y-83896894D01*
X190633662Y-83803534D01*
X190814620Y-83676826D01*
X190970826Y-83520620D01*
X191097534Y-83339662D01*
X191190894Y-83139450D01*
X191248070Y-82926068D01*
X191261802Y-82769104D01*
X191267323Y-82706005D01*
X191267323Y-82705994D01*
X191248071Y-82485942D01*
X191248070Y-82485936D01*
X191248070Y-82485932D01*
X191234797Y-82436399D01*
X191241190Y-82387838D01*
X191251357Y-82374586D01*
X191740246Y-81885698D01*
X191785500Y-81866954D01*
X191830755Y-81885699D01*
X191849500Y-81930954D01*
X191849500Y-85204043D01*
X191830755Y-85249298D01*
X191371754Y-85708299D01*
X191326499Y-85727044D01*
X191281244Y-85708299D01*
X191262499Y-85663044D01*
X191262499Y-84690130D01*
X191262498Y-84690112D01*
X191256091Y-84630521D01*
X191256091Y-84630517D01*
X191205796Y-84495669D01*
X191205793Y-84495665D01*
X191205793Y-84495664D01*
X191119548Y-84380457D01*
X191119546Y-84380454D01*
X191119542Y-84380451D01*
X191004335Y-84294206D01*
X191004336Y-84294206D01*
X190869481Y-84243908D01*
X190809879Y-84237500D01*
X189190130Y-84237500D01*
X189190112Y-84237501D01*
X189130521Y-84243908D01*
X189130518Y-84243908D01*
X189130517Y-84243909D01*
X188995669Y-84294204D01*
X188995664Y-84294206D01*
X188880457Y-84380451D01*
X188880451Y-84380457D01*
X188794206Y-84495664D01*
X188743908Y-84630518D01*
X188737500Y-84690113D01*
X188737500Y-85674622D01*
X188718755Y-85719877D01*
X177335877Y-97102755D01*
X177290622Y-97121500D01*
X156506784Y-97121500D01*
X156461529Y-97102755D01*
X156442784Y-97057500D01*
X156444965Y-97040935D01*
X156488070Y-96880068D01*
X156488070Y-96880064D01*
X156488071Y-96880062D01*
X156507323Y-96660005D01*
X156507323Y-96659994D01*
X156488070Y-96439936D01*
X156488070Y-96439932D01*
X156430894Y-96226550D01*
X156337534Y-96026339D01*
X156210826Y-95845380D01*
X156054620Y-95689174D01*
X156044473Y-95682069D01*
X155873664Y-95562467D01*
X155673448Y-95469105D01*
X155607967Y-95451559D01*
X155569106Y-95421739D01*
X155562713Y-95373175D01*
X155592533Y-95334314D01*
X155607969Y-95327920D01*
X155673281Y-95310420D01*
X155873406Y-95217101D01*
X155873407Y-95217100D01*
X155938187Y-95171741D01*
X155267447Y-94501000D01*
X155290160Y-94501000D01*
X155387061Y-94475036D01*
X155473940Y-94424876D01*
X155544876Y-94353940D01*
X155595036Y-94267061D01*
X155621000Y-94170160D01*
X155621000Y-94147446D01*
X156291741Y-94818187D01*
X156337100Y-94753407D01*
X156337101Y-94753406D01*
X156430422Y-94553277D01*
X156487575Y-94339976D01*
X156506821Y-94120004D01*
X156506821Y-94119995D01*
X156487575Y-93900023D01*
X156430423Y-93686725D01*
X156337097Y-93486587D01*
X156291740Y-93421811D01*
X155621000Y-94092551D01*
X155621000Y-94069840D01*
X155595036Y-93972939D01*
X155544876Y-93886060D01*
X155473940Y-93815124D01*
X155387061Y-93764964D01*
X155290160Y-93739000D01*
X155267445Y-93739000D01*
X155938187Y-93068258D01*
X155873411Y-93022900D01*
X155673277Y-92929577D01*
X155607968Y-92912078D01*
X155569106Y-92882259D01*
X155562713Y-92833695D01*
X155592532Y-92794833D01*
X155607968Y-92788440D01*
X155673446Y-92770895D01*
X155673445Y-92770895D01*
X155673450Y-92770894D01*
X155873662Y-92677534D01*
X156054620Y-92550826D01*
X156210826Y-92394620D01*
X156337534Y-92213662D01*
X156430894Y-92013450D01*
X156488070Y-91800068D01*
X156501859Y-91642454D01*
X156507323Y-91580005D01*
X156507323Y-91579994D01*
X156488070Y-91359936D01*
X156488070Y-91359932D01*
X156430894Y-91146550D01*
X156337534Y-90946339D01*
X156210826Y-90765380D01*
X156054620Y-90609174D01*
X156044473Y-90602069D01*
X155873664Y-90482467D01*
X155673446Y-90389104D01*
X155608935Y-90371819D01*
X155570073Y-90342000D01*
X155563680Y-90293436D01*
X155593499Y-90254574D01*
X155608935Y-90248181D01*
X155673446Y-90230895D01*
X155673445Y-90230895D01*
X155673450Y-90230894D01*
X155873662Y-90137534D01*
X156054620Y-90010826D01*
X156210826Y-89854620D01*
X156337534Y-89673662D01*
X156430894Y-89473450D01*
X156488070Y-89260068D01*
X156507323Y-89040000D01*
X156507323Y-89039994D01*
X156488070Y-88819936D01*
X156488070Y-88819932D01*
X156430894Y-88606550D01*
X156337534Y-88406339D01*
X156210826Y-88225380D01*
X156054620Y-88069174D01*
X156044473Y-88062069D01*
X155873664Y-87942467D01*
X155673446Y-87849104D01*
X155608935Y-87831819D01*
X155570073Y-87802000D01*
X155563680Y-87753436D01*
X155593499Y-87714574D01*
X155608935Y-87708181D01*
X155673446Y-87690895D01*
X155673445Y-87690895D01*
X155673450Y-87690894D01*
X155873662Y-87597534D01*
X156054620Y-87470826D01*
X156210826Y-87314620D01*
X156337534Y-87133662D01*
X156430894Y-86933450D01*
X156488070Y-86720068D01*
X156507323Y-86500000D01*
X156507323Y-86499994D01*
X156488070Y-86279936D01*
X156488070Y-86279932D01*
X156430894Y-86066550D01*
X156337534Y-85866339D01*
X156210826Y-85685380D01*
X156054620Y-85529174D01*
X155983027Y-85479044D01*
X155873664Y-85402467D01*
X155673446Y-85309104D01*
X155608935Y-85291819D01*
X155570073Y-85262000D01*
X155563680Y-85213436D01*
X155593499Y-85174574D01*
X155608935Y-85168181D01*
X155673446Y-85150895D01*
X155673445Y-85150895D01*
X155673450Y-85150894D01*
X155873662Y-85057534D01*
X156054620Y-84930826D01*
X156210826Y-84774620D01*
X156337534Y-84593662D01*
X156430894Y-84393450D01*
X156488070Y-84180068D01*
X156504359Y-83993884D01*
X156507323Y-83960005D01*
X156507323Y-83959994D01*
X156488070Y-83739936D01*
X156488070Y-83739932D01*
X156430894Y-83526550D01*
X156337534Y-83326339D01*
X156210826Y-83145380D01*
X156054620Y-82989174D01*
X155964488Y-82926063D01*
X155873664Y-82862467D01*
X155673446Y-82769104D01*
X155608935Y-82751819D01*
X155570073Y-82722000D01*
X155563680Y-82673436D01*
X155593499Y-82634574D01*
X155608935Y-82628181D01*
X155673446Y-82610895D01*
X155673445Y-82610895D01*
X155673450Y-82610894D01*
X155873662Y-82517534D01*
X156054620Y-82390826D01*
X156210826Y-82234620D01*
X156337534Y-82053662D01*
X156430894Y-81853450D01*
X156488070Y-81640068D01*
X156507323Y-81420000D01*
X156507323Y-81419994D01*
X156491105Y-81234620D01*
X156488070Y-81199932D01*
X156430894Y-80986550D01*
X156337534Y-80786339D01*
X156210826Y-80605380D01*
X156054620Y-80449174D01*
X155921491Y-80355956D01*
X155873664Y-80322467D01*
X155673446Y-80229104D01*
X155608935Y-80211819D01*
X155570073Y-80182000D01*
X155563680Y-80133436D01*
X155593499Y-80094574D01*
X155608935Y-80088181D01*
X155673446Y-80070895D01*
X155673445Y-80070895D01*
X155673450Y-80070894D01*
X155873662Y-79977534D01*
X156054620Y-79850826D01*
X156210826Y-79694620D01*
X156337534Y-79513662D01*
X156430894Y-79313450D01*
X156488070Y-79100068D01*
X156507323Y-78880000D01*
X156507323Y-78879994D01*
X156488070Y-78659936D01*
X156488070Y-78659935D01*
X156488070Y-78659932D01*
X156430894Y-78446550D01*
X156337534Y-78246339D01*
X156210826Y-78065380D01*
X156054620Y-77909174D01*
X155940297Y-77829124D01*
X155873664Y-77782467D01*
X155673446Y-77689104D01*
X155608935Y-77671819D01*
X155570073Y-77642000D01*
X155563680Y-77593436D01*
X155593499Y-77554574D01*
X155608935Y-77548181D01*
X155673446Y-77530895D01*
X155673445Y-77530895D01*
X155673450Y-77530894D01*
X155873662Y-77437534D01*
X156054620Y-77310826D01*
X156210826Y-77154620D01*
X156337534Y-76973662D01*
X156430894Y-76773450D01*
X156488070Y-76560068D01*
X156507323Y-76340000D01*
X156507322Y-76339994D01*
X156488830Y-76128620D01*
X156503559Y-76081904D01*
X156547008Y-76059286D01*
X156593724Y-76074015D01*
X156597841Y-76077787D01*
X160830755Y-80310701D01*
X160849500Y-80355956D01*
X160849500Y-87864071D01*
X160865095Y-87942465D01*
X160865095Y-87942467D01*
X160874496Y-87989735D01*
X160874498Y-87989742D01*
X160874499Y-87989744D01*
X160923535Y-88108127D01*
X160923536Y-88108129D01*
X160923538Y-88108132D01*
X160994724Y-88214670D01*
X165180755Y-92400701D01*
X165199500Y-92445956D01*
X165199500Y-94047869D01*
X165199501Y-94047887D01*
X165205908Y-94107478D01*
X165205909Y-94107483D01*
X165256204Y-94242331D01*
X165256205Y-94242332D01*
X165256206Y-94242335D01*
X165288320Y-94285233D01*
X165342454Y-94357546D01*
X165342457Y-94357548D01*
X165457664Y-94443793D01*
X165457663Y-94443793D01*
X165457666Y-94443794D01*
X165457669Y-94443796D01*
X165592517Y-94494091D01*
X165652127Y-94500500D01*
X167747872Y-94500499D01*
X167747875Y-94500498D01*
X167747887Y-94500498D01*
X167779624Y-94497085D01*
X167807483Y-94494091D01*
X167942331Y-94443796D01*
X168057546Y-94357546D01*
X168143796Y-94242331D01*
X168194091Y-94107483D01*
X168198138Y-94069840D01*
X168200499Y-94047886D01*
X168200499Y-94047882D01*
X168200500Y-94047873D01*
X168200499Y-92999995D01*
X172794859Y-92999995D01*
X172794859Y-93000004D01*
X172815385Y-93247729D01*
X172815385Y-93247730D01*
X172876412Y-93488717D01*
X172976267Y-93716365D01*
X173076564Y-93869881D01*
X173817037Y-93129408D01*
X173834075Y-93192993D01*
X173899901Y-93307007D01*
X173992993Y-93400099D01*
X174107007Y-93465925D01*
X174170590Y-93482962D01*
X173429943Y-94223609D01*
X173476763Y-94260052D01*
X173476766Y-94260054D01*
X173695393Y-94378368D01*
X173695392Y-94378368D01*
X173930506Y-94459083D01*
X174175698Y-94499999D01*
X174175710Y-94500000D01*
X174424290Y-94500000D01*
X174424301Y-94499999D01*
X174669493Y-94459083D01*
X174904607Y-94378368D01*
X175123233Y-94260054D01*
X175123236Y-94260052D01*
X175170055Y-94223610D01*
X174429409Y-93482962D01*
X174492993Y-93465925D01*
X174607007Y-93400099D01*
X174700099Y-93307007D01*
X174765925Y-93192993D01*
X174782962Y-93129409D01*
X175523434Y-93869881D01*
X175623732Y-93716365D01*
X175723587Y-93488717D01*
X175784614Y-93247730D01*
X175784614Y-93247729D01*
X175805141Y-93000004D01*
X175805141Y-92999995D01*
X175784614Y-92752270D01*
X175784614Y-92752269D01*
X175723587Y-92511282D01*
X175623732Y-92283634D01*
X175523434Y-92130117D01*
X174782962Y-92870589D01*
X174765925Y-92807007D01*
X174700099Y-92692993D01*
X174607007Y-92599901D01*
X174492993Y-92534075D01*
X174429407Y-92517036D01*
X175170055Y-91776389D01*
X175123228Y-91739941D01*
X174904612Y-91621633D01*
X174904607Y-91621631D01*
X174669493Y-91540916D01*
X174424301Y-91500000D01*
X174175698Y-91500000D01*
X173930506Y-91540916D01*
X173695392Y-91621631D01*
X173476766Y-91739945D01*
X173429943Y-91776388D01*
X173429943Y-91776389D01*
X174170591Y-92517037D01*
X174107007Y-92534075D01*
X173992993Y-92599901D01*
X173899901Y-92692993D01*
X173834075Y-92807007D01*
X173817037Y-92870590D01*
X173076564Y-92130117D01*
X172976269Y-92283629D01*
X172876412Y-92511282D01*
X172815385Y-92752269D01*
X172815385Y-92752270D01*
X172794859Y-92999995D01*
X168200499Y-92999995D01*
X168200499Y-91952128D01*
X168200498Y-91952125D01*
X168200498Y-91952112D01*
X168194091Y-91892521D01*
X168194091Y-91892517D01*
X168143796Y-91757669D01*
X168143793Y-91757665D01*
X168143793Y-91757664D01*
X168057548Y-91642457D01*
X168057546Y-91642454D01*
X168029730Y-91621631D01*
X167942335Y-91556206D01*
X167942336Y-91556206D01*
X167807481Y-91505908D01*
X167747886Y-91499500D01*
X167747873Y-91499500D01*
X166145956Y-91499500D01*
X166100701Y-91480755D01*
X162169245Y-87549299D01*
X162150500Y-87504044D01*
X162150500Y-79995928D01*
X162125502Y-79870260D01*
X162125501Y-79870258D01*
X162125501Y-79870256D01*
X162076465Y-79751873D01*
X162076464Y-79751871D01*
X162076463Y-79751869D01*
X162065393Y-79735303D01*
X162065387Y-79735294D01*
X162005277Y-79645331D01*
X156491362Y-74131416D01*
X156472617Y-74086161D01*
X156474798Y-74069596D01*
X156488070Y-74020068D01*
X156507323Y-73800000D01*
X156507323Y-73799994D01*
X156488071Y-73579937D01*
X156461785Y-73481837D01*
X156444965Y-73419063D01*
X156451358Y-73370500D01*
X156490219Y-73340681D01*
X156506784Y-73338500D01*
X185830650Y-73338500D01*
X185875905Y-73357245D01*
G37*
%TD.AperFunction*%
%TA.AperFunction,Conductor*%
G36*
X138737408Y-81130491D02*
G01*
X138756153Y-81175746D01*
X138753973Y-81192308D01*
X138751928Y-81199938D01*
X138732677Y-81419994D01*
X138732677Y-81420005D01*
X138751929Y-81640063D01*
X138809104Y-81853446D01*
X138902467Y-82053664D01*
X139029174Y-82234620D01*
X139085746Y-82291192D01*
X139104491Y-82336447D01*
X139085746Y-82381702D01*
X137604781Y-83862667D01*
X137559526Y-83881412D01*
X137514271Y-83862667D01*
X137495526Y-83817412D01*
X137495526Y-82308374D01*
X137514270Y-82263120D01*
X138646899Y-81130490D01*
X138692153Y-81111746D01*
X138737408Y-81130491D01*
G37*
%TD.AperFunction*%
%TA.AperFunction,Conductor*%
G36*
X198980755Y-59769245D02*
G01*
X198999500Y-59814500D01*
X198999500Y-136185500D01*
X198980755Y-136230755D01*
X198935500Y-136249500D01*
X134064500Y-136249500D01*
X134019245Y-136230755D01*
X134000500Y-136185500D01*
X134000500Y-133097999D01*
X138722693Y-133097999D01*
X138722693Y-133098000D01*
X138742636Y-133313224D01*
X138742637Y-133313227D01*
X138801789Y-133521125D01*
X138845667Y-133609244D01*
X138898133Y-133714611D01*
X139028393Y-133887103D01*
X139188126Y-134032720D01*
X139188128Y-134032721D01*
X139188130Y-134032723D01*
X139371904Y-134146511D01*
X139371903Y-134146511D01*
X139439088Y-134172538D01*
X139573457Y-134224593D01*
X139785925Y-134264310D01*
X140002075Y-134264310D01*
X140214543Y-134224593D01*
X140416096Y-134146511D01*
X140599870Y-134032723D01*
X140759606Y-133887104D01*
X140889865Y-133714614D01*
X140986211Y-133521125D01*
X141045363Y-133313227D01*
X141065307Y-133098000D01*
X141045363Y-132882773D01*
X140986211Y-132674875D01*
X140889865Y-132481386D01*
X140759606Y-132308896D01*
X140647447Y-132206649D01*
X140599873Y-132163279D01*
X140416095Y-132049488D01*
X140416096Y-132049488D01*
X140214540Y-131971406D01*
X140002077Y-131931690D01*
X140002075Y-131931690D01*
X139785925Y-131931690D01*
X139785922Y-131931690D01*
X139573459Y-131971406D01*
X139371904Y-132049488D01*
X139188126Y-132163279D01*
X139028393Y-132308896D01*
X138898133Y-132481388D01*
X138801789Y-132674875D01*
X138742637Y-132882772D01*
X138742636Y-132882775D01*
X138722693Y-133097999D01*
X134000500Y-133097999D01*
X134000500Y-79930902D01*
X135694526Y-79930902D01*
X135694526Y-79930905D01*
X135694526Y-125468201D01*
X135710275Y-125547374D01*
X135711487Y-125553464D01*
X135711487Y-125553466D01*
X135719523Y-125593872D01*
X135719526Y-125593882D01*
X135756066Y-125682093D01*
X135768561Y-125712259D01*
X135839749Y-125818801D01*
X145826225Y-135805277D01*
X145932767Y-135876465D01*
X146051150Y-135925501D01*
X146051153Y-135925501D01*
X146051154Y-135925502D01*
X146176822Y-135950500D01*
X146176825Y-135950500D01*
X182700418Y-135950500D01*
X182826085Y-135925502D01*
X182826085Y-135925501D01*
X182826090Y-135925501D01*
X182944473Y-135876465D01*
X183051015Y-135805277D01*
X184856297Y-133999995D01*
X188494357Y-133999995D01*
X188494357Y-134000004D01*
X188514890Y-134247811D01*
X188514890Y-134247813D01*
X188575937Y-134488883D01*
X188575938Y-134488884D01*
X188675825Y-134716603D01*
X188675826Y-134716606D01*
X188675827Y-134716607D01*
X188811836Y-134924785D01*
X188908207Y-135029472D01*
X188980254Y-135107737D01*
X189176488Y-135260472D01*
X189176491Y-135260474D01*
X189395190Y-135378828D01*
X189630382Y-135459570D01*
X189630384Y-135459570D01*
X189630386Y-135459571D01*
X189752577Y-135479960D01*
X189875657Y-135500499D01*
X189875661Y-135500499D01*
X189875665Y-135500500D01*
X189875669Y-135500500D01*
X190124331Y-135500500D01*
X190124335Y-135500500D01*
X190124339Y-135500499D01*
X190124342Y-135500499D01*
X190186102Y-135490193D01*
X190369614Y-135459571D01*
X190604810Y-135378828D01*
X190823509Y-135260474D01*
X191019744Y-135107738D01*
X191188164Y-134924785D01*
X191324173Y-134716607D01*
X191424063Y-134488881D01*
X191485108Y-134247821D01*
X191493503Y-134146511D01*
X191505643Y-134000004D01*
X191505643Y-133999995D01*
X194994357Y-133999995D01*
X194994357Y-134000004D01*
X195014890Y-134247811D01*
X195014890Y-134247813D01*
X195075937Y-134488883D01*
X195075938Y-134488884D01*
X195175825Y-134716603D01*
X195175826Y-134716606D01*
X195175827Y-134716607D01*
X195311836Y-134924785D01*
X195408207Y-135029472D01*
X195480254Y-135107737D01*
X195676488Y-135260472D01*
X195676491Y-135260474D01*
X195895190Y-135378828D01*
X196130382Y-135459570D01*
X196130384Y-135459570D01*
X196130386Y-135459571D01*
X196252577Y-135479960D01*
X196375657Y-135500499D01*
X196375661Y-135500499D01*
X196375665Y-135500500D01*
X196375669Y-135500500D01*
X196624331Y-135500500D01*
X196624335Y-135500500D01*
X196624339Y-135500499D01*
X196624342Y-135500499D01*
X196686102Y-135490193D01*
X196869614Y-135459571D01*
X197104810Y-135378828D01*
X197323509Y-135260474D01*
X197519744Y-135107738D01*
X197688164Y-134924785D01*
X197824173Y-134716607D01*
X197924063Y-134488881D01*
X197985108Y-134247821D01*
X197993503Y-134146511D01*
X198005643Y-134000004D01*
X198005643Y-133999995D01*
X197985109Y-133752188D01*
X197985109Y-133752186D01*
X197985108Y-133752183D01*
X197985108Y-133752179D01*
X197924063Y-133511119D01*
X197824173Y-133283393D01*
X197763098Y-133189910D01*
X197688168Y-133075221D01*
X197688167Y-133075220D01*
X197688164Y-133075215D01*
X197562568Y-132938781D01*
X197519745Y-132892262D01*
X197323511Y-132739527D01*
X197323508Y-132739525D01*
X197104808Y-132621171D01*
X197104809Y-132621171D01*
X196869617Y-132540429D01*
X196624342Y-132499500D01*
X196624335Y-132499500D01*
X196375665Y-132499500D01*
X196375657Y-132499500D01*
X196130382Y-132540429D01*
X195895190Y-132621171D01*
X195676491Y-132739525D01*
X195676488Y-132739527D01*
X195480254Y-132892262D01*
X195346764Y-133037272D01*
X195311836Y-133075215D01*
X195311834Y-133075216D01*
X195311831Y-133075221D01*
X195175826Y-133283393D01*
X195175825Y-133283396D01*
X195075938Y-133511115D01*
X195075937Y-133511116D01*
X195014890Y-133752186D01*
X195014890Y-133752188D01*
X194994357Y-133999995D01*
X191505643Y-133999995D01*
X191485109Y-133752188D01*
X191485109Y-133752186D01*
X191485108Y-133752183D01*
X191485108Y-133752179D01*
X191424063Y-133511119D01*
X191324173Y-133283393D01*
X191263098Y-133189910D01*
X191188168Y-133075221D01*
X191188167Y-133075220D01*
X191188164Y-133075215D01*
X191062568Y-132938781D01*
X191019745Y-132892262D01*
X190823511Y-132739527D01*
X190823508Y-132739525D01*
X190604808Y-132621171D01*
X190604809Y-132621171D01*
X190369617Y-132540429D01*
X190124342Y-132499500D01*
X190124335Y-132499500D01*
X189875665Y-132499500D01*
X189875657Y-132499500D01*
X189630382Y-132540429D01*
X189395190Y-132621171D01*
X189176491Y-132739525D01*
X189176488Y-132739527D01*
X188980254Y-132892262D01*
X188846764Y-133037272D01*
X188811836Y-133075215D01*
X188811834Y-133075216D01*
X188811831Y-133075221D01*
X188675826Y-133283393D01*
X188675825Y-133283396D01*
X188575938Y-133511115D01*
X188575937Y-133511116D01*
X188514890Y-133752186D01*
X188514890Y-133752188D01*
X188494357Y-133999995D01*
X184856297Y-133999995D01*
X186465277Y-132391015D01*
X186536466Y-132284472D01*
X186585501Y-132166089D01*
X186586061Y-132163277D01*
X186601015Y-132088099D01*
X186610500Y-132040417D01*
X186610500Y-130959582D01*
X186585502Y-130833914D01*
X186585501Y-130833912D01*
X186585501Y-130833910D01*
X186562630Y-130778695D01*
X186555184Y-130760719D01*
X186536468Y-130715533D01*
X186536466Y-130715528D01*
X186465277Y-130608985D01*
X185356287Y-129499995D01*
X188494859Y-129499995D01*
X188494859Y-129500004D01*
X188515385Y-129747729D01*
X188515385Y-129747730D01*
X188576412Y-129988717D01*
X188676267Y-130216365D01*
X188776564Y-130369881D01*
X189476212Y-129670233D01*
X189487482Y-129712292D01*
X189559890Y-129837708D01*
X189662292Y-129940110D01*
X189787708Y-130012518D01*
X189829765Y-130023787D01*
X189129943Y-130723609D01*
X189176763Y-130760052D01*
X189176766Y-130760054D01*
X189395393Y-130878368D01*
X189395392Y-130878368D01*
X189630506Y-130959083D01*
X189875698Y-130999999D01*
X189875710Y-131000000D01*
X190124290Y-131000000D01*
X190124301Y-130999999D01*
X190369493Y-130959083D01*
X190604607Y-130878368D01*
X190823233Y-130760054D01*
X190823236Y-130760052D01*
X190870055Y-130723610D01*
X190170234Y-130023787D01*
X190212292Y-130012518D01*
X190337708Y-129940110D01*
X190440110Y-129837708D01*
X190512518Y-129712292D01*
X190523787Y-129670234D01*
X191223434Y-130369881D01*
X191323732Y-130216365D01*
X191423587Y-129988717D01*
X191484614Y-129747730D01*
X191484614Y-129747729D01*
X191505141Y-129500004D01*
X191505141Y-129499995D01*
X194994859Y-129499995D01*
X194994859Y-129500004D01*
X195015385Y-129747729D01*
X195015385Y-129747730D01*
X195076412Y-129988717D01*
X195176267Y-130216365D01*
X195276564Y-130369881D01*
X195976212Y-129670233D01*
X195987482Y-129712292D01*
X196059890Y-129837708D01*
X196162292Y-129940110D01*
X196287708Y-130012518D01*
X196329765Y-130023787D01*
X195629943Y-130723609D01*
X195676763Y-130760052D01*
X195676766Y-130760054D01*
X195895393Y-130878368D01*
X195895392Y-130878368D01*
X196130506Y-130959083D01*
X196375698Y-130999999D01*
X196375710Y-131000000D01*
X196624290Y-131000000D01*
X196624301Y-130999999D01*
X196869493Y-130959083D01*
X197104607Y-130878368D01*
X197323233Y-130760054D01*
X197323236Y-130760052D01*
X197370055Y-130723610D01*
X196670234Y-130023787D01*
X196712292Y-130012518D01*
X196837708Y-129940110D01*
X196940110Y-129837708D01*
X197012518Y-129712292D01*
X197023787Y-129670234D01*
X197723434Y-130369881D01*
X197823732Y-130216365D01*
X197923587Y-129988717D01*
X197984614Y-129747730D01*
X197984614Y-129747729D01*
X198005141Y-129500004D01*
X198005141Y-129499995D01*
X197984614Y-129252270D01*
X197984614Y-129252269D01*
X197923587Y-129011282D01*
X197823732Y-128783634D01*
X197723434Y-128630117D01*
X197023787Y-129329764D01*
X197012518Y-129287708D01*
X196940110Y-129162292D01*
X196837708Y-129059890D01*
X196712292Y-128987482D01*
X196670232Y-128976211D01*
X197370055Y-128276389D01*
X197323228Y-128239941D01*
X197104612Y-128121633D01*
X197104607Y-128121631D01*
X196869493Y-128040916D01*
X196624301Y-128000000D01*
X196375698Y-128000000D01*
X196130506Y-128040916D01*
X195895392Y-128121631D01*
X195676766Y-128239945D01*
X195629943Y-128276388D01*
X195629943Y-128276389D01*
X196329766Y-128976212D01*
X196287708Y-128987482D01*
X196162292Y-129059890D01*
X196059890Y-129162292D01*
X195987482Y-129287708D01*
X195976212Y-129329765D01*
X195276564Y-128630117D01*
X195176269Y-128783629D01*
X195076412Y-129011282D01*
X195015385Y-129252269D01*
X195015385Y-129252270D01*
X194994859Y-129499995D01*
X191505141Y-129499995D01*
X191484614Y-129252270D01*
X191484614Y-129252269D01*
X191423587Y-129011282D01*
X191323732Y-128783634D01*
X191223434Y-128630117D01*
X190523787Y-129329764D01*
X190512518Y-129287708D01*
X190440110Y-129162292D01*
X190337708Y-129059890D01*
X190212292Y-128987482D01*
X190170232Y-128976211D01*
X190870055Y-128276389D01*
X190823228Y-128239941D01*
X190604612Y-128121633D01*
X190604607Y-128121631D01*
X190369493Y-128040916D01*
X190124301Y-128000000D01*
X189875698Y-128000000D01*
X189630506Y-128040916D01*
X189395392Y-128121631D01*
X189176766Y-128239945D01*
X189129943Y-128276388D01*
X189129943Y-128276389D01*
X189829766Y-128976212D01*
X189787708Y-128987482D01*
X189662292Y-129059890D01*
X189559890Y-129162292D01*
X189487482Y-129287708D01*
X189476212Y-129329765D01*
X188776564Y-128630117D01*
X188676269Y-128783629D01*
X188576412Y-129011282D01*
X188515385Y-129252269D01*
X188515385Y-129252270D01*
X188494859Y-129499995D01*
X185356287Y-129499995D01*
X181306287Y-125449995D01*
X188494357Y-125449995D01*
X188494357Y-125450004D01*
X188514890Y-125697811D01*
X188514890Y-125697813D01*
X188575937Y-125938883D01*
X188575938Y-125938884D01*
X188675825Y-126166603D01*
X188675826Y-126166606D01*
X188795265Y-126349422D01*
X188811836Y-126374785D01*
X188908207Y-126479472D01*
X188980254Y-126557737D01*
X189176488Y-126710472D01*
X189176491Y-126710474D01*
X189395190Y-126828828D01*
X189630382Y-126909570D01*
X189630384Y-126909570D01*
X189630386Y-126909571D01*
X189752577Y-126929960D01*
X189875657Y-126950499D01*
X189875661Y-126950499D01*
X189875665Y-126950500D01*
X189875669Y-126950500D01*
X190124331Y-126950500D01*
X190124335Y-126950500D01*
X190124339Y-126950499D01*
X190124342Y-126950499D01*
X190186102Y-126940193D01*
X190369614Y-126909571D01*
X190604810Y-126828828D01*
X190823509Y-126710474D01*
X191019744Y-126557738D01*
X191188164Y-126374785D01*
X191324173Y-126166607D01*
X191424063Y-125938881D01*
X191485108Y-125697821D01*
X191493721Y-125593876D01*
X191505643Y-125450004D01*
X191505643Y-125449995D01*
X194994357Y-125449995D01*
X194994357Y-125450004D01*
X195014890Y-125697811D01*
X195014890Y-125697813D01*
X195075937Y-125938883D01*
X195075938Y-125938884D01*
X195175825Y-126166603D01*
X195175826Y-126166606D01*
X195295265Y-126349422D01*
X195311836Y-126374785D01*
X195408207Y-126479472D01*
X195480254Y-126557737D01*
X195676488Y-126710472D01*
X195676491Y-126710474D01*
X195895190Y-126828828D01*
X196130382Y-126909570D01*
X196130384Y-126909570D01*
X196130386Y-126909571D01*
X196252577Y-126929960D01*
X196375657Y-126950499D01*
X196375661Y-126950499D01*
X196375665Y-126950500D01*
X196375669Y-126950500D01*
X196624331Y-126950500D01*
X196624335Y-126950500D01*
X196624339Y-126950499D01*
X196624342Y-126950499D01*
X196686102Y-126940193D01*
X196869614Y-126909571D01*
X197104810Y-126828828D01*
X197323509Y-126710474D01*
X197519744Y-126557738D01*
X197688164Y-126374785D01*
X197824173Y-126166607D01*
X197924063Y-125938881D01*
X197985108Y-125697821D01*
X197993721Y-125593876D01*
X198005643Y-125450004D01*
X198005643Y-125449995D01*
X197985109Y-125202188D01*
X197985109Y-125202186D01*
X197985108Y-125202183D01*
X197985108Y-125202179D01*
X197924063Y-124961119D01*
X197824173Y-124733393D01*
X197688164Y-124525215D01*
X197572778Y-124399872D01*
X197519745Y-124342262D01*
X197323511Y-124189527D01*
X197323508Y-124189525D01*
X197104808Y-124071171D01*
X197104809Y-124071171D01*
X196869617Y-123990429D01*
X196624342Y-123949500D01*
X196624335Y-123949500D01*
X196375665Y-123949500D01*
X196375657Y-123949500D01*
X196130382Y-123990429D01*
X195895190Y-124071171D01*
X195676491Y-124189525D01*
X195676488Y-124189527D01*
X195480254Y-124342262D01*
X195355861Y-124477391D01*
X195311836Y-124525215D01*
X195311834Y-124525216D01*
X195311831Y-124525221D01*
X195175826Y-124733393D01*
X195175825Y-124733396D01*
X195075938Y-124961115D01*
X195075937Y-124961116D01*
X195014890Y-125202186D01*
X195014890Y-125202188D01*
X194994357Y-125449995D01*
X191505643Y-125449995D01*
X191485109Y-125202188D01*
X191485109Y-125202186D01*
X191485108Y-125202183D01*
X191485108Y-125202179D01*
X191424063Y-124961119D01*
X191324173Y-124733393D01*
X191188164Y-124525215D01*
X191072778Y-124399872D01*
X191019745Y-124342262D01*
X190823511Y-124189527D01*
X190823508Y-124189525D01*
X190604808Y-124071171D01*
X190604809Y-124071171D01*
X190369617Y-123990429D01*
X190124342Y-123949500D01*
X190124335Y-123949500D01*
X189875665Y-123949500D01*
X189875657Y-123949500D01*
X189630382Y-123990429D01*
X189395190Y-124071171D01*
X189176491Y-124189525D01*
X189176488Y-124189527D01*
X188980254Y-124342262D01*
X188855861Y-124477391D01*
X188811836Y-124525215D01*
X188811834Y-124525216D01*
X188811831Y-124525221D01*
X188675826Y-124733393D01*
X188675825Y-124733396D01*
X188575938Y-124961115D01*
X188575937Y-124961116D01*
X188514890Y-125202186D01*
X188514890Y-125202188D01*
X188494357Y-125449995D01*
X181306287Y-125449995D01*
X178851015Y-122994723D01*
X178798460Y-122959607D01*
X178744478Y-122923538D01*
X178744475Y-122923536D01*
X178744473Y-122923535D01*
X178626090Y-122874499D01*
X178626088Y-122874498D01*
X178626087Y-122874498D01*
X178626085Y-122874497D01*
X178500418Y-122849500D01*
X178500415Y-122849500D01*
X178355449Y-122849500D01*
X178310194Y-122830755D01*
X178303023Y-122822209D01*
X178253309Y-122751209D01*
X178242707Y-122703386D01*
X178269026Y-122662074D01*
X178305735Y-122650500D01*
X183014044Y-122650500D01*
X183059299Y-122669245D01*
X183527610Y-123137556D01*
X183546355Y-123182811D01*
X183544174Y-123199375D01*
X183524364Y-123273305D01*
X183524364Y-123273307D01*
X183504532Y-123499995D01*
X183504532Y-123500004D01*
X183524364Y-123726687D01*
X183524364Y-123726688D01*
X183583260Y-123946494D01*
X183679433Y-124152736D01*
X183809952Y-124339137D01*
X183809953Y-124339139D01*
X183970861Y-124500047D01*
X184157266Y-124630568D01*
X184363504Y-124726739D01*
X184583308Y-124785635D01*
X184684060Y-124794449D01*
X184809995Y-124805468D01*
X184810000Y-124805468D01*
X184810005Y-124805468D01*
X184923346Y-124795551D01*
X185036692Y-124785635D01*
X185256496Y-124726739D01*
X185462734Y-124630568D01*
X185649139Y-124500047D01*
X185810047Y-124339139D01*
X185940568Y-124152734D01*
X186036739Y-123946496D01*
X186095635Y-123726692D01*
X186115468Y-123500000D01*
X186108049Y-123415206D01*
X186096827Y-123286936D01*
X186095635Y-123273308D01*
X186036739Y-123053504D01*
X185940568Y-122847266D01*
X185939602Y-122845887D01*
X185839823Y-122703386D01*
X185810047Y-122660861D01*
X185649139Y-122499953D01*
X185586800Y-122456303D01*
X185462736Y-122369433D01*
X185256494Y-122273260D01*
X185129586Y-122239256D01*
X185036692Y-122214365D01*
X185036690Y-122214364D01*
X185036687Y-122214364D01*
X184810005Y-122194532D01*
X184809995Y-122194532D01*
X184583307Y-122214364D01*
X184583305Y-122214364D01*
X184509375Y-122234174D01*
X184460811Y-122227780D01*
X184447556Y-122217610D01*
X183724670Y-121494724D01*
X183699989Y-121478233D01*
X183640849Y-121438717D01*
X183618132Y-121423538D01*
X183618129Y-121423536D01*
X183618127Y-121423535D01*
X183499744Y-121374499D01*
X183499742Y-121374498D01*
X183499741Y-121374498D01*
X183499739Y-121374497D01*
X183374072Y-121349500D01*
X183374069Y-121349500D01*
X170597547Y-121349500D01*
X170552292Y-121330755D01*
X170543971Y-121320508D01*
X170423979Y-121136847D01*
X170266784Y-120966087D01*
X170246109Y-120949995D01*
X188494859Y-120949995D01*
X188494859Y-120950004D01*
X188515385Y-121197729D01*
X188515385Y-121197730D01*
X188576412Y-121438717D01*
X188676267Y-121666365D01*
X188776564Y-121819881D01*
X189476212Y-121120233D01*
X189487482Y-121162292D01*
X189559890Y-121287708D01*
X189662292Y-121390110D01*
X189787708Y-121462518D01*
X189829765Y-121473787D01*
X189129943Y-122173609D01*
X189176763Y-122210052D01*
X189176766Y-122210054D01*
X189395393Y-122328368D01*
X189395392Y-122328368D01*
X189630506Y-122409083D01*
X189875698Y-122449999D01*
X189875710Y-122450000D01*
X190124290Y-122450000D01*
X190124301Y-122449999D01*
X190369493Y-122409083D01*
X190604607Y-122328368D01*
X190823233Y-122210054D01*
X190823236Y-122210052D01*
X190870055Y-122173610D01*
X190170234Y-121473787D01*
X190212292Y-121462518D01*
X190337708Y-121390110D01*
X190440110Y-121287708D01*
X190512518Y-121162292D01*
X190523787Y-121120234D01*
X191223434Y-121819881D01*
X191323732Y-121666365D01*
X191423587Y-121438717D01*
X191484614Y-121197730D01*
X191484614Y-121197729D01*
X191505141Y-120950004D01*
X191505141Y-120949995D01*
X194994859Y-120949995D01*
X194994859Y-120950004D01*
X195015385Y-121197729D01*
X195015385Y-121197730D01*
X195076412Y-121438717D01*
X195176267Y-121666365D01*
X195276564Y-121819881D01*
X195976212Y-121120233D01*
X195987482Y-121162292D01*
X196059890Y-121287708D01*
X196162292Y-121390110D01*
X196287708Y-121462518D01*
X196329765Y-121473787D01*
X195629943Y-122173609D01*
X195676763Y-122210052D01*
X195676766Y-122210054D01*
X195895393Y-122328368D01*
X195895392Y-122328368D01*
X196130506Y-122409083D01*
X196375698Y-122449999D01*
X196375710Y-122450000D01*
X196624290Y-122450000D01*
X196624301Y-122449999D01*
X196869493Y-122409083D01*
X197104607Y-122328368D01*
X197323233Y-122210054D01*
X197323236Y-122210052D01*
X197370055Y-122173610D01*
X196670234Y-121473787D01*
X196712292Y-121462518D01*
X196837708Y-121390110D01*
X196940110Y-121287708D01*
X197012518Y-121162292D01*
X197023787Y-121120234D01*
X197723434Y-121819881D01*
X197823732Y-121666365D01*
X197923587Y-121438717D01*
X197984614Y-121197730D01*
X197984614Y-121197729D01*
X198005141Y-120950004D01*
X198005141Y-120949995D01*
X197984614Y-120702270D01*
X197984614Y-120702269D01*
X197923587Y-120461282D01*
X197823732Y-120233634D01*
X197723434Y-120080117D01*
X197023787Y-120779764D01*
X197012518Y-120737708D01*
X196940110Y-120612292D01*
X196837708Y-120509890D01*
X196712292Y-120437482D01*
X196670232Y-120426211D01*
X197370055Y-119726389D01*
X197323228Y-119689941D01*
X197104612Y-119571633D01*
X197104607Y-119571631D01*
X196869493Y-119490916D01*
X196624301Y-119450000D01*
X196375698Y-119450000D01*
X196130506Y-119490916D01*
X195895392Y-119571631D01*
X195676766Y-119689945D01*
X195629943Y-119726388D01*
X195629943Y-119726389D01*
X196329766Y-120426212D01*
X196287708Y-120437482D01*
X196162292Y-120509890D01*
X196059890Y-120612292D01*
X195987482Y-120737708D01*
X195976212Y-120779765D01*
X195276564Y-120080117D01*
X195176269Y-120233629D01*
X195076412Y-120461282D01*
X195015385Y-120702269D01*
X195015385Y-120702270D01*
X194994859Y-120949995D01*
X191505141Y-120949995D01*
X191484614Y-120702270D01*
X191484614Y-120702269D01*
X191423587Y-120461282D01*
X191323732Y-120233634D01*
X191223434Y-120080117D01*
X190523787Y-120779764D01*
X190512518Y-120737708D01*
X190440110Y-120612292D01*
X190337708Y-120509890D01*
X190212292Y-120437482D01*
X190170232Y-120426211D01*
X190870055Y-119726389D01*
X190823228Y-119689941D01*
X190604612Y-119571633D01*
X190604607Y-119571631D01*
X190369493Y-119490916D01*
X190124301Y-119450000D01*
X189875698Y-119450000D01*
X189630506Y-119490916D01*
X189395392Y-119571631D01*
X189176766Y-119689945D01*
X189129943Y-119726388D01*
X189129943Y-119726389D01*
X189829766Y-120426212D01*
X189787708Y-120437482D01*
X189662292Y-120509890D01*
X189559890Y-120612292D01*
X189487482Y-120737708D01*
X189476212Y-120779765D01*
X188776564Y-120080117D01*
X188676269Y-120233629D01*
X188576412Y-120461282D01*
X188515385Y-120702269D01*
X188515385Y-120702270D01*
X188494859Y-120949995D01*
X170246109Y-120949995D01*
X170150013Y-120875201D01*
X170083628Y-120823531D01*
X170083625Y-120823529D01*
X169879501Y-120713063D01*
X169879502Y-120713063D01*
X169659984Y-120637702D01*
X169431056Y-120599500D01*
X169431049Y-120599500D01*
X169198951Y-120599500D01*
X169198943Y-120599500D01*
X168970015Y-120637702D01*
X168750497Y-120713063D01*
X168546374Y-120823529D01*
X168546371Y-120823531D01*
X168363212Y-120966090D01*
X168206021Y-121136847D01*
X168079073Y-121331155D01*
X167985844Y-121543696D01*
X167985843Y-121543697D01*
X167928864Y-121768702D01*
X167928864Y-121768703D01*
X167909700Y-121999994D01*
X167909700Y-122000005D01*
X167928864Y-122231296D01*
X167928864Y-122231297D01*
X167985843Y-122456302D01*
X167985844Y-122456303D01*
X168079073Y-122668844D01*
X168079075Y-122668847D01*
X168079076Y-122668849D01*
X168206021Y-122863153D01*
X168303270Y-122968794D01*
X168365008Y-123035860D01*
X168364273Y-123036536D01*
X168383540Y-123078099D01*
X168366683Y-123124090D01*
X168326438Y-123144379D01*
X168307625Y-123146402D01*
X168172906Y-123196649D01*
X168057814Y-123282808D01*
X168057808Y-123282814D01*
X167971649Y-123397906D01*
X167921401Y-123532625D01*
X167915000Y-123592158D01*
X167915000Y-124290000D01*
X168939722Y-124290000D01*
X168895667Y-124366306D01*
X168865000Y-124480756D01*
X168865000Y-124599244D01*
X168895667Y-124713694D01*
X168939722Y-124790000D01*
X167915000Y-124790000D01*
X167915000Y-125487841D01*
X167921401Y-125547374D01*
X167971649Y-125682093D01*
X168057808Y-125797185D01*
X168057814Y-125797191D01*
X168172906Y-125883350D01*
X168172905Y-125883350D01*
X168307625Y-125933598D01*
X168367158Y-125939999D01*
X168367173Y-125940000D01*
X169065000Y-125940000D01*
X169065000Y-124915277D01*
X169141306Y-124959333D01*
X169255756Y-124990000D01*
X169374244Y-124990000D01*
X169488694Y-124959333D01*
X169565000Y-124915277D01*
X169565000Y-125940000D01*
X170262827Y-125940000D01*
X170262841Y-125939999D01*
X170322374Y-125933598D01*
X170457093Y-125883350D01*
X170572185Y-125797191D01*
X170572191Y-125797185D01*
X170658350Y-125682093D01*
X170708598Y-125547374D01*
X170714999Y-125487841D01*
X170715000Y-125487827D01*
X170715000Y-124790000D01*
X169690278Y-124790000D01*
X169734333Y-124713694D01*
X169765000Y-124599244D01*
X169765000Y-124480756D01*
X169734333Y-124366306D01*
X169690278Y-124290000D01*
X170715000Y-124290000D01*
X170715000Y-123592172D01*
X170714999Y-123592158D01*
X170708598Y-123532625D01*
X170658350Y-123397906D01*
X170572191Y-123282814D01*
X170572185Y-123282808D01*
X170457093Y-123196649D01*
X170457094Y-123196649D01*
X170322374Y-123146401D01*
X170303562Y-123144379D01*
X170260570Y-123120903D01*
X170246771Y-123073904D01*
X170265651Y-123036466D01*
X170264992Y-123035860D01*
X170326727Y-122968797D01*
X170423979Y-122863153D01*
X170543969Y-122679494D01*
X170584413Y-122651862D01*
X170597547Y-122650500D01*
X176074265Y-122650500D01*
X176119520Y-122669245D01*
X176138265Y-122714500D01*
X176126691Y-122751209D01*
X176059433Y-122847263D01*
X175963260Y-123053505D01*
X175904364Y-123273311D01*
X175904364Y-123273312D01*
X175884532Y-123499995D01*
X175884532Y-123500004D01*
X175904364Y-123726687D01*
X175904364Y-123726688D01*
X175963260Y-123946494D01*
X176059433Y-124152736D01*
X176189952Y-124339137D01*
X176189953Y-124339139D01*
X176350861Y-124500047D01*
X176537266Y-124630568D01*
X176743504Y-124726739D01*
X176963308Y-124785635D01*
X177064060Y-124794449D01*
X177189995Y-124805468D01*
X177190000Y-124805468D01*
X177190005Y-124805468D01*
X177303346Y-124795551D01*
X177416692Y-124785635D01*
X177636496Y-124726739D01*
X177842734Y-124630568D01*
X178029139Y-124500047D01*
X178190047Y-124339139D01*
X178204841Y-124318009D01*
X178214454Y-124304282D01*
X178255766Y-124277962D01*
X178303588Y-124288564D01*
X178312135Y-124295735D01*
X183366645Y-129350245D01*
X183385390Y-129395500D01*
X183366645Y-129440755D01*
X183321390Y-129459500D01*
X170650928Y-129459500D01*
X170525260Y-129484497D01*
X170525258Y-129484498D01*
X170406872Y-129533534D01*
X170300332Y-129604722D01*
X170300330Y-129604724D01*
X170260715Y-129644337D01*
X170215460Y-129663081D01*
X170194683Y-129659614D01*
X170159983Y-129647702D01*
X169931056Y-129609500D01*
X169931049Y-129609500D01*
X169698951Y-129609500D01*
X169698943Y-129609500D01*
X169470015Y-129647702D01*
X169250497Y-129723063D01*
X169046374Y-129833529D01*
X169046371Y-129833531D01*
X168863212Y-129976090D01*
X168706021Y-130146847D01*
X168579073Y-130341155D01*
X168485844Y-130553696D01*
X168485843Y-130553697D01*
X168428864Y-130778702D01*
X168428864Y-130778703D01*
X168409700Y-131009994D01*
X168409700Y-131010005D01*
X168428864Y-131241296D01*
X168428864Y-131241297D01*
X168485843Y-131466302D01*
X168485844Y-131466303D01*
X168579073Y-131678844D01*
X168579075Y-131678847D01*
X168579076Y-131678849D01*
X168706021Y-131873153D01*
X168759908Y-131931690D01*
X168865008Y-132045860D01*
X168864273Y-132046536D01*
X168883540Y-132088099D01*
X168866683Y-132134090D01*
X168826438Y-132154379D01*
X168807625Y-132156402D01*
X168672906Y-132206649D01*
X168557814Y-132292808D01*
X168557808Y-132292814D01*
X168471649Y-132407906D01*
X168421401Y-132542625D01*
X168415000Y-132602158D01*
X168415000Y-133300000D01*
X169439722Y-133300000D01*
X169395667Y-133376306D01*
X169365000Y-133490756D01*
X169365000Y-133609244D01*
X169395667Y-133723694D01*
X169439722Y-133800000D01*
X168415000Y-133800000D01*
X168415000Y-134085500D01*
X168396255Y-134130755D01*
X168351000Y-134149500D01*
X163750182Y-134149500D01*
X163704927Y-134130755D01*
X163686182Y-134085500D01*
X163704927Y-134040245D01*
X163711616Y-134034425D01*
X163713860Y-134032728D01*
X163713870Y-134032723D01*
X163873606Y-133887104D01*
X164003865Y-133714614D01*
X164100211Y-133521125D01*
X164159363Y-133313227D01*
X164179307Y-133098000D01*
X164159363Y-132882773D01*
X164100211Y-132674875D01*
X164003865Y-132481386D01*
X163873606Y-132308896D01*
X163761447Y-132206649D01*
X163713873Y-132163279D01*
X163530095Y-132049488D01*
X163530096Y-132049488D01*
X163328540Y-131971406D01*
X163116077Y-131931690D01*
X163116075Y-131931690D01*
X162899925Y-131931690D01*
X162899922Y-131931690D01*
X162687459Y-131971406D01*
X162485904Y-132049488D01*
X162302126Y-132163279D01*
X162142393Y-132308896D01*
X162012133Y-132481388D01*
X161915789Y-132674875D01*
X161856637Y-132882772D01*
X161856636Y-132882775D01*
X161836693Y-133097999D01*
X161836693Y-133098000D01*
X161856636Y-133313224D01*
X161856637Y-133313227D01*
X161915789Y-133521125D01*
X161959667Y-133609244D01*
X162012133Y-133714611D01*
X162012134Y-133714612D01*
X162012135Y-133714614D01*
X162142394Y-133887104D01*
X162302130Y-134032723D01*
X162302133Y-134032725D01*
X162304384Y-134034425D01*
X162329204Y-134076655D01*
X162316893Y-134124066D01*
X162274663Y-134148886D01*
X162265818Y-134149500D01*
X146743956Y-134149500D01*
X146698701Y-134130755D01*
X139943201Y-127375255D01*
X139924456Y-127330000D01*
X139943201Y-127284745D01*
X139988456Y-127266000D01*
X140721827Y-127266000D01*
X140721841Y-127265999D01*
X140781374Y-127259598D01*
X140916093Y-127209350D01*
X141031185Y-127123191D01*
X141031191Y-127123185D01*
X141117350Y-127008093D01*
X141167598Y-126873374D01*
X141173999Y-126813841D01*
X141174000Y-126813827D01*
X141174000Y-126236000D01*
X140195542Y-126236000D01*
X140206077Y-126225465D01*
X140257422Y-126136534D01*
X140284000Y-126037344D01*
X140284000Y-125934656D01*
X140257422Y-125835466D01*
X140206077Y-125746535D01*
X140195542Y-125736000D01*
X141174000Y-125736000D01*
X141174000Y-125158172D01*
X141173999Y-125158158D01*
X141167598Y-125098625D01*
X141117350Y-124963906D01*
X141031191Y-124848814D01*
X141031185Y-124848808D01*
X140916093Y-124762649D01*
X140916094Y-124762649D01*
X140781374Y-124712401D01*
X140721841Y-124706000D01*
X140144000Y-124706000D01*
X140144000Y-125684458D01*
X140133465Y-125673923D01*
X140044534Y-125622578D01*
X139945344Y-125596000D01*
X139842656Y-125596000D01*
X139743466Y-125622578D01*
X139654535Y-125673923D01*
X139644000Y-125684458D01*
X139644000Y-124706000D01*
X139066158Y-124706000D01*
X139006625Y-124712401D01*
X138871906Y-124762649D01*
X138756814Y-124848808D01*
X138756808Y-124848814D01*
X138670649Y-124963906D01*
X138620401Y-125098625D01*
X138614000Y-125158158D01*
X138614000Y-125891544D01*
X138595255Y-125936799D01*
X138550000Y-125955544D01*
X138504745Y-125936799D01*
X137514271Y-124946325D01*
X137495526Y-124901070D01*
X137495526Y-121867981D01*
X137514271Y-121822726D01*
X137559526Y-121803981D01*
X137604779Y-121822725D01*
X138147820Y-122365766D01*
X138627941Y-122845887D01*
X138646686Y-122891142D01*
X138644505Y-122907706D01*
X138628136Y-122968797D01*
X138628136Y-122968798D01*
X138608609Y-123191995D01*
X138608609Y-123192004D01*
X138628136Y-123415201D01*
X138686126Y-123631626D01*
X138686128Y-123631630D01*
X138780819Y-123834696D01*
X138909333Y-124018233D01*
X139067767Y-124176667D01*
X139251304Y-124305181D01*
X139454370Y-124399872D01*
X139454372Y-124399872D01*
X139454373Y-124399873D01*
X139487853Y-124408843D01*
X139670794Y-124457863D01*
X139769996Y-124466542D01*
X139893995Y-124477391D01*
X139894000Y-124477391D01*
X139894005Y-124477391D01*
X140005603Y-124467627D01*
X140117206Y-124457863D01*
X140333630Y-124399872D01*
X140536696Y-124305181D01*
X140720233Y-124176667D01*
X140878667Y-124018233D01*
X141007181Y-123834696D01*
X141101872Y-123631630D01*
X141159863Y-123415206D01*
X141172277Y-123273311D01*
X141179391Y-123192004D01*
X141179391Y-123191995D01*
X141165790Y-123036536D01*
X141159863Y-122968794D01*
X141101872Y-122752370D01*
X141007181Y-122549305D01*
X140878667Y-122365767D01*
X140720233Y-122207333D01*
X140536696Y-122078819D01*
X140333630Y-121984128D01*
X140332479Y-121983819D01*
X140332204Y-121983608D01*
X140331007Y-121983173D01*
X140331144Y-121982795D01*
X140293617Y-121954002D01*
X140287222Y-121905438D01*
X140317040Y-121866575D01*
X140332479Y-121860180D01*
X140333630Y-121859872D01*
X140536696Y-121765181D01*
X140720233Y-121636667D01*
X140878667Y-121478233D01*
X141007181Y-121294696D01*
X141101872Y-121091630D01*
X141159863Y-120875206D01*
X141179391Y-120652000D01*
X141159863Y-120428794D01*
X141101872Y-120212370D01*
X141007181Y-120009305D01*
X140878667Y-119825767D01*
X140720233Y-119667333D01*
X140568981Y-119561425D01*
X140542663Y-119520113D01*
X140553265Y-119472291D01*
X140568982Y-119456574D01*
X140578371Y-119450000D01*
X140720233Y-119350667D01*
X140878667Y-119192233D01*
X141007181Y-119008696D01*
X141101872Y-118805630D01*
X141159863Y-118589206D01*
X141179391Y-118366000D01*
X141178828Y-118359570D01*
X141163969Y-118189729D01*
X141178698Y-118143013D01*
X141182459Y-118138907D01*
X146082951Y-113238416D01*
X146165084Y-113115495D01*
X146221658Y-112978913D01*
X146239600Y-112888717D01*
X146250500Y-112833920D01*
X146250500Y-109984000D01*
X162288392Y-109984000D01*
X162307099Y-110173937D01*
X162307101Y-110173945D01*
X162362500Y-110356579D01*
X162362501Y-110356580D01*
X162362502Y-110356583D01*
X162362503Y-110356584D01*
X162452475Y-110524908D01*
X162573555Y-110672445D01*
X162721092Y-110793525D01*
X162889416Y-110883497D01*
X162889418Y-110883497D01*
X162889419Y-110883498D01*
X162889420Y-110883499D01*
X162993678Y-110915124D01*
X163072059Y-110938900D01*
X163262000Y-110957608D01*
X163451941Y-110938900D01*
X163580180Y-110900000D01*
X163634579Y-110883499D01*
X163634579Y-110883498D01*
X163634584Y-110883497D01*
X163802908Y-110793525D01*
X163950445Y-110672445D01*
X164071525Y-110524908D01*
X164161497Y-110356584D01*
X164168718Y-110332781D01*
X164185707Y-110276772D01*
X164216900Y-110173941D01*
X164235608Y-109984000D01*
X164216900Y-109794059D01*
X164183647Y-109684437D01*
X164161499Y-109611420D01*
X164133140Y-109558365D01*
X164071525Y-109443092D01*
X163950445Y-109295555D01*
X163802908Y-109174475D01*
X163634584Y-109084503D01*
X163634583Y-109084502D01*
X163634580Y-109084501D01*
X163634579Y-109084500D01*
X163451945Y-109029101D01*
X163451937Y-109029099D01*
X163262000Y-109010392D01*
X163072062Y-109029099D01*
X163072054Y-109029101D01*
X162889420Y-109084500D01*
X162889419Y-109084501D01*
X162721092Y-109174475D01*
X162721091Y-109174475D01*
X162573555Y-109295554D01*
X162573554Y-109295555D01*
X162452475Y-109443091D01*
X162452475Y-109443092D01*
X162362500Y-109611420D01*
X162307101Y-109794054D01*
X162307099Y-109794062D01*
X162288392Y-109984000D01*
X146250500Y-109984000D01*
X146250500Y-99546079D01*
X146225434Y-99420068D01*
X146221659Y-99401088D01*
X146166279Y-99267392D01*
X146165434Y-99265029D01*
X146082951Y-99141584D01*
X145673122Y-98731755D01*
X145654377Y-98686500D01*
X145673122Y-98641245D01*
X145718377Y-98622500D01*
X154015817Y-98622500D01*
X154061072Y-98641245D01*
X154079817Y-98686500D01*
X154073821Y-98713547D01*
X154049105Y-98766550D01*
X153991929Y-98979936D01*
X153972677Y-99199994D01*
X153972677Y-99200005D01*
X153991929Y-99420063D01*
X154049104Y-99633446D01*
X154142467Y-99833664D01*
X154229092Y-99957377D01*
X154269174Y-100014620D01*
X154425380Y-100170826D01*
X154606338Y-100297534D01*
X154730639Y-100355496D01*
X154763732Y-100391610D01*
X154761596Y-100440547D01*
X154725482Y-100473640D01*
X154703592Y-100477500D01*
X154430130Y-100477500D01*
X154430112Y-100477501D01*
X154370521Y-100483908D01*
X154370518Y-100483908D01*
X154370517Y-100483909D01*
X154259204Y-100525426D01*
X154235664Y-100534206D01*
X154120457Y-100620451D01*
X154120451Y-100620457D01*
X154034206Y-100735664D01*
X153983908Y-100870518D01*
X153977500Y-100930113D01*
X153977500Y-102549869D01*
X153977501Y-102549887D01*
X153983908Y-102609478D01*
X153983909Y-102609483D01*
X154034204Y-102744331D01*
X154034205Y-102744332D01*
X154034206Y-102744335D01*
X154103976Y-102837534D01*
X154120454Y-102859546D01*
X154158042Y-102887684D01*
X154183036Y-102929809D01*
X154170922Y-102977271D01*
X154156400Y-102991340D01*
X154148624Y-102996785D01*
X153988054Y-103157355D01*
X153857805Y-103343370D01*
X153761836Y-103549176D01*
X153703064Y-103768520D01*
X153683274Y-103994727D01*
X153683274Y-103994736D01*
X153703064Y-104220943D01*
X153761836Y-104440287D01*
X153761838Y-104440291D01*
X153857806Y-104646095D01*
X153988054Y-104832108D01*
X154148624Y-104992678D01*
X154334637Y-105122926D01*
X154540441Y-105218894D01*
X154540443Y-105218894D01*
X154540444Y-105218895D01*
X154574376Y-105227986D01*
X154759784Y-105277667D01*
X154860324Y-105286463D01*
X154985995Y-105297458D01*
X154986000Y-105297458D01*
X154986005Y-105297458D01*
X155099108Y-105287562D01*
X155212216Y-105277667D01*
X155431559Y-105218894D01*
X155637363Y-105122926D01*
X155823376Y-104992678D01*
X155983946Y-104832108D01*
X156114194Y-104646095D01*
X156210162Y-104440291D01*
X156268935Y-104220948D01*
X156288726Y-103994732D01*
X156268935Y-103768516D01*
X156210162Y-103549173D01*
X156114194Y-103343369D01*
X155983946Y-103157356D01*
X155938344Y-103111754D01*
X155919599Y-103066499D01*
X155938344Y-103021244D01*
X155983599Y-103002499D01*
X156049870Y-103002499D01*
X156049872Y-103002499D01*
X156049874Y-103002498D01*
X156049887Y-103002498D01*
X156081624Y-102999085D01*
X156109483Y-102996091D01*
X156244331Y-102945796D01*
X156359546Y-102859546D01*
X156445796Y-102744331D01*
X156496091Y-102609483D01*
X156501990Y-102554620D01*
X156502499Y-102549886D01*
X156502499Y-102549882D01*
X156502500Y-102549873D01*
X156502499Y-100930128D01*
X156502498Y-100930125D01*
X156502498Y-100930112D01*
X156496091Y-100870521D01*
X156496091Y-100870517D01*
X156445796Y-100735669D01*
X156445793Y-100735665D01*
X156445793Y-100735664D01*
X156359548Y-100620457D01*
X156359546Y-100620454D01*
X156359542Y-100620451D01*
X156244335Y-100534206D01*
X156244336Y-100534206D01*
X156109481Y-100483908D01*
X156049886Y-100477500D01*
X155776408Y-100477500D01*
X155731153Y-100458755D01*
X155712408Y-100413500D01*
X155731153Y-100368245D01*
X155749359Y-100355496D01*
X155873662Y-100297534D01*
X156054620Y-100170826D01*
X156210826Y-100014620D01*
X156337534Y-99833662D01*
X156430894Y-99633450D01*
X156488070Y-99420068D01*
X156507323Y-99200000D01*
X156507323Y-99199994D01*
X156488070Y-98979936D01*
X156488070Y-98979932D01*
X156430894Y-98766550D01*
X156414669Y-98731755D01*
X156406179Y-98713547D01*
X156404043Y-98664610D01*
X156437136Y-98628496D01*
X156464183Y-98622500D01*
X177701921Y-98622500D01*
X177846908Y-98593659D01*
X177846908Y-98593658D01*
X177846913Y-98593658D01*
X177983495Y-98537084D01*
X177983500Y-98537080D01*
X177983503Y-98537079D01*
X178032714Y-98504196D01*
X178032713Y-98504196D01*
X178032729Y-98504186D01*
X178106416Y-98454952D01*
X189780122Y-86781243D01*
X189825377Y-86762499D01*
X190163044Y-86762499D01*
X190208299Y-86781244D01*
X190227044Y-86826499D01*
X190208299Y-86871754D01*
X167559721Y-109520332D01*
X167498863Y-109611416D01*
X167493680Y-109619172D01*
X167488533Y-109626875D01*
X167439498Y-109745258D01*
X167439497Y-109745260D01*
X167414500Y-109870928D01*
X167414500Y-114071838D01*
X167432741Y-114163534D01*
X167432741Y-114163536D01*
X167439497Y-114197507D01*
X167439500Y-114197517D01*
X167470895Y-114273308D01*
X167488535Y-114315894D01*
X167488536Y-114315896D01*
X167488538Y-114315899D01*
X167559724Y-114422437D01*
X167957111Y-114819824D01*
X167975856Y-114865079D01*
X167971821Y-114887444D01*
X167921402Y-115022623D01*
X167915000Y-115082158D01*
X167915000Y-115780000D01*
X168939722Y-115780000D01*
X168895667Y-115856306D01*
X168865000Y-115970756D01*
X168865000Y-116089244D01*
X168895667Y-116203694D01*
X168939722Y-116280000D01*
X167915000Y-116280000D01*
X167915000Y-116977841D01*
X167921401Y-117037374D01*
X167971649Y-117172093D01*
X168057808Y-117287185D01*
X168057814Y-117287191D01*
X168172906Y-117373350D01*
X168172905Y-117373350D01*
X168307625Y-117423598D01*
X168367158Y-117429999D01*
X168367173Y-117430000D01*
X169065000Y-117430000D01*
X169065000Y-116405277D01*
X169141306Y-116449333D01*
X169255756Y-116480000D01*
X169374244Y-116480000D01*
X169488694Y-116449333D01*
X169565000Y-116405277D01*
X169565000Y-117430000D01*
X170262827Y-117430000D01*
X170262841Y-117429999D01*
X170322374Y-117423598D01*
X170457093Y-117373350D01*
X170572185Y-117287191D01*
X170572191Y-117287185D01*
X170658350Y-117172093D01*
X170708598Y-117037374D01*
X170714999Y-116977841D01*
X170715000Y-116977827D01*
X170715000Y-116899995D01*
X188494357Y-116899995D01*
X188494357Y-116900004D01*
X188514890Y-117147811D01*
X188514890Y-117147813D01*
X188575937Y-117388883D01*
X188575938Y-117388884D01*
X188675825Y-117616603D01*
X188675826Y-117616606D01*
X188675827Y-117616607D01*
X188811836Y-117824785D01*
X188908207Y-117929472D01*
X188980254Y-118007737D01*
X189176488Y-118160472D01*
X189176491Y-118160474D01*
X189395190Y-118278828D01*
X189630382Y-118359570D01*
X189630384Y-118359570D01*
X189630386Y-118359571D01*
X189752577Y-118379960D01*
X189875657Y-118400499D01*
X189875661Y-118400499D01*
X189875665Y-118400500D01*
X189875669Y-118400500D01*
X190124331Y-118400500D01*
X190124335Y-118400500D01*
X190124339Y-118400499D01*
X190124342Y-118400499D01*
X190186102Y-118390193D01*
X190369614Y-118359571D01*
X190604810Y-118278828D01*
X190823509Y-118160474D01*
X191019744Y-118007738D01*
X191188164Y-117824785D01*
X191324173Y-117616607D01*
X191424063Y-117388881D01*
X191485108Y-117147821D01*
X191489184Y-117098631D01*
X191505643Y-116900004D01*
X191505643Y-116899995D01*
X194994357Y-116899995D01*
X194994357Y-116900004D01*
X195014890Y-117147811D01*
X195014890Y-117147813D01*
X195075937Y-117388883D01*
X195075938Y-117388884D01*
X195175825Y-117616603D01*
X195175826Y-117616606D01*
X195175827Y-117616607D01*
X195311836Y-117824785D01*
X195408207Y-117929472D01*
X195480254Y-118007737D01*
X195676488Y-118160472D01*
X195676491Y-118160474D01*
X195895190Y-118278828D01*
X196130382Y-118359570D01*
X196130384Y-118359570D01*
X196130386Y-118359571D01*
X196252577Y-118379960D01*
X196375657Y-118400499D01*
X196375661Y-118400499D01*
X196375665Y-118400500D01*
X196375669Y-118400500D01*
X196624331Y-118400500D01*
X196624335Y-118400500D01*
X196624339Y-118400499D01*
X196624342Y-118400499D01*
X196686102Y-118390193D01*
X196869614Y-118359571D01*
X197104810Y-118278828D01*
X197323509Y-118160474D01*
X197519744Y-118007738D01*
X197688164Y-117824785D01*
X197824173Y-117616607D01*
X197924063Y-117388881D01*
X197985108Y-117147821D01*
X197989184Y-117098631D01*
X198005643Y-116900004D01*
X198005643Y-116899995D01*
X197985109Y-116652188D01*
X197985109Y-116652186D01*
X197985108Y-116652183D01*
X197985108Y-116652179D01*
X197924063Y-116411119D01*
X197824173Y-116183393D01*
X197688164Y-115975215D01*
X197578701Y-115856306D01*
X197519745Y-115792262D01*
X197323511Y-115639527D01*
X197323508Y-115639525D01*
X197104808Y-115521171D01*
X197104809Y-115521171D01*
X196869617Y-115440429D01*
X196624342Y-115399500D01*
X196624335Y-115399500D01*
X196375665Y-115399500D01*
X196375657Y-115399500D01*
X196130382Y-115440429D01*
X195895190Y-115521171D01*
X195676491Y-115639525D01*
X195676488Y-115639527D01*
X195480254Y-115792262D01*
X195346764Y-115937272D01*
X195311836Y-115975215D01*
X195311834Y-115975216D01*
X195311831Y-115975221D01*
X195175826Y-116183393D01*
X195175825Y-116183396D01*
X195075938Y-116411115D01*
X195075937Y-116411116D01*
X195014890Y-116652186D01*
X195014890Y-116652188D01*
X194994357Y-116899995D01*
X191505643Y-116899995D01*
X191485109Y-116652188D01*
X191485109Y-116652186D01*
X191485108Y-116652183D01*
X191485108Y-116652179D01*
X191424063Y-116411119D01*
X191324173Y-116183393D01*
X191188164Y-115975215D01*
X191078701Y-115856306D01*
X191019745Y-115792262D01*
X190823511Y-115639527D01*
X190823508Y-115639525D01*
X190604808Y-115521171D01*
X190604809Y-115521171D01*
X190369617Y-115440429D01*
X190124342Y-115399500D01*
X190124335Y-115399500D01*
X189875665Y-115399500D01*
X189875657Y-115399500D01*
X189630382Y-115440429D01*
X189395190Y-115521171D01*
X189176491Y-115639525D01*
X189176488Y-115639527D01*
X188980254Y-115792262D01*
X188846764Y-115937272D01*
X188811836Y-115975215D01*
X188811834Y-115975216D01*
X188811831Y-115975221D01*
X188675826Y-116183393D01*
X188675825Y-116183396D01*
X188575938Y-116411115D01*
X188575937Y-116411116D01*
X188514890Y-116652186D01*
X188514890Y-116652188D01*
X188494357Y-116899995D01*
X170715000Y-116899995D01*
X170715000Y-116280000D01*
X169690278Y-116280000D01*
X169734333Y-116203694D01*
X169765000Y-116089244D01*
X169765000Y-115970756D01*
X169734333Y-115856306D01*
X169690278Y-115780000D01*
X170715000Y-115780000D01*
X170715000Y-115454500D01*
X170733745Y-115409245D01*
X170779000Y-115390500D01*
X175714804Y-115390500D01*
X175760059Y-115409245D01*
X175850861Y-115500047D01*
X176037266Y-115630568D01*
X176243504Y-115726739D01*
X176463308Y-115785635D01*
X176564060Y-115794449D01*
X176689995Y-115805468D01*
X176690000Y-115805468D01*
X176690005Y-115805468D01*
X176803346Y-115795551D01*
X176916692Y-115785635D01*
X177136496Y-115726739D01*
X177342734Y-115630568D01*
X177529139Y-115500047D01*
X177690047Y-115339139D01*
X177820568Y-115152734D01*
X177916739Y-114946496D01*
X177975635Y-114726692D01*
X177995468Y-114500000D01*
X177975635Y-114273308D01*
X177916739Y-114053504D01*
X177820568Y-113847266D01*
X177690047Y-113660861D01*
X177529139Y-113499953D01*
X177342734Y-113369432D01*
X177327877Y-113362504D01*
X177294784Y-113326390D01*
X177296920Y-113277453D01*
X177333034Y-113244360D01*
X177354924Y-113240500D01*
X182104044Y-113240500D01*
X182149299Y-113259245D01*
X183027610Y-114137556D01*
X183046355Y-114182811D01*
X183044174Y-114199375D01*
X183024364Y-114273305D01*
X183024364Y-114273307D01*
X183004532Y-114499995D01*
X183004532Y-114500004D01*
X183024364Y-114726687D01*
X183024364Y-114726688D01*
X183049319Y-114819824D01*
X183083261Y-114946496D01*
X183179432Y-115152734D01*
X183309953Y-115339139D01*
X183470861Y-115500047D01*
X183657266Y-115630568D01*
X183863504Y-115726739D01*
X184083308Y-115785635D01*
X184184060Y-115794449D01*
X184309995Y-115805468D01*
X184310000Y-115805468D01*
X184310005Y-115805468D01*
X184423346Y-115795551D01*
X184536692Y-115785635D01*
X184756496Y-115726739D01*
X184962734Y-115630568D01*
X185149139Y-115500047D01*
X185310047Y-115339139D01*
X185440568Y-115152734D01*
X185536739Y-114946496D01*
X185595635Y-114726692D01*
X185615468Y-114500000D01*
X185595635Y-114273308D01*
X185536739Y-114053504D01*
X185440568Y-113847266D01*
X185310047Y-113660861D01*
X185149139Y-113499953D01*
X185134916Y-113489994D01*
X184962736Y-113369433D01*
X184756494Y-113273260D01*
X184626448Y-113238415D01*
X184536692Y-113214365D01*
X184536690Y-113214364D01*
X184536687Y-113214364D01*
X184310005Y-113194532D01*
X184309995Y-113194532D01*
X184083307Y-113214364D01*
X184083305Y-113214364D01*
X184009375Y-113234174D01*
X183960811Y-113227780D01*
X183947556Y-113217610D01*
X183129941Y-112399995D01*
X188494859Y-112399995D01*
X188494859Y-112400004D01*
X188515385Y-112647729D01*
X188515385Y-112647730D01*
X188576412Y-112888717D01*
X188676267Y-113116365D01*
X188776564Y-113269881D01*
X189476212Y-112570233D01*
X189487482Y-112612292D01*
X189559890Y-112737708D01*
X189662292Y-112840110D01*
X189787708Y-112912518D01*
X189829765Y-112923787D01*
X189129943Y-113623609D01*
X189176763Y-113660052D01*
X189176766Y-113660054D01*
X189395393Y-113778368D01*
X189395392Y-113778368D01*
X189630506Y-113859083D01*
X189875698Y-113899999D01*
X189875710Y-113900000D01*
X190124290Y-113900000D01*
X190124301Y-113899999D01*
X190369493Y-113859083D01*
X190604607Y-113778368D01*
X190823233Y-113660054D01*
X190823236Y-113660052D01*
X190870055Y-113623610D01*
X190170234Y-112923787D01*
X190212292Y-112912518D01*
X190337708Y-112840110D01*
X190440110Y-112737708D01*
X190512518Y-112612292D01*
X190523787Y-112570234D01*
X191223434Y-113269881D01*
X191323732Y-113116365D01*
X191423587Y-112888717D01*
X191484614Y-112647730D01*
X191484614Y-112647729D01*
X191505141Y-112400004D01*
X191505141Y-112399995D01*
X194994859Y-112399995D01*
X194994859Y-112400004D01*
X195015385Y-112647729D01*
X195015385Y-112647730D01*
X195076412Y-112888717D01*
X195176267Y-113116365D01*
X195276564Y-113269881D01*
X195976212Y-112570233D01*
X195987482Y-112612292D01*
X196059890Y-112737708D01*
X196162292Y-112840110D01*
X196287708Y-112912518D01*
X196329765Y-112923787D01*
X195629943Y-113623609D01*
X195676763Y-113660052D01*
X195676766Y-113660054D01*
X195895393Y-113778368D01*
X195895392Y-113778368D01*
X196130506Y-113859083D01*
X196375698Y-113899999D01*
X196375710Y-113900000D01*
X196624290Y-113900000D01*
X196624301Y-113899999D01*
X196869493Y-113859083D01*
X197104607Y-113778368D01*
X197323233Y-113660054D01*
X197323236Y-113660052D01*
X197370055Y-113623610D01*
X196670234Y-112923787D01*
X196712292Y-112912518D01*
X196837708Y-112840110D01*
X196940110Y-112737708D01*
X197012518Y-112612292D01*
X197023787Y-112570234D01*
X197723434Y-113269881D01*
X197823732Y-113116365D01*
X197923587Y-112888717D01*
X197984614Y-112647730D01*
X197984614Y-112647729D01*
X198005141Y-112400004D01*
X198005141Y-112399995D01*
X197984614Y-112152270D01*
X197984614Y-112152269D01*
X197923587Y-111911282D01*
X197823732Y-111683634D01*
X197723434Y-111530117D01*
X197023787Y-112229764D01*
X197012518Y-112187708D01*
X196940110Y-112062292D01*
X196837708Y-111959890D01*
X196712292Y-111887482D01*
X196670232Y-111876211D01*
X197370055Y-111176389D01*
X197323228Y-111139941D01*
X197104612Y-111021633D01*
X197104607Y-111021631D01*
X196869493Y-110940916D01*
X196624301Y-110900000D01*
X196375698Y-110900000D01*
X196130506Y-110940916D01*
X195895392Y-111021631D01*
X195676766Y-111139945D01*
X195629943Y-111176388D01*
X195629943Y-111176389D01*
X196329766Y-111876212D01*
X196287708Y-111887482D01*
X196162292Y-111959890D01*
X196059890Y-112062292D01*
X195987482Y-112187708D01*
X195976212Y-112229765D01*
X195276564Y-111530117D01*
X195176269Y-111683629D01*
X195076412Y-111911282D01*
X195015385Y-112152269D01*
X195015385Y-112152270D01*
X194994859Y-112399995D01*
X191505141Y-112399995D01*
X191484614Y-112152270D01*
X191484614Y-112152269D01*
X191423587Y-111911282D01*
X191323732Y-111683634D01*
X191223434Y-111530117D01*
X190523787Y-112229764D01*
X190512518Y-112187708D01*
X190440110Y-112062292D01*
X190337708Y-111959890D01*
X190212292Y-111887482D01*
X190170232Y-111876211D01*
X190870055Y-111176389D01*
X190823228Y-111139941D01*
X190604612Y-111021633D01*
X190604607Y-111021631D01*
X190369493Y-110940916D01*
X190124301Y-110900000D01*
X189875698Y-110900000D01*
X189630506Y-110940916D01*
X189395392Y-111021631D01*
X189176766Y-111139945D01*
X189129943Y-111176388D01*
X189129943Y-111176389D01*
X189829766Y-111876212D01*
X189787708Y-111887482D01*
X189662292Y-111959890D01*
X189559890Y-112062292D01*
X189487482Y-112187708D01*
X189476212Y-112229765D01*
X188776564Y-111530117D01*
X188676269Y-111683629D01*
X188576412Y-111911282D01*
X188515385Y-112152269D01*
X188515385Y-112152270D01*
X188494859Y-112399995D01*
X183129941Y-112399995D01*
X182814670Y-112084724D01*
X182814667Y-112084722D01*
X182757381Y-112046445D01*
X182708132Y-112013538D01*
X182708129Y-112013536D01*
X182708127Y-112013535D01*
X182589744Y-111964499D01*
X182589742Y-111964498D01*
X182589741Y-111964498D01*
X182589739Y-111964497D01*
X182464072Y-111939500D01*
X182464069Y-111939500D01*
X170150931Y-111939500D01*
X170150928Y-111939500D01*
X170025260Y-111964497D01*
X170025258Y-111964498D01*
X169906872Y-112013534D01*
X169800332Y-112084722D01*
X169800330Y-112084724D01*
X169760715Y-112124337D01*
X169715460Y-112143081D01*
X169694683Y-112139614D01*
X169659983Y-112127702D01*
X169431056Y-112089500D01*
X169431049Y-112089500D01*
X169198951Y-112089500D01*
X169198943Y-112089500D01*
X168970015Y-112127702D01*
X168800281Y-112185972D01*
X168751391Y-112182937D01*
X168718968Y-112146221D01*
X168715500Y-112125440D01*
X168715500Y-110230956D01*
X168734245Y-110185701D01*
X180820820Y-98099126D01*
X193005276Y-85914670D01*
X193076465Y-85808127D01*
X193125501Y-85689744D01*
X193132934Y-85652376D01*
X193147780Y-85577744D01*
X193150500Y-85564070D01*
X193150500Y-77583108D01*
X193125502Y-77457440D01*
X193125501Y-77457438D01*
X193125501Y-77457436D01*
X193080590Y-77349011D01*
X193076466Y-77339054D01*
X193005277Y-77232511D01*
X182875489Y-67102723D01*
X182822934Y-67067607D01*
X182768952Y-67031538D01*
X182768949Y-67031536D01*
X182768947Y-67031535D01*
X182650564Y-66982499D01*
X182650562Y-66982498D01*
X182650561Y-66982498D01*
X182650559Y-66982497D01*
X182524892Y-66957500D01*
X182524889Y-66957500D01*
X156359761Y-66957500D01*
X156314506Y-66938755D01*
X156295761Y-66893500D01*
X156307335Y-66856791D01*
X156312209Y-66849829D01*
X156337534Y-66813662D01*
X156430894Y-66613450D01*
X156488070Y-66400068D01*
X156507323Y-66180000D01*
X156507323Y-66179994D01*
X156488070Y-65959936D01*
X156488070Y-65959932D01*
X156430894Y-65746550D01*
X156337534Y-65546339D01*
X156210826Y-65365380D01*
X156054620Y-65209174D01*
X155873664Y-65082467D01*
X155673446Y-64989104D01*
X155517240Y-64947249D01*
X155460068Y-64931930D01*
X155460066Y-64931929D01*
X155460063Y-64931929D01*
X155240005Y-64912677D01*
X155239995Y-64912677D01*
X155019936Y-64931929D01*
X154806553Y-64989104D01*
X154606336Y-65082467D01*
X154425379Y-65209174D01*
X154269174Y-65365379D01*
X154142467Y-65546336D01*
X154049104Y-65746553D01*
X153991929Y-65959936D01*
X153972677Y-66179994D01*
X153972677Y-66180005D01*
X153991929Y-66400063D01*
X154049104Y-66613446D01*
X154142467Y-66813664D01*
X154172665Y-66856791D01*
X154183267Y-66904614D01*
X154156948Y-66945926D01*
X154120239Y-66957500D01*
X146127928Y-66957500D01*
X146002260Y-66982497D01*
X146002258Y-66982498D01*
X145883872Y-67031534D01*
X145777330Y-67102723D01*
X141357841Y-71522211D01*
X141312586Y-71540956D01*
X141267331Y-71522211D01*
X141248586Y-71476956D01*
X141248830Y-71471378D01*
X141267323Y-71260004D01*
X141267323Y-71259994D01*
X141254170Y-71109654D01*
X141248070Y-71039932D01*
X141199739Y-70859562D01*
X141190895Y-70826553D01*
X141177814Y-70798500D01*
X141097534Y-70626339D01*
X140970826Y-70445380D01*
X140814620Y-70289174D01*
X140633664Y-70162467D01*
X140433446Y-70069104D01*
X140368935Y-70051819D01*
X140330073Y-70022000D01*
X140323680Y-69973436D01*
X140353499Y-69934574D01*
X140368935Y-69928181D01*
X140433446Y-69910895D01*
X140433445Y-69910895D01*
X140433450Y-69910894D01*
X140633662Y-69817534D01*
X140814620Y-69690826D01*
X140970826Y-69534620D01*
X141097534Y-69353662D01*
X141190894Y-69153450D01*
X141248070Y-68940068D01*
X141267323Y-68720000D01*
X141267323Y-68719994D01*
X141248070Y-68499936D01*
X141248070Y-68499932D01*
X141199739Y-68319562D01*
X141190895Y-68286553D01*
X141177814Y-68258500D01*
X141097534Y-68086339D01*
X140970826Y-67905380D01*
X140814620Y-67749174D01*
X140633664Y-67622467D01*
X140433446Y-67529104D01*
X140368935Y-67511819D01*
X140330073Y-67482000D01*
X140323680Y-67433436D01*
X140353499Y-67394574D01*
X140368935Y-67388181D01*
X140433446Y-67370895D01*
X140433445Y-67370895D01*
X140433450Y-67370894D01*
X140633662Y-67277534D01*
X140814620Y-67150826D01*
X140970826Y-66994620D01*
X141097534Y-66813662D01*
X141190894Y-66613450D01*
X141248070Y-66400068D01*
X141267323Y-66180000D01*
X141267323Y-66179994D01*
X141248070Y-65959936D01*
X141248070Y-65959932D01*
X141190894Y-65746550D01*
X141097534Y-65546339D01*
X140970826Y-65365380D01*
X140814620Y-65209174D01*
X140633664Y-65082467D01*
X140633662Y-65082466D01*
X140433450Y-64989106D01*
X140433448Y-64989105D01*
X140433443Y-64989103D01*
X140431600Y-64988432D01*
X140431181Y-64988048D01*
X140430917Y-64987925D01*
X140430955Y-64987841D01*
X140395488Y-64955337D01*
X140393354Y-64906400D01*
X140426449Y-64870288D01*
X140436929Y-64866474D01*
X140445559Y-64864162D01*
X140651363Y-64768194D01*
X140837376Y-64637946D01*
X140997946Y-64477376D01*
X141128194Y-64291363D01*
X141224162Y-64085559D01*
X141282935Y-63866216D01*
X141302726Y-63640000D01*
X141300295Y-63612216D01*
X141282935Y-63413788D01*
X141282935Y-63413784D01*
X141275489Y-63385995D01*
X153652006Y-63385995D01*
X153652006Y-63386004D01*
X153671796Y-63612211D01*
X153671796Y-63612214D01*
X153671797Y-63612216D01*
X153679242Y-63640000D01*
X153730568Y-63831555D01*
X153730570Y-63831559D01*
X153826538Y-64037363D01*
X153956786Y-64223376D01*
X154117356Y-64383946D01*
X154303369Y-64514194D01*
X154509173Y-64610162D01*
X154509175Y-64610162D01*
X154509176Y-64610163D01*
X154543108Y-64619254D01*
X154728516Y-64668935D01*
X154829056Y-64677731D01*
X154954727Y-64688726D01*
X154954732Y-64688726D01*
X154954737Y-64688726D01*
X155067840Y-64678830D01*
X155180948Y-64668935D01*
X155400291Y-64610162D01*
X155606095Y-64514194D01*
X155792108Y-64383946D01*
X155952678Y-64223376D01*
X156082926Y-64037363D01*
X156178894Y-63831559D01*
X156237667Y-63612216D01*
X156255027Y-63413788D01*
X156257458Y-63386004D01*
X156257458Y-63385995D01*
X156237667Y-63159788D01*
X156237667Y-63159784D01*
X156178894Y-62940441D01*
X156082926Y-62734637D01*
X155952678Y-62548624D01*
X155792108Y-62388054D01*
X155606095Y-62257806D01*
X155400291Y-62161838D01*
X155400287Y-62161836D01*
X155239716Y-62118812D01*
X155180948Y-62103065D01*
X155180946Y-62103064D01*
X155180943Y-62103064D01*
X154954737Y-62083274D01*
X154954727Y-62083274D01*
X154728520Y-62103064D01*
X154509176Y-62161836D01*
X154303370Y-62257805D01*
X154117355Y-62388054D01*
X153956786Y-62548623D01*
X153826537Y-62734638D01*
X153730568Y-62940444D01*
X153671796Y-63159788D01*
X153652006Y-63385995D01*
X141275489Y-63385995D01*
X141224162Y-63194441D01*
X141128194Y-62988637D01*
X140997946Y-62802624D01*
X140837376Y-62642054D01*
X140651363Y-62511806D01*
X140445559Y-62415838D01*
X140445555Y-62415836D01*
X140284984Y-62372812D01*
X140226216Y-62357065D01*
X140226214Y-62357064D01*
X140226211Y-62357064D01*
X140000005Y-62337274D01*
X139999995Y-62337274D01*
X139773788Y-62357064D01*
X139554444Y-62415836D01*
X139348638Y-62511805D01*
X139162623Y-62642054D01*
X139002054Y-62802623D01*
X138871805Y-62988638D01*
X138775836Y-63194444D01*
X138717064Y-63413788D01*
X138697274Y-63639995D01*
X138697274Y-63640004D01*
X138717064Y-63866211D01*
X138775836Y-64085555D01*
X138775838Y-64085559D01*
X138871806Y-64291363D01*
X139002054Y-64477376D01*
X139162624Y-64637946D01*
X139348637Y-64768194D01*
X139554441Y-64864162D01*
X139563067Y-64866473D01*
X139601930Y-64896290D01*
X139608326Y-64944854D01*
X139578509Y-64983717D01*
X139568403Y-64988430D01*
X139566564Y-64989099D01*
X139366336Y-65082467D01*
X139185379Y-65209174D01*
X139029174Y-65365379D01*
X138902467Y-65546336D01*
X138809104Y-65746553D01*
X138751929Y-65959936D01*
X138732677Y-66179994D01*
X138732677Y-66180005D01*
X138751929Y-66400063D01*
X138809104Y-66613446D01*
X138809106Y-66613450D01*
X138902466Y-66813662D01*
X139029174Y-66994620D01*
X139185380Y-67150826D01*
X139366338Y-67277534D01*
X139566550Y-67370894D01*
X139566552Y-67370894D01*
X139566553Y-67370895D01*
X139631064Y-67388181D01*
X139669926Y-67418000D01*
X139676319Y-67466564D01*
X139646500Y-67505426D01*
X139631064Y-67511819D01*
X139566553Y-67529104D01*
X139366336Y-67622467D01*
X139185379Y-67749174D01*
X139029174Y-67905379D01*
X138902467Y-68086336D01*
X138809104Y-68286553D01*
X138751929Y-68499936D01*
X138732677Y-68719994D01*
X138732677Y-68720005D01*
X138751929Y-68940063D01*
X138809104Y-69153446D01*
X138809106Y-69153450D01*
X138902466Y-69353662D01*
X139029174Y-69534620D01*
X139185380Y-69690826D01*
X139366338Y-69817534D01*
X139566550Y-69910894D01*
X139566552Y-69910894D01*
X139566553Y-69910895D01*
X139631064Y-69928181D01*
X139669926Y-69958000D01*
X139676319Y-70006564D01*
X139646500Y-70045426D01*
X139631064Y-70051819D01*
X139566553Y-70069104D01*
X139366336Y-70162467D01*
X139185379Y-70289174D01*
X139029174Y-70445379D01*
X138902467Y-70626336D01*
X138809104Y-70826553D01*
X138751929Y-71039936D01*
X138732677Y-71259994D01*
X138732677Y-71260005D01*
X138751929Y-71480063D01*
X138809104Y-71693446D01*
X138809106Y-71693450D01*
X138902466Y-71893662D01*
X139029174Y-72074620D01*
X139185380Y-72230826D01*
X139366338Y-72357534D01*
X139566550Y-72450894D01*
X139566552Y-72450894D01*
X139566553Y-72450895D01*
X139631064Y-72468181D01*
X139669926Y-72498000D01*
X139676319Y-72546564D01*
X139646500Y-72585426D01*
X139631064Y-72591819D01*
X139566553Y-72609104D01*
X139366336Y-72702467D01*
X139185379Y-72829174D01*
X139029174Y-72985379D01*
X138902467Y-73166336D01*
X138809104Y-73366553D01*
X138751929Y-73579936D01*
X138732677Y-73799994D01*
X138732677Y-73800005D01*
X138751929Y-74020063D01*
X138751929Y-74020066D01*
X138751930Y-74020068D01*
X138765201Y-74069596D01*
X138809104Y-74233446D01*
X138809106Y-74233450D01*
X138902466Y-74433662D01*
X139029174Y-74614620D01*
X139185380Y-74770826D01*
X139366338Y-74897534D01*
X139566550Y-74990894D01*
X139566552Y-74990894D01*
X139566553Y-74990895D01*
X139631064Y-75008181D01*
X139669926Y-75038000D01*
X139676319Y-75086564D01*
X139646500Y-75125426D01*
X139631064Y-75131819D01*
X139566553Y-75149104D01*
X139366336Y-75242467D01*
X139185379Y-75369174D01*
X139029174Y-75525379D01*
X138902467Y-75706336D01*
X138809104Y-75906553D01*
X138751929Y-76119936D01*
X138732677Y-76339994D01*
X138732677Y-76340005D01*
X138751929Y-76560063D01*
X138751929Y-76560064D01*
X138765201Y-76609596D01*
X138758808Y-76658160D01*
X138748637Y-76671415D01*
X135839745Y-79580309D01*
X135822994Y-79605380D01*
X135768560Y-79686846D01*
X135719524Y-79805232D01*
X135719523Y-79805234D01*
X135694526Y-79930902D01*
X134000500Y-79930902D01*
X134000500Y-59814500D01*
X134019245Y-59769245D01*
X134064500Y-59750500D01*
X198935500Y-59750500D01*
X198980755Y-59769245D01*
G37*
%TD.AperFunction*%
%TD*%
M02*
