%TF.GenerationSoftware,KiCad,Pcbnew,8.0.7*%
%TF.CreationDate,2024-12-24T10:01:26+05:30*%
%TF.ProjectId,task1,7461736b-312e-46b6-9963-61645f706362,rev?*%
%TF.SameCoordinates,Original*%
%TF.FileFunction,Legend,Top*%
%TF.FilePolarity,Positive*%
%FSLAX46Y46*%
G04 Gerber Fmt 4.6, Leading zero omitted, Abs format (unit mm)*
G04 Created by KiCad (PCBNEW 8.0.7) date 2024-12-24 10:01:26*
%MOMM*%
%LPD*%
G01*
G04 APERTURE LIST*
%ADD10C,0.100000*%
%ADD11C,0.150000*%
%ADD12C,0.120000*%
%ADD13C,0.127000*%
G04 APERTURE END LIST*
D10*
X169303884Y-134991466D02*
X170065789Y-134991466D01*
X169303884Y-128991466D02*
X170065789Y-128991466D01*
X169684836Y-129372419D02*
X169684836Y-128610514D01*
X168803884Y-117491466D02*
X169565789Y-117491466D01*
X168803884Y-125991466D02*
X169565789Y-125991466D01*
X168303884Y-111491466D02*
X169065789Y-111491466D01*
X168684836Y-111872419D02*
X168684836Y-111110514D01*
X168803884Y-119991466D02*
X169565789Y-119991466D01*
X169184836Y-120372419D02*
X169184836Y-119610514D01*
D11*
X168309819Y-133018094D02*
X167309819Y-133018094D01*
X167309819Y-133018094D02*
X167309819Y-132779999D01*
X167309819Y-132779999D02*
X167357438Y-132637142D01*
X167357438Y-132637142D02*
X167452676Y-132541904D01*
X167452676Y-132541904D02*
X167547914Y-132494285D01*
X167547914Y-132494285D02*
X167738390Y-132446666D01*
X167738390Y-132446666D02*
X167881247Y-132446666D01*
X167881247Y-132446666D02*
X168071723Y-132494285D01*
X168071723Y-132494285D02*
X168166961Y-132541904D01*
X168166961Y-132541904D02*
X168262200Y-132637142D01*
X168262200Y-132637142D02*
X168309819Y-132779999D01*
X168309819Y-132779999D02*
X168309819Y-133018094D01*
X168309819Y-131494285D02*
X168309819Y-132065713D01*
X168309819Y-131779999D02*
X167309819Y-131779999D01*
X167309819Y-131779999D02*
X167452676Y-131875237D01*
X167452676Y-131875237D02*
X167547914Y-131970475D01*
X167547914Y-131970475D02*
X167595533Y-132065713D01*
X167809819Y-124008094D02*
X166809819Y-124008094D01*
X166809819Y-124008094D02*
X166809819Y-123769999D01*
X166809819Y-123769999D02*
X166857438Y-123627142D01*
X166857438Y-123627142D02*
X166952676Y-123531904D01*
X166952676Y-123531904D02*
X167047914Y-123484285D01*
X167047914Y-123484285D02*
X167238390Y-123436666D01*
X167238390Y-123436666D02*
X167381247Y-123436666D01*
X167381247Y-123436666D02*
X167571723Y-123484285D01*
X167571723Y-123484285D02*
X167666961Y-123531904D01*
X167666961Y-123531904D02*
X167762200Y-123627142D01*
X167762200Y-123627142D02*
X167809819Y-123769999D01*
X167809819Y-123769999D02*
X167809819Y-124008094D01*
X166905057Y-123055713D02*
X166857438Y-123008094D01*
X166857438Y-123008094D02*
X166809819Y-122912856D01*
X166809819Y-122912856D02*
X166809819Y-122674761D01*
X166809819Y-122674761D02*
X166857438Y-122579523D01*
X166857438Y-122579523D02*
X166905057Y-122531904D01*
X166905057Y-122531904D02*
X167000295Y-122484285D01*
X167000295Y-122484285D02*
X167095533Y-122484285D01*
X167095533Y-122484285D02*
X167238390Y-122531904D01*
X167238390Y-122531904D02*
X167809819Y-123103332D01*
X167809819Y-123103332D02*
X167809819Y-122484285D01*
X180833333Y-129584819D02*
X180500000Y-129108628D01*
X180261905Y-129584819D02*
X180261905Y-128584819D01*
X180261905Y-128584819D02*
X180642857Y-128584819D01*
X180642857Y-128584819D02*
X180738095Y-128632438D01*
X180738095Y-128632438D02*
X180785714Y-128680057D01*
X180785714Y-128680057D02*
X180833333Y-128775295D01*
X180833333Y-128775295D02*
X180833333Y-128918152D01*
X180833333Y-128918152D02*
X180785714Y-129013390D01*
X180785714Y-129013390D02*
X180738095Y-129061009D01*
X180738095Y-129061009D02*
X180642857Y-129108628D01*
X180642857Y-129108628D02*
X180261905Y-129108628D01*
X181785714Y-129584819D02*
X181214286Y-129584819D01*
X181500000Y-129584819D02*
X181500000Y-128584819D01*
X181500000Y-128584819D02*
X181404762Y-128727676D01*
X181404762Y-128727676D02*
X181309524Y-128822914D01*
X181309524Y-128822914D02*
X181214286Y-128870533D01*
X191916667Y-119357200D02*
X192059524Y-119404819D01*
X192059524Y-119404819D02*
X192297619Y-119404819D01*
X192297619Y-119404819D02*
X192392857Y-119357200D01*
X192392857Y-119357200D02*
X192440476Y-119309580D01*
X192440476Y-119309580D02*
X192488095Y-119214342D01*
X192488095Y-119214342D02*
X192488095Y-119119104D01*
X192488095Y-119119104D02*
X192440476Y-119023866D01*
X192440476Y-119023866D02*
X192392857Y-118976247D01*
X192392857Y-118976247D02*
X192297619Y-118928628D01*
X192297619Y-118928628D02*
X192107143Y-118881009D01*
X192107143Y-118881009D02*
X192011905Y-118833390D01*
X192011905Y-118833390D02*
X191964286Y-118785771D01*
X191964286Y-118785771D02*
X191916667Y-118690533D01*
X191916667Y-118690533D02*
X191916667Y-118595295D01*
X191916667Y-118595295D02*
X191964286Y-118500057D01*
X191964286Y-118500057D02*
X192011905Y-118452438D01*
X192011905Y-118452438D02*
X192107143Y-118404819D01*
X192107143Y-118404819D02*
X192345238Y-118404819D01*
X192345238Y-118404819D02*
X192488095Y-118452438D01*
X192821429Y-118404819D02*
X193059524Y-119404819D01*
X193059524Y-119404819D02*
X193250000Y-118690533D01*
X193250000Y-118690533D02*
X193440476Y-119404819D01*
X193440476Y-119404819D02*
X193678572Y-118404819D01*
X194011905Y-118500057D02*
X194059524Y-118452438D01*
X194059524Y-118452438D02*
X194154762Y-118404819D01*
X194154762Y-118404819D02*
X194392857Y-118404819D01*
X194392857Y-118404819D02*
X194488095Y-118452438D01*
X194488095Y-118452438D02*
X194535714Y-118500057D01*
X194535714Y-118500057D02*
X194583333Y-118595295D01*
X194583333Y-118595295D02*
X194583333Y-118690533D01*
X194583333Y-118690533D02*
X194535714Y-118833390D01*
X194535714Y-118833390D02*
X193964286Y-119404819D01*
X193964286Y-119404819D02*
X194583333Y-119404819D01*
D10*
X284474419Y-149780904D02*
X285283942Y-149780904D01*
X285283942Y-149780904D02*
X285379180Y-149733285D01*
X285379180Y-149733285D02*
X285426800Y-149685666D01*
X285426800Y-149685666D02*
X285474419Y-149590428D01*
X285474419Y-149590428D02*
X285474419Y-149399952D01*
X285474419Y-149399952D02*
X285426800Y-149304714D01*
X285426800Y-149304714D02*
X285379180Y-149257095D01*
X285379180Y-149257095D02*
X285283942Y-149209476D01*
X285283942Y-149209476D02*
X284474419Y-149209476D01*
X284569657Y-148780904D02*
X284522038Y-148733285D01*
X284522038Y-148733285D02*
X284474419Y-148638047D01*
X284474419Y-148638047D02*
X284474419Y-148399952D01*
X284474419Y-148399952D02*
X284522038Y-148304714D01*
X284522038Y-148304714D02*
X284569657Y-148257095D01*
X284569657Y-148257095D02*
X284664895Y-148209476D01*
X284664895Y-148209476D02*
X284760133Y-148209476D01*
X284760133Y-148209476D02*
X284902990Y-148257095D01*
X284902990Y-148257095D02*
X285474419Y-148828523D01*
X285474419Y-148828523D02*
X285474419Y-148209476D01*
X185477884Y-80348609D02*
X185811217Y-80348609D01*
X185954074Y-80872419D02*
X185477884Y-80872419D01*
X185477884Y-80872419D02*
X185477884Y-79872419D01*
X185477884Y-79872419D02*
X185954074Y-79872419D01*
X186811217Y-80824800D02*
X186715979Y-80872419D01*
X186715979Y-80872419D02*
X186525503Y-80872419D01*
X186525503Y-80872419D02*
X186430265Y-80824800D01*
X186430265Y-80824800D02*
X186382646Y-80777180D01*
X186382646Y-80777180D02*
X186335027Y-80681942D01*
X186335027Y-80681942D02*
X186335027Y-80396228D01*
X186335027Y-80396228D02*
X186382646Y-80300990D01*
X186382646Y-80300990D02*
X186430265Y-80253371D01*
X186430265Y-80253371D02*
X186525503Y-80205752D01*
X186525503Y-80205752D02*
X186715979Y-80205752D01*
X186715979Y-80205752D02*
X186811217Y-80253371D01*
X187239789Y-80872419D02*
X187239789Y-79872419D01*
X187668360Y-80872419D02*
X187668360Y-80348609D01*
X187668360Y-80348609D02*
X187620741Y-80253371D01*
X187620741Y-80253371D02*
X187525503Y-80205752D01*
X187525503Y-80205752D02*
X187382646Y-80205752D01*
X187382646Y-80205752D02*
X187287408Y-80253371D01*
X187287408Y-80253371D02*
X187239789Y-80300990D01*
X188287408Y-80872419D02*
X188192170Y-80824800D01*
X188192170Y-80824800D02*
X188144551Y-80777180D01*
X188144551Y-80777180D02*
X188096932Y-80681942D01*
X188096932Y-80681942D02*
X188096932Y-80396228D01*
X188096932Y-80396228D02*
X188144551Y-80300990D01*
X188144551Y-80300990D02*
X188192170Y-80253371D01*
X188192170Y-80253371D02*
X188287408Y-80205752D01*
X188287408Y-80205752D02*
X188430265Y-80205752D01*
X188430265Y-80205752D02*
X188525503Y-80253371D01*
X188525503Y-80253371D02*
X188573122Y-80300990D01*
X188573122Y-80300990D02*
X188620741Y-80396228D01*
X188620741Y-80396228D02*
X188620741Y-80681942D01*
X188620741Y-80681942D02*
X188573122Y-80777180D01*
X188573122Y-80777180D02*
X188525503Y-80824800D01*
X188525503Y-80824800D02*
X188430265Y-80872419D01*
X188430265Y-80872419D02*
X188287408Y-80872419D01*
X186161027Y-81872419D02*
X186732455Y-81872419D01*
X186446741Y-82872419D02*
X186446741Y-81872419D01*
X187065789Y-82872419D02*
X187065789Y-82205752D01*
X187065789Y-82396228D02*
X187113408Y-82300990D01*
X187113408Y-82300990D02*
X187161027Y-82253371D01*
X187161027Y-82253371D02*
X187256265Y-82205752D01*
X187256265Y-82205752D02*
X187351503Y-82205752D01*
X187684837Y-82872419D02*
X187684837Y-82205752D01*
X187684837Y-81872419D02*
X187637218Y-81920038D01*
X187637218Y-81920038D02*
X187684837Y-81967657D01*
X187684837Y-81967657D02*
X187732456Y-81920038D01*
X187732456Y-81920038D02*
X187684837Y-81872419D01*
X187684837Y-81872419D02*
X187684837Y-81967657D01*
X188589598Y-82205752D02*
X188589598Y-83015276D01*
X188589598Y-83015276D02*
X188541979Y-83110514D01*
X188541979Y-83110514D02*
X188494360Y-83158133D01*
X188494360Y-83158133D02*
X188399122Y-83205752D01*
X188399122Y-83205752D02*
X188256265Y-83205752D01*
X188256265Y-83205752D02*
X188161027Y-83158133D01*
X188589598Y-82824800D02*
X188494360Y-82872419D01*
X188494360Y-82872419D02*
X188303884Y-82872419D01*
X188303884Y-82872419D02*
X188208646Y-82824800D01*
X188208646Y-82824800D02*
X188161027Y-82777180D01*
X188161027Y-82777180D02*
X188113408Y-82681942D01*
X188113408Y-82681942D02*
X188113408Y-82396228D01*
X188113408Y-82396228D02*
X188161027Y-82300990D01*
X188161027Y-82300990D02*
X188208646Y-82253371D01*
X188208646Y-82253371D02*
X188303884Y-82205752D01*
X188303884Y-82205752D02*
X188494360Y-82205752D01*
X188494360Y-82205752D02*
X188589598Y-82253371D01*
X186161027Y-84872419D02*
X186494360Y-85872419D01*
X186494360Y-85872419D02*
X186827693Y-84872419D01*
X187589598Y-85824800D02*
X187494360Y-85872419D01*
X187494360Y-85872419D02*
X187303884Y-85872419D01*
X187303884Y-85872419D02*
X187208646Y-85824800D01*
X187208646Y-85824800D02*
X187161027Y-85777180D01*
X187161027Y-85777180D02*
X187113408Y-85681942D01*
X187113408Y-85681942D02*
X187113408Y-85396228D01*
X187113408Y-85396228D02*
X187161027Y-85300990D01*
X187161027Y-85300990D02*
X187208646Y-85253371D01*
X187208646Y-85253371D02*
X187303884Y-85205752D01*
X187303884Y-85205752D02*
X187494360Y-85205752D01*
X187494360Y-85205752D02*
X187589598Y-85253371D01*
X188446741Y-85824800D02*
X188351503Y-85872419D01*
X188351503Y-85872419D02*
X188161027Y-85872419D01*
X188161027Y-85872419D02*
X188065789Y-85824800D01*
X188065789Y-85824800D02*
X188018170Y-85777180D01*
X188018170Y-85777180D02*
X187970551Y-85681942D01*
X187970551Y-85681942D02*
X187970551Y-85396228D01*
X187970551Y-85396228D02*
X188018170Y-85300990D01*
X188018170Y-85300990D02*
X188065789Y-85253371D01*
X188065789Y-85253371D02*
X188161027Y-85205752D01*
X188161027Y-85205752D02*
X188351503Y-85205752D01*
X188351503Y-85205752D02*
X188446741Y-85253371D01*
X186327693Y-77420038D02*
X186232455Y-77372419D01*
X186232455Y-77372419D02*
X186089598Y-77372419D01*
X186089598Y-77372419D02*
X185946741Y-77420038D01*
X185946741Y-77420038D02*
X185851503Y-77515276D01*
X185851503Y-77515276D02*
X185803884Y-77610514D01*
X185803884Y-77610514D02*
X185756265Y-77800990D01*
X185756265Y-77800990D02*
X185756265Y-77943847D01*
X185756265Y-77943847D02*
X185803884Y-78134323D01*
X185803884Y-78134323D02*
X185851503Y-78229561D01*
X185851503Y-78229561D02*
X185946741Y-78324800D01*
X185946741Y-78324800D02*
X186089598Y-78372419D01*
X186089598Y-78372419D02*
X186184836Y-78372419D01*
X186184836Y-78372419D02*
X186327693Y-78324800D01*
X186327693Y-78324800D02*
X186375312Y-78277180D01*
X186375312Y-78277180D02*
X186375312Y-77943847D01*
X186375312Y-77943847D02*
X186184836Y-77943847D01*
X186803884Y-78372419D02*
X186803884Y-77372419D01*
X186803884Y-77372419D02*
X187375312Y-78372419D01*
X187375312Y-78372419D02*
X187375312Y-77372419D01*
X187851503Y-78372419D02*
X187851503Y-77372419D01*
X187851503Y-77372419D02*
X188089598Y-77372419D01*
X188089598Y-77372419D02*
X188232455Y-77420038D01*
X188232455Y-77420038D02*
X188327693Y-77515276D01*
X188327693Y-77515276D02*
X188375312Y-77610514D01*
X188375312Y-77610514D02*
X188422931Y-77800990D01*
X188422931Y-77800990D02*
X188422931Y-77943847D01*
X188422931Y-77943847D02*
X188375312Y-78134323D01*
X188375312Y-78134323D02*
X188327693Y-78229561D01*
X188327693Y-78229561D02*
X188232455Y-78324800D01*
X188232455Y-78324800D02*
X188089598Y-78372419D01*
X188089598Y-78372419D02*
X187851503Y-78372419D01*
D11*
X180333333Y-112584819D02*
X180000000Y-112108628D01*
X179761905Y-112584819D02*
X179761905Y-111584819D01*
X179761905Y-111584819D02*
X180142857Y-111584819D01*
X180142857Y-111584819D02*
X180238095Y-111632438D01*
X180238095Y-111632438D02*
X180285714Y-111680057D01*
X180285714Y-111680057D02*
X180333333Y-111775295D01*
X180333333Y-111775295D02*
X180333333Y-111918152D01*
X180333333Y-111918152D02*
X180285714Y-112013390D01*
X180285714Y-112013390D02*
X180238095Y-112061009D01*
X180238095Y-112061009D02*
X180142857Y-112108628D01*
X180142857Y-112108628D02*
X179761905Y-112108628D01*
X180666667Y-111584819D02*
X181285714Y-111584819D01*
X181285714Y-111584819D02*
X180952381Y-111965771D01*
X180952381Y-111965771D02*
X181095238Y-111965771D01*
X181095238Y-111965771D02*
X181190476Y-112013390D01*
X181190476Y-112013390D02*
X181238095Y-112061009D01*
X181238095Y-112061009D02*
X181285714Y-112156247D01*
X181285714Y-112156247D02*
X181285714Y-112394342D01*
X181285714Y-112394342D02*
X181238095Y-112489580D01*
X181238095Y-112489580D02*
X181190476Y-112537200D01*
X181190476Y-112537200D02*
X181095238Y-112584819D01*
X181095238Y-112584819D02*
X180809524Y-112584819D01*
X180809524Y-112584819D02*
X180714286Y-112537200D01*
X180714286Y-112537200D02*
X180666667Y-112489580D01*
X191916667Y-127907200D02*
X192059524Y-127954819D01*
X192059524Y-127954819D02*
X192297619Y-127954819D01*
X192297619Y-127954819D02*
X192392857Y-127907200D01*
X192392857Y-127907200D02*
X192440476Y-127859580D01*
X192440476Y-127859580D02*
X192488095Y-127764342D01*
X192488095Y-127764342D02*
X192488095Y-127669104D01*
X192488095Y-127669104D02*
X192440476Y-127573866D01*
X192440476Y-127573866D02*
X192392857Y-127526247D01*
X192392857Y-127526247D02*
X192297619Y-127478628D01*
X192297619Y-127478628D02*
X192107143Y-127431009D01*
X192107143Y-127431009D02*
X192011905Y-127383390D01*
X192011905Y-127383390D02*
X191964286Y-127335771D01*
X191964286Y-127335771D02*
X191916667Y-127240533D01*
X191916667Y-127240533D02*
X191916667Y-127145295D01*
X191916667Y-127145295D02*
X191964286Y-127050057D01*
X191964286Y-127050057D02*
X192011905Y-127002438D01*
X192011905Y-127002438D02*
X192107143Y-126954819D01*
X192107143Y-126954819D02*
X192345238Y-126954819D01*
X192345238Y-126954819D02*
X192488095Y-127002438D01*
X192821429Y-126954819D02*
X193059524Y-127954819D01*
X193059524Y-127954819D02*
X193250000Y-127240533D01*
X193250000Y-127240533D02*
X193440476Y-127954819D01*
X193440476Y-127954819D02*
X193678572Y-126954819D01*
X193964286Y-126954819D02*
X194583333Y-126954819D01*
X194583333Y-126954819D02*
X194250000Y-127335771D01*
X194250000Y-127335771D02*
X194392857Y-127335771D01*
X194392857Y-127335771D02*
X194488095Y-127383390D01*
X194488095Y-127383390D02*
X194535714Y-127431009D01*
X194535714Y-127431009D02*
X194583333Y-127526247D01*
X194583333Y-127526247D02*
X194583333Y-127764342D01*
X194583333Y-127764342D02*
X194535714Y-127859580D01*
X194535714Y-127859580D02*
X194488095Y-127907200D01*
X194488095Y-127907200D02*
X194392857Y-127954819D01*
X194392857Y-127954819D02*
X194107143Y-127954819D01*
X194107143Y-127954819D02*
X194011905Y-127907200D01*
X194011905Y-127907200D02*
X193964286Y-127859580D01*
X169619047Y-85731009D02*
X169761904Y-85778628D01*
X169761904Y-85778628D02*
X169809523Y-85826247D01*
X169809523Y-85826247D02*
X169857142Y-85921485D01*
X169857142Y-85921485D02*
X169857142Y-86064342D01*
X169857142Y-86064342D02*
X169809523Y-86159580D01*
X169809523Y-86159580D02*
X169761904Y-86207200D01*
X169761904Y-86207200D02*
X169666666Y-86254819D01*
X169666666Y-86254819D02*
X169285714Y-86254819D01*
X169285714Y-86254819D02*
X169285714Y-85254819D01*
X169285714Y-85254819D02*
X169619047Y-85254819D01*
X169619047Y-85254819D02*
X169714285Y-85302438D01*
X169714285Y-85302438D02*
X169761904Y-85350057D01*
X169761904Y-85350057D02*
X169809523Y-85445295D01*
X169809523Y-85445295D02*
X169809523Y-85540533D01*
X169809523Y-85540533D02*
X169761904Y-85635771D01*
X169761904Y-85635771D02*
X169714285Y-85683390D01*
X169714285Y-85683390D02*
X169619047Y-85731009D01*
X169619047Y-85731009D02*
X169285714Y-85731009D01*
X170190476Y-85254819D02*
X170857142Y-85254819D01*
X170857142Y-85254819D02*
X170190476Y-86254819D01*
X170190476Y-86254819D02*
X170857142Y-86254819D01*
X171761904Y-86254819D02*
X171190476Y-86254819D01*
X171476190Y-86254819D02*
X171476190Y-85254819D01*
X171476190Y-85254819D02*
X171380952Y-85397676D01*
X171380952Y-85397676D02*
X171285714Y-85492914D01*
X171285714Y-85492914D02*
X171190476Y-85540533D01*
X166309048Y-90533866D02*
X167070953Y-90533866D01*
X166690000Y-90914819D02*
X166690000Y-90152914D01*
D10*
X147890475Y-32395419D02*
X147890475Y-31871609D01*
X147890475Y-31871609D02*
X147842856Y-31776371D01*
X147842856Y-31776371D02*
X147747618Y-31728752D01*
X147747618Y-31728752D02*
X147557142Y-31728752D01*
X147557142Y-31728752D02*
X147461904Y-31776371D01*
X147890475Y-32347800D02*
X147795237Y-32395419D01*
X147795237Y-32395419D02*
X147557142Y-32395419D01*
X147557142Y-32395419D02*
X147461904Y-32347800D01*
X147461904Y-32347800D02*
X147414285Y-32252561D01*
X147414285Y-32252561D02*
X147414285Y-32157323D01*
X147414285Y-32157323D02*
X147461904Y-32062085D01*
X147461904Y-32062085D02*
X147557142Y-32014466D01*
X147557142Y-32014466D02*
X147795237Y-32014466D01*
X147795237Y-32014466D02*
X147890475Y-31966847D01*
X148366666Y-32395419D02*
X148366666Y-31728752D01*
X148366666Y-31919228D02*
X148414285Y-31823990D01*
X148414285Y-31823990D02*
X148461904Y-31776371D01*
X148461904Y-31776371D02*
X148557142Y-31728752D01*
X148557142Y-31728752D02*
X148652380Y-31728752D01*
X149414285Y-32395419D02*
X149414285Y-31395419D01*
X149414285Y-32347800D02*
X149319047Y-32395419D01*
X149319047Y-32395419D02*
X149128571Y-32395419D01*
X149128571Y-32395419D02*
X149033333Y-32347800D01*
X149033333Y-32347800D02*
X148985714Y-32300180D01*
X148985714Y-32300180D02*
X148938095Y-32204942D01*
X148938095Y-32204942D02*
X148938095Y-31919228D01*
X148938095Y-31919228D02*
X148985714Y-31823990D01*
X148985714Y-31823990D02*
X149033333Y-31776371D01*
X149033333Y-31776371D02*
X149128571Y-31728752D01*
X149128571Y-31728752D02*
X149319047Y-31728752D01*
X149319047Y-31728752D02*
X149414285Y-31776371D01*
X150319047Y-31728752D02*
X150319047Y-32395419D01*
X149890476Y-31728752D02*
X149890476Y-32252561D01*
X149890476Y-32252561D02*
X149938095Y-32347800D01*
X149938095Y-32347800D02*
X150033333Y-32395419D01*
X150033333Y-32395419D02*
X150176190Y-32395419D01*
X150176190Y-32395419D02*
X150271428Y-32347800D01*
X150271428Y-32347800D02*
X150319047Y-32300180D01*
X150795238Y-32395419D02*
X150795238Y-31728752D01*
X150795238Y-31395419D02*
X150747619Y-31443038D01*
X150747619Y-31443038D02*
X150795238Y-31490657D01*
X150795238Y-31490657D02*
X150842857Y-31443038D01*
X150842857Y-31443038D02*
X150795238Y-31395419D01*
X150795238Y-31395419D02*
X150795238Y-31490657D01*
X151271428Y-31728752D02*
X151271428Y-32395419D01*
X151271428Y-31823990D02*
X151319047Y-31776371D01*
X151319047Y-31776371D02*
X151414285Y-31728752D01*
X151414285Y-31728752D02*
X151557142Y-31728752D01*
X151557142Y-31728752D02*
X151652380Y-31776371D01*
X151652380Y-31776371D02*
X151699999Y-31871609D01*
X151699999Y-31871609D02*
X151699999Y-32395419D01*
X152319047Y-32395419D02*
X152223809Y-32347800D01*
X152223809Y-32347800D02*
X152176190Y-32300180D01*
X152176190Y-32300180D02*
X152128571Y-32204942D01*
X152128571Y-32204942D02*
X152128571Y-31919228D01*
X152128571Y-31919228D02*
X152176190Y-31823990D01*
X152176190Y-31823990D02*
X152223809Y-31776371D01*
X152223809Y-31776371D02*
X152319047Y-31728752D01*
X152319047Y-31728752D02*
X152461904Y-31728752D01*
X152461904Y-31728752D02*
X152557142Y-31776371D01*
X152557142Y-31776371D02*
X152604761Y-31823990D01*
X152604761Y-31823990D02*
X152652380Y-31919228D01*
X152652380Y-31919228D02*
X152652380Y-32204942D01*
X152652380Y-32204942D02*
X152604761Y-32300180D01*
X152604761Y-32300180D02*
X152557142Y-32347800D01*
X152557142Y-32347800D02*
X152461904Y-32395419D01*
X152461904Y-32395419D02*
X152319047Y-32395419D01*
X152842857Y-32490657D02*
X153604761Y-32490657D01*
X153842857Y-31728752D02*
X153842857Y-32395419D01*
X153842857Y-31823990D02*
X153890476Y-31776371D01*
X153890476Y-31776371D02*
X153985714Y-31728752D01*
X153985714Y-31728752D02*
X154128571Y-31728752D01*
X154128571Y-31728752D02*
X154223809Y-31776371D01*
X154223809Y-31776371D02*
X154271428Y-31871609D01*
X154271428Y-31871609D02*
X154271428Y-32395419D01*
X155176190Y-32395419D02*
X155176190Y-31871609D01*
X155176190Y-31871609D02*
X155128571Y-31776371D01*
X155128571Y-31776371D02*
X155033333Y-31728752D01*
X155033333Y-31728752D02*
X154842857Y-31728752D01*
X154842857Y-31728752D02*
X154747619Y-31776371D01*
X155176190Y-32347800D02*
X155080952Y-32395419D01*
X155080952Y-32395419D02*
X154842857Y-32395419D01*
X154842857Y-32395419D02*
X154747619Y-32347800D01*
X154747619Y-32347800D02*
X154700000Y-32252561D01*
X154700000Y-32252561D02*
X154700000Y-32157323D01*
X154700000Y-32157323D02*
X154747619Y-32062085D01*
X154747619Y-32062085D02*
X154842857Y-32014466D01*
X154842857Y-32014466D02*
X155080952Y-32014466D01*
X155080952Y-32014466D02*
X155176190Y-31966847D01*
X155652381Y-31728752D02*
X155652381Y-32395419D01*
X155652381Y-31823990D02*
X155700000Y-31776371D01*
X155700000Y-31776371D02*
X155795238Y-31728752D01*
X155795238Y-31728752D02*
X155938095Y-31728752D01*
X155938095Y-31728752D02*
X156033333Y-31776371D01*
X156033333Y-31776371D02*
X156080952Y-31871609D01*
X156080952Y-31871609D02*
X156080952Y-32395419D01*
X156700000Y-32395419D02*
X156604762Y-32347800D01*
X156604762Y-32347800D02*
X156557143Y-32300180D01*
X156557143Y-32300180D02*
X156509524Y-32204942D01*
X156509524Y-32204942D02*
X156509524Y-31919228D01*
X156509524Y-31919228D02*
X156557143Y-31823990D01*
X156557143Y-31823990D02*
X156604762Y-31776371D01*
X156604762Y-31776371D02*
X156700000Y-31728752D01*
X156700000Y-31728752D02*
X156842857Y-31728752D01*
X156842857Y-31728752D02*
X156938095Y-31776371D01*
X156938095Y-31776371D02*
X156985714Y-31823990D01*
X156985714Y-31823990D02*
X157033333Y-31919228D01*
X157033333Y-31919228D02*
X157033333Y-32204942D01*
X157033333Y-32204942D02*
X156985714Y-32300180D01*
X156985714Y-32300180D02*
X156938095Y-32347800D01*
X156938095Y-32347800D02*
X156842857Y-32395419D01*
X156842857Y-32395419D02*
X156700000Y-32395419D01*
X157985714Y-32395419D02*
X157414286Y-32395419D01*
X157700000Y-32395419D02*
X157700000Y-31395419D01*
X157700000Y-31395419D02*
X157604762Y-31538276D01*
X157604762Y-31538276D02*
X157509524Y-31633514D01*
X157509524Y-31633514D02*
X157414286Y-31681133D01*
X135684265Y-89134704D02*
X136160455Y-89134704D01*
X135589027Y-89420419D02*
X135922360Y-88420419D01*
X135922360Y-88420419D02*
X136255693Y-89420419D01*
X137017598Y-88420419D02*
X136827122Y-88420419D01*
X136827122Y-88420419D02*
X136731884Y-88468038D01*
X136731884Y-88468038D02*
X136684265Y-88515657D01*
X136684265Y-88515657D02*
X136589027Y-88658514D01*
X136589027Y-88658514D02*
X136541408Y-88848990D01*
X136541408Y-88848990D02*
X136541408Y-89229942D01*
X136541408Y-89229942D02*
X136589027Y-89325180D01*
X136589027Y-89325180D02*
X136636646Y-89372800D01*
X136636646Y-89372800D02*
X136731884Y-89420419D01*
X136731884Y-89420419D02*
X136922360Y-89420419D01*
X136922360Y-89420419D02*
X137017598Y-89372800D01*
X137017598Y-89372800D02*
X137065217Y-89325180D01*
X137065217Y-89325180D02*
X137112836Y-89229942D01*
X137112836Y-89229942D02*
X137112836Y-88991847D01*
X137112836Y-88991847D02*
X137065217Y-88896609D01*
X137065217Y-88896609D02*
X137017598Y-88848990D01*
X137017598Y-88848990D02*
X136922360Y-88801371D01*
X136922360Y-88801371D02*
X136731884Y-88801371D01*
X136731884Y-88801371D02*
X136636646Y-88848990D01*
X136636646Y-88848990D02*
X136589027Y-88896609D01*
X136589027Y-88896609D02*
X136541408Y-88991847D01*
X157321884Y-84340419D02*
X157321884Y-83340419D01*
X157321884Y-83340419D02*
X157559979Y-83340419D01*
X157559979Y-83340419D02*
X157702836Y-83388038D01*
X157702836Y-83388038D02*
X157798074Y-83483276D01*
X157798074Y-83483276D02*
X157845693Y-83578514D01*
X157845693Y-83578514D02*
X157893312Y-83768990D01*
X157893312Y-83768990D02*
X157893312Y-83911847D01*
X157893312Y-83911847D02*
X157845693Y-84102323D01*
X157845693Y-84102323D02*
X157798074Y-84197561D01*
X157798074Y-84197561D02*
X157702836Y-84292800D01*
X157702836Y-84292800D02*
X157559979Y-84340419D01*
X157559979Y-84340419D02*
X157321884Y-84340419D01*
X158798074Y-83340419D02*
X158321884Y-83340419D01*
X158321884Y-83340419D02*
X158274265Y-83816609D01*
X158274265Y-83816609D02*
X158321884Y-83768990D01*
X158321884Y-83768990D02*
X158417122Y-83721371D01*
X158417122Y-83721371D02*
X158655217Y-83721371D01*
X158655217Y-83721371D02*
X158750455Y-83768990D01*
X158750455Y-83768990D02*
X158798074Y-83816609D01*
X158798074Y-83816609D02*
X158845693Y-83911847D01*
X158845693Y-83911847D02*
X158845693Y-84149942D01*
X158845693Y-84149942D02*
X158798074Y-84245180D01*
X158798074Y-84245180D02*
X158750455Y-84292800D01*
X158750455Y-84292800D02*
X158655217Y-84340419D01*
X158655217Y-84340419D02*
X158417122Y-84340419D01*
X158417122Y-84340419D02*
X158321884Y-84292800D01*
X158321884Y-84292800D02*
X158274265Y-84245180D01*
X157433027Y-101374419D02*
X158004455Y-101374419D01*
X157718741Y-102374419D02*
X157718741Y-101374419D01*
X158242551Y-101374419D02*
X158909217Y-102374419D01*
X158909217Y-101374419D02*
X158242551Y-102374419D01*
X134874646Y-68100419D02*
X135493693Y-68100419D01*
X135493693Y-68100419D02*
X135160360Y-68481371D01*
X135160360Y-68481371D02*
X135303217Y-68481371D01*
X135303217Y-68481371D02*
X135398455Y-68528990D01*
X135398455Y-68528990D02*
X135446074Y-68576609D01*
X135446074Y-68576609D02*
X135493693Y-68671847D01*
X135493693Y-68671847D02*
X135493693Y-68909942D01*
X135493693Y-68909942D02*
X135446074Y-69005180D01*
X135446074Y-69005180D02*
X135398455Y-69052800D01*
X135398455Y-69052800D02*
X135303217Y-69100419D01*
X135303217Y-69100419D02*
X135017503Y-69100419D01*
X135017503Y-69100419D02*
X134922265Y-69052800D01*
X134922265Y-69052800D02*
X134874646Y-69005180D01*
X135922265Y-69005180D02*
X135969884Y-69052800D01*
X135969884Y-69052800D02*
X135922265Y-69100419D01*
X135922265Y-69100419D02*
X135874646Y-69052800D01*
X135874646Y-69052800D02*
X135922265Y-69005180D01*
X135922265Y-69005180D02*
X135922265Y-69100419D01*
X136303217Y-68100419D02*
X136922264Y-68100419D01*
X136922264Y-68100419D02*
X136588931Y-68481371D01*
X136588931Y-68481371D02*
X136731788Y-68481371D01*
X136731788Y-68481371D02*
X136827026Y-68528990D01*
X136827026Y-68528990D02*
X136874645Y-68576609D01*
X136874645Y-68576609D02*
X136922264Y-68671847D01*
X136922264Y-68671847D02*
X136922264Y-68909942D01*
X136922264Y-68909942D02*
X136874645Y-69005180D01*
X136874645Y-69005180D02*
X136827026Y-69052800D01*
X136827026Y-69052800D02*
X136731788Y-69100419D01*
X136731788Y-69100419D02*
X136446074Y-69100419D01*
X136446074Y-69100419D02*
X136350836Y-69052800D01*
X136350836Y-69052800D02*
X136303217Y-69005180D01*
X137255598Y-68433752D02*
X137493693Y-69100419D01*
X137493693Y-69100419D02*
X137731788Y-68433752D01*
X158147312Y-99834419D02*
X157813979Y-99358228D01*
X157575884Y-99834419D02*
X157575884Y-98834419D01*
X157575884Y-98834419D02*
X157956836Y-98834419D01*
X157956836Y-98834419D02*
X158052074Y-98882038D01*
X158052074Y-98882038D02*
X158099693Y-98929657D01*
X158099693Y-98929657D02*
X158147312Y-99024895D01*
X158147312Y-99024895D02*
X158147312Y-99167752D01*
X158147312Y-99167752D02*
X158099693Y-99262990D01*
X158099693Y-99262990D02*
X158052074Y-99310609D01*
X158052074Y-99310609D02*
X157956836Y-99358228D01*
X157956836Y-99358228D02*
X157575884Y-99358228D01*
X158480646Y-98834419D02*
X159147312Y-99834419D01*
X159147312Y-98834419D02*
X158480646Y-99834419D01*
X157321884Y-74434419D02*
X157321884Y-73434419D01*
X157321884Y-73434419D02*
X157559979Y-73434419D01*
X157559979Y-73434419D02*
X157702836Y-73482038D01*
X157702836Y-73482038D02*
X157798074Y-73577276D01*
X157798074Y-73577276D02*
X157845693Y-73672514D01*
X157845693Y-73672514D02*
X157893312Y-73862990D01*
X157893312Y-73862990D02*
X157893312Y-74005847D01*
X157893312Y-74005847D02*
X157845693Y-74196323D01*
X157845693Y-74196323D02*
X157798074Y-74291561D01*
X157798074Y-74291561D02*
X157702836Y-74386800D01*
X157702836Y-74386800D02*
X157559979Y-74434419D01*
X157559979Y-74434419D02*
X157321884Y-74434419D01*
X158369503Y-74434419D02*
X158559979Y-74434419D01*
X158559979Y-74434419D02*
X158655217Y-74386800D01*
X158655217Y-74386800D02*
X158702836Y-74339180D01*
X158702836Y-74339180D02*
X158798074Y-74196323D01*
X158798074Y-74196323D02*
X158845693Y-74005847D01*
X158845693Y-74005847D02*
X158845693Y-73624895D01*
X158845693Y-73624895D02*
X158798074Y-73529657D01*
X158798074Y-73529657D02*
X158750455Y-73482038D01*
X158750455Y-73482038D02*
X158655217Y-73434419D01*
X158655217Y-73434419D02*
X158464741Y-73434419D01*
X158464741Y-73434419D02*
X158369503Y-73482038D01*
X158369503Y-73482038D02*
X158321884Y-73529657D01*
X158321884Y-73529657D02*
X158274265Y-73624895D01*
X158274265Y-73624895D02*
X158274265Y-73862990D01*
X158274265Y-73862990D02*
X158321884Y-73958228D01*
X158321884Y-73958228D02*
X158369503Y-74005847D01*
X158369503Y-74005847D02*
X158464741Y-74053466D01*
X158464741Y-74053466D02*
X158655217Y-74053466D01*
X158655217Y-74053466D02*
X158750455Y-74005847D01*
X158750455Y-74005847D02*
X158798074Y-73958228D01*
X158798074Y-73958228D02*
X158845693Y-73862990D01*
X136208074Y-93754419D02*
X135731884Y-93754419D01*
X135731884Y-93754419D02*
X135684265Y-94230609D01*
X135684265Y-94230609D02*
X135731884Y-94182990D01*
X135731884Y-94182990D02*
X135827122Y-94135371D01*
X135827122Y-94135371D02*
X136065217Y-94135371D01*
X136065217Y-94135371D02*
X136160455Y-94182990D01*
X136160455Y-94182990D02*
X136208074Y-94230609D01*
X136208074Y-94230609D02*
X136255693Y-94325847D01*
X136255693Y-94325847D02*
X136255693Y-94563942D01*
X136255693Y-94563942D02*
X136208074Y-94659180D01*
X136208074Y-94659180D02*
X136160455Y-94706800D01*
X136160455Y-94706800D02*
X136065217Y-94754419D01*
X136065217Y-94754419D02*
X135827122Y-94754419D01*
X135827122Y-94754419D02*
X135731884Y-94706800D01*
X135731884Y-94706800D02*
X135684265Y-94659180D01*
X136541408Y-93754419D02*
X136874741Y-94754419D01*
X136874741Y-94754419D02*
X137208074Y-93754419D01*
X135493693Y-98882038D02*
X135398455Y-98834419D01*
X135398455Y-98834419D02*
X135255598Y-98834419D01*
X135255598Y-98834419D02*
X135112741Y-98882038D01*
X135112741Y-98882038D02*
X135017503Y-98977276D01*
X135017503Y-98977276D02*
X134969884Y-99072514D01*
X134969884Y-99072514D02*
X134922265Y-99262990D01*
X134922265Y-99262990D02*
X134922265Y-99405847D01*
X134922265Y-99405847D02*
X134969884Y-99596323D01*
X134969884Y-99596323D02*
X135017503Y-99691561D01*
X135017503Y-99691561D02*
X135112741Y-99786800D01*
X135112741Y-99786800D02*
X135255598Y-99834419D01*
X135255598Y-99834419D02*
X135350836Y-99834419D01*
X135350836Y-99834419D02*
X135493693Y-99786800D01*
X135493693Y-99786800D02*
X135541312Y-99739180D01*
X135541312Y-99739180D02*
X135541312Y-99405847D01*
X135541312Y-99405847D02*
X135350836Y-99405847D01*
X135969884Y-99834419D02*
X135969884Y-98834419D01*
X135969884Y-98834419D02*
X136541312Y-99834419D01*
X136541312Y-99834419D02*
X136541312Y-98834419D01*
X137017503Y-99834419D02*
X137017503Y-98834419D01*
X137017503Y-98834419D02*
X137255598Y-98834419D01*
X137255598Y-98834419D02*
X137398455Y-98882038D01*
X137398455Y-98882038D02*
X137493693Y-98977276D01*
X137493693Y-98977276D02*
X137541312Y-99072514D01*
X137541312Y-99072514D02*
X137588931Y-99262990D01*
X137588931Y-99262990D02*
X137588931Y-99405847D01*
X137588931Y-99405847D02*
X137541312Y-99596323D01*
X137541312Y-99596323D02*
X137493693Y-99691561D01*
X137493693Y-99691561D02*
X137398455Y-99786800D01*
X137398455Y-99786800D02*
X137255598Y-99834419D01*
X137255598Y-99834419D02*
X137017503Y-99834419D01*
X134969884Y-66814419D02*
X134969884Y-65814419D01*
X134969884Y-65814419D02*
X135207979Y-65814419D01*
X135207979Y-65814419D02*
X135350836Y-65862038D01*
X135350836Y-65862038D02*
X135446074Y-65957276D01*
X135446074Y-65957276D02*
X135493693Y-66052514D01*
X135493693Y-66052514D02*
X135541312Y-66242990D01*
X135541312Y-66242990D02*
X135541312Y-66385847D01*
X135541312Y-66385847D02*
X135493693Y-66576323D01*
X135493693Y-66576323D02*
X135446074Y-66671561D01*
X135446074Y-66671561D02*
X135350836Y-66766800D01*
X135350836Y-66766800D02*
X135207979Y-66814419D01*
X135207979Y-66814419D02*
X134969884Y-66814419D01*
X136493693Y-66814419D02*
X135922265Y-66814419D01*
X136207979Y-66814419D02*
X136207979Y-65814419D01*
X136207979Y-65814419D02*
X136112741Y-65957276D01*
X136112741Y-65957276D02*
X136017503Y-66052514D01*
X136017503Y-66052514D02*
X135922265Y-66100133D01*
X136827027Y-65814419D02*
X137446074Y-65814419D01*
X137446074Y-65814419D02*
X137112741Y-66195371D01*
X137112741Y-66195371D02*
X137255598Y-66195371D01*
X137255598Y-66195371D02*
X137350836Y-66242990D01*
X137350836Y-66242990D02*
X137398455Y-66290609D01*
X137398455Y-66290609D02*
X137446074Y-66385847D01*
X137446074Y-66385847D02*
X137446074Y-66623942D01*
X137446074Y-66623942D02*
X137398455Y-66719180D01*
X137398455Y-66719180D02*
X137350836Y-66766800D01*
X137350836Y-66766800D02*
X137255598Y-66814419D01*
X137255598Y-66814419D02*
X136969884Y-66814419D01*
X136969884Y-66814419D02*
X136874646Y-66766800D01*
X136874646Y-66766800D02*
X136827027Y-66719180D01*
X136049312Y-97548419D02*
X135715979Y-97072228D01*
X135477884Y-97548419D02*
X135477884Y-96548419D01*
X135477884Y-96548419D02*
X135858836Y-96548419D01*
X135858836Y-96548419D02*
X135954074Y-96596038D01*
X135954074Y-96596038D02*
X136001693Y-96643657D01*
X136001693Y-96643657D02*
X136049312Y-96738895D01*
X136049312Y-96738895D02*
X136049312Y-96881752D01*
X136049312Y-96881752D02*
X136001693Y-96976990D01*
X136001693Y-96976990D02*
X135954074Y-97024609D01*
X135954074Y-97024609D02*
X135858836Y-97072228D01*
X135858836Y-97072228D02*
X135477884Y-97072228D01*
X136430265Y-97500800D02*
X136573122Y-97548419D01*
X136573122Y-97548419D02*
X136811217Y-97548419D01*
X136811217Y-97548419D02*
X136906455Y-97500800D01*
X136906455Y-97500800D02*
X136954074Y-97453180D01*
X136954074Y-97453180D02*
X137001693Y-97357942D01*
X137001693Y-97357942D02*
X137001693Y-97262704D01*
X137001693Y-97262704D02*
X136954074Y-97167466D01*
X136954074Y-97167466D02*
X136906455Y-97119847D01*
X136906455Y-97119847D02*
X136811217Y-97072228D01*
X136811217Y-97072228D02*
X136620741Y-97024609D01*
X136620741Y-97024609D02*
X136525503Y-96976990D01*
X136525503Y-96976990D02*
X136477884Y-96929371D01*
X136477884Y-96929371D02*
X136430265Y-96834133D01*
X136430265Y-96834133D02*
X136430265Y-96738895D01*
X136430265Y-96738895D02*
X136477884Y-96643657D01*
X136477884Y-96643657D02*
X136525503Y-96596038D01*
X136525503Y-96596038D02*
X136620741Y-96548419D01*
X136620741Y-96548419D02*
X136858836Y-96548419D01*
X136858836Y-96548419D02*
X137001693Y-96596038D01*
X137287408Y-96548419D02*
X137858836Y-96548419D01*
X137573122Y-97548419D02*
X137573122Y-96548419D01*
X135684265Y-76180704D02*
X136160455Y-76180704D01*
X135589027Y-76466419D02*
X135922360Y-75466419D01*
X135922360Y-75466419D02*
X136255693Y-76466419D01*
X137112836Y-76466419D02*
X136541408Y-76466419D01*
X136827122Y-76466419D02*
X136827122Y-75466419D01*
X136827122Y-75466419D02*
X136731884Y-75609276D01*
X136731884Y-75609276D02*
X136636646Y-75704514D01*
X136636646Y-75704514D02*
X136541408Y-75752133D01*
X135684265Y-73640704D02*
X136160455Y-73640704D01*
X135589027Y-73926419D02*
X135922360Y-72926419D01*
X135922360Y-72926419D02*
X136255693Y-73926419D01*
X136779503Y-72926419D02*
X136874741Y-72926419D01*
X136874741Y-72926419D02*
X136969979Y-72974038D01*
X136969979Y-72974038D02*
X137017598Y-73021657D01*
X137017598Y-73021657D02*
X137065217Y-73116895D01*
X137065217Y-73116895D02*
X137112836Y-73307371D01*
X137112836Y-73307371D02*
X137112836Y-73545466D01*
X137112836Y-73545466D02*
X137065217Y-73735942D01*
X137065217Y-73735942D02*
X137017598Y-73831180D01*
X137017598Y-73831180D02*
X136969979Y-73878800D01*
X136969979Y-73878800D02*
X136874741Y-73926419D01*
X136874741Y-73926419D02*
X136779503Y-73926419D01*
X136779503Y-73926419D02*
X136684265Y-73878800D01*
X136684265Y-73878800D02*
X136636646Y-73831180D01*
X136636646Y-73831180D02*
X136589027Y-73735942D01*
X136589027Y-73735942D02*
X136541408Y-73545466D01*
X136541408Y-73545466D02*
X136541408Y-73307371D01*
X136541408Y-73307371D02*
X136589027Y-73116895D01*
X136589027Y-73116895D02*
X136636646Y-73021657D01*
X136636646Y-73021657D02*
X136684265Y-72974038D01*
X136684265Y-72974038D02*
X136779503Y-72926419D01*
X135684265Y-78720704D02*
X136160455Y-78720704D01*
X135589027Y-79006419D02*
X135922360Y-78006419D01*
X135922360Y-78006419D02*
X136255693Y-79006419D01*
X136541408Y-78101657D02*
X136589027Y-78054038D01*
X136589027Y-78054038D02*
X136684265Y-78006419D01*
X136684265Y-78006419D02*
X136922360Y-78006419D01*
X136922360Y-78006419D02*
X137017598Y-78054038D01*
X137017598Y-78054038D02*
X137065217Y-78101657D01*
X137065217Y-78101657D02*
X137112836Y-78196895D01*
X137112836Y-78196895D02*
X137112836Y-78292133D01*
X137112836Y-78292133D02*
X137065217Y-78434990D01*
X137065217Y-78434990D02*
X136493789Y-79006419D01*
X136493789Y-79006419D02*
X137112836Y-79006419D01*
X157321884Y-91960419D02*
X157321884Y-90960419D01*
X157321884Y-90960419D02*
X157559979Y-90960419D01*
X157559979Y-90960419D02*
X157702836Y-91008038D01*
X157702836Y-91008038D02*
X157798074Y-91103276D01*
X157798074Y-91103276D02*
X157845693Y-91198514D01*
X157845693Y-91198514D02*
X157893312Y-91388990D01*
X157893312Y-91388990D02*
X157893312Y-91531847D01*
X157893312Y-91531847D02*
X157845693Y-91722323D01*
X157845693Y-91722323D02*
X157798074Y-91817561D01*
X157798074Y-91817561D02*
X157702836Y-91912800D01*
X157702836Y-91912800D02*
X157559979Y-91960419D01*
X157559979Y-91960419D02*
X157321884Y-91960419D01*
X158274265Y-91055657D02*
X158321884Y-91008038D01*
X158321884Y-91008038D02*
X158417122Y-90960419D01*
X158417122Y-90960419D02*
X158655217Y-90960419D01*
X158655217Y-90960419D02*
X158750455Y-91008038D01*
X158750455Y-91008038D02*
X158798074Y-91055657D01*
X158798074Y-91055657D02*
X158845693Y-91150895D01*
X158845693Y-91150895D02*
X158845693Y-91246133D01*
X158845693Y-91246133D02*
X158798074Y-91388990D01*
X158798074Y-91388990D02*
X158226646Y-91960419D01*
X158226646Y-91960419D02*
X158845693Y-91960419D01*
X157321884Y-76974419D02*
X157321884Y-75974419D01*
X157321884Y-75974419D02*
X157559979Y-75974419D01*
X157559979Y-75974419D02*
X157702836Y-76022038D01*
X157702836Y-76022038D02*
X157798074Y-76117276D01*
X157798074Y-76117276D02*
X157845693Y-76212514D01*
X157845693Y-76212514D02*
X157893312Y-76402990D01*
X157893312Y-76402990D02*
X157893312Y-76545847D01*
X157893312Y-76545847D02*
X157845693Y-76736323D01*
X157845693Y-76736323D02*
X157798074Y-76831561D01*
X157798074Y-76831561D02*
X157702836Y-76926800D01*
X157702836Y-76926800D02*
X157559979Y-76974419D01*
X157559979Y-76974419D02*
X157321884Y-76974419D01*
X158464741Y-76402990D02*
X158369503Y-76355371D01*
X158369503Y-76355371D02*
X158321884Y-76307752D01*
X158321884Y-76307752D02*
X158274265Y-76212514D01*
X158274265Y-76212514D02*
X158274265Y-76164895D01*
X158274265Y-76164895D02*
X158321884Y-76069657D01*
X158321884Y-76069657D02*
X158369503Y-76022038D01*
X158369503Y-76022038D02*
X158464741Y-75974419D01*
X158464741Y-75974419D02*
X158655217Y-75974419D01*
X158655217Y-75974419D02*
X158750455Y-76022038D01*
X158750455Y-76022038D02*
X158798074Y-76069657D01*
X158798074Y-76069657D02*
X158845693Y-76164895D01*
X158845693Y-76164895D02*
X158845693Y-76212514D01*
X158845693Y-76212514D02*
X158798074Y-76307752D01*
X158798074Y-76307752D02*
X158750455Y-76355371D01*
X158750455Y-76355371D02*
X158655217Y-76402990D01*
X158655217Y-76402990D02*
X158464741Y-76402990D01*
X158464741Y-76402990D02*
X158369503Y-76450609D01*
X158369503Y-76450609D02*
X158321884Y-76498228D01*
X158321884Y-76498228D02*
X158274265Y-76593466D01*
X158274265Y-76593466D02*
X158274265Y-76783942D01*
X158274265Y-76783942D02*
X158321884Y-76879180D01*
X158321884Y-76879180D02*
X158369503Y-76926800D01*
X158369503Y-76926800D02*
X158464741Y-76974419D01*
X158464741Y-76974419D02*
X158655217Y-76974419D01*
X158655217Y-76974419D02*
X158750455Y-76926800D01*
X158750455Y-76926800D02*
X158798074Y-76879180D01*
X158798074Y-76879180D02*
X158845693Y-76783942D01*
X158845693Y-76783942D02*
X158845693Y-76593466D01*
X158845693Y-76593466D02*
X158798074Y-76498228D01*
X158798074Y-76498228D02*
X158750455Y-76450609D01*
X158750455Y-76450609D02*
X158655217Y-76402990D01*
X135589027Y-101374419D02*
X135922360Y-102374419D01*
X135922360Y-102374419D02*
X136255693Y-101374419D01*
X136589027Y-102374419D02*
X136589027Y-101707752D01*
X136589027Y-101374419D02*
X136541408Y-101422038D01*
X136541408Y-101422038D02*
X136589027Y-101469657D01*
X136589027Y-101469657D02*
X136636646Y-101422038D01*
X136636646Y-101422038D02*
X136589027Y-101374419D01*
X136589027Y-101374419D02*
X136589027Y-101469657D01*
X137065217Y-101707752D02*
X137065217Y-102374419D01*
X137065217Y-101802990D02*
X137112836Y-101755371D01*
X137112836Y-101755371D02*
X137208074Y-101707752D01*
X137208074Y-101707752D02*
X137350931Y-101707752D01*
X137350931Y-101707752D02*
X137446169Y-101755371D01*
X137446169Y-101755371D02*
X137493788Y-101850609D01*
X137493788Y-101850609D02*
X137493788Y-102374419D01*
X157893312Y-97294419D02*
X157559979Y-96818228D01*
X157321884Y-97294419D02*
X157321884Y-96294419D01*
X157321884Y-96294419D02*
X157702836Y-96294419D01*
X157702836Y-96294419D02*
X157798074Y-96342038D01*
X157798074Y-96342038D02*
X157845693Y-96389657D01*
X157845693Y-96389657D02*
X157893312Y-96484895D01*
X157893312Y-96484895D02*
X157893312Y-96627752D01*
X157893312Y-96627752D02*
X157845693Y-96722990D01*
X157845693Y-96722990D02*
X157798074Y-96770609D01*
X157798074Y-96770609D02*
X157702836Y-96818228D01*
X157702836Y-96818228D02*
X157321884Y-96818228D01*
X158274265Y-97246800D02*
X158417122Y-97294419D01*
X158417122Y-97294419D02*
X158655217Y-97294419D01*
X158655217Y-97294419D02*
X158750455Y-97246800D01*
X158750455Y-97246800D02*
X158798074Y-97199180D01*
X158798074Y-97199180D02*
X158845693Y-97103942D01*
X158845693Y-97103942D02*
X158845693Y-97008704D01*
X158845693Y-97008704D02*
X158798074Y-96913466D01*
X158798074Y-96913466D02*
X158750455Y-96865847D01*
X158750455Y-96865847D02*
X158655217Y-96818228D01*
X158655217Y-96818228D02*
X158464741Y-96770609D01*
X158464741Y-96770609D02*
X158369503Y-96722990D01*
X158369503Y-96722990D02*
X158321884Y-96675371D01*
X158321884Y-96675371D02*
X158274265Y-96580133D01*
X158274265Y-96580133D02*
X158274265Y-96484895D01*
X158274265Y-96484895D02*
X158321884Y-96389657D01*
X158321884Y-96389657D02*
X158369503Y-96342038D01*
X158369503Y-96342038D02*
X158464741Y-96294419D01*
X158464741Y-96294419D02*
X158702836Y-96294419D01*
X158702836Y-96294419D02*
X158845693Y-96342038D01*
X159131408Y-96294419D02*
X159702836Y-96294419D01*
X159417122Y-97294419D02*
X159417122Y-96294419D01*
X135795312Y-71640419D02*
X135461979Y-71164228D01*
X135223884Y-71640419D02*
X135223884Y-70640419D01*
X135223884Y-70640419D02*
X135604836Y-70640419D01*
X135604836Y-70640419D02*
X135700074Y-70688038D01*
X135700074Y-70688038D02*
X135747693Y-70735657D01*
X135747693Y-70735657D02*
X135795312Y-70830895D01*
X135795312Y-70830895D02*
X135795312Y-70973752D01*
X135795312Y-70973752D02*
X135747693Y-71068990D01*
X135747693Y-71068990D02*
X135700074Y-71116609D01*
X135700074Y-71116609D02*
X135604836Y-71164228D01*
X135604836Y-71164228D02*
X135223884Y-71164228D01*
X136223884Y-71116609D02*
X136557217Y-71116609D01*
X136700074Y-71640419D02*
X136223884Y-71640419D01*
X136223884Y-71640419D02*
X136223884Y-70640419D01*
X136223884Y-70640419D02*
X136700074Y-70640419D01*
X137461979Y-71116609D02*
X137128646Y-71116609D01*
X137128646Y-71640419D02*
X137128646Y-70640419D01*
X137128646Y-70640419D02*
X137604836Y-70640419D01*
X157321884Y-81800419D02*
X157321884Y-80800419D01*
X157321884Y-80800419D02*
X157559979Y-80800419D01*
X157559979Y-80800419D02*
X157702836Y-80848038D01*
X157702836Y-80848038D02*
X157798074Y-80943276D01*
X157798074Y-80943276D02*
X157845693Y-81038514D01*
X157845693Y-81038514D02*
X157893312Y-81228990D01*
X157893312Y-81228990D02*
X157893312Y-81371847D01*
X157893312Y-81371847D02*
X157845693Y-81562323D01*
X157845693Y-81562323D02*
X157798074Y-81657561D01*
X157798074Y-81657561D02*
X157702836Y-81752800D01*
X157702836Y-81752800D02*
X157559979Y-81800419D01*
X157559979Y-81800419D02*
X157321884Y-81800419D01*
X158750455Y-80800419D02*
X158559979Y-80800419D01*
X158559979Y-80800419D02*
X158464741Y-80848038D01*
X158464741Y-80848038D02*
X158417122Y-80895657D01*
X158417122Y-80895657D02*
X158321884Y-81038514D01*
X158321884Y-81038514D02*
X158274265Y-81228990D01*
X158274265Y-81228990D02*
X158274265Y-81609942D01*
X158274265Y-81609942D02*
X158321884Y-81705180D01*
X158321884Y-81705180D02*
X158369503Y-81752800D01*
X158369503Y-81752800D02*
X158464741Y-81800419D01*
X158464741Y-81800419D02*
X158655217Y-81800419D01*
X158655217Y-81800419D02*
X158750455Y-81752800D01*
X158750455Y-81752800D02*
X158798074Y-81705180D01*
X158798074Y-81705180D02*
X158845693Y-81609942D01*
X158845693Y-81609942D02*
X158845693Y-81371847D01*
X158845693Y-81371847D02*
X158798074Y-81276609D01*
X158798074Y-81276609D02*
X158750455Y-81228990D01*
X158750455Y-81228990D02*
X158655217Y-81181371D01*
X158655217Y-81181371D02*
X158464741Y-81181371D01*
X158464741Y-81181371D02*
X158369503Y-81228990D01*
X158369503Y-81228990D02*
X158321884Y-81276609D01*
X158321884Y-81276609D02*
X158274265Y-81371847D01*
X135938265Y-81514704D02*
X136414455Y-81514704D01*
X135843027Y-81800419D02*
X136176360Y-80800419D01*
X136176360Y-80800419D02*
X136509693Y-81800419D01*
X136747789Y-80800419D02*
X137366836Y-80800419D01*
X137366836Y-80800419D02*
X137033503Y-81181371D01*
X137033503Y-81181371D02*
X137176360Y-81181371D01*
X137176360Y-81181371D02*
X137271598Y-81228990D01*
X137271598Y-81228990D02*
X137319217Y-81276609D01*
X137319217Y-81276609D02*
X137366836Y-81371847D01*
X137366836Y-81371847D02*
X137366836Y-81609942D01*
X137366836Y-81609942D02*
X137319217Y-81705180D01*
X137319217Y-81705180D02*
X137271598Y-81752800D01*
X137271598Y-81752800D02*
X137176360Y-81800419D01*
X137176360Y-81800419D02*
X136890646Y-81800419D01*
X136890646Y-81800419D02*
X136795408Y-81752800D01*
X136795408Y-81752800D02*
X136747789Y-81705180D01*
X157321884Y-89674419D02*
X157321884Y-88674419D01*
X157321884Y-88674419D02*
X157559979Y-88674419D01*
X157559979Y-88674419D02*
X157702836Y-88722038D01*
X157702836Y-88722038D02*
X157798074Y-88817276D01*
X157798074Y-88817276D02*
X157845693Y-88912514D01*
X157845693Y-88912514D02*
X157893312Y-89102990D01*
X157893312Y-89102990D02*
X157893312Y-89245847D01*
X157893312Y-89245847D02*
X157845693Y-89436323D01*
X157845693Y-89436323D02*
X157798074Y-89531561D01*
X157798074Y-89531561D02*
X157702836Y-89626800D01*
X157702836Y-89626800D02*
X157559979Y-89674419D01*
X157559979Y-89674419D02*
X157321884Y-89674419D01*
X158226646Y-88674419D02*
X158845693Y-88674419D01*
X158845693Y-88674419D02*
X158512360Y-89055371D01*
X158512360Y-89055371D02*
X158655217Y-89055371D01*
X158655217Y-89055371D02*
X158750455Y-89102990D01*
X158750455Y-89102990D02*
X158798074Y-89150609D01*
X158798074Y-89150609D02*
X158845693Y-89245847D01*
X158845693Y-89245847D02*
X158845693Y-89483942D01*
X158845693Y-89483942D02*
X158798074Y-89579180D01*
X158798074Y-89579180D02*
X158750455Y-89626800D01*
X158750455Y-89626800D02*
X158655217Y-89674419D01*
X158655217Y-89674419D02*
X158369503Y-89674419D01*
X158369503Y-89674419D02*
X158274265Y-89626800D01*
X158274265Y-89626800D02*
X158226646Y-89579180D01*
X135938265Y-83800704D02*
X136414455Y-83800704D01*
X135843027Y-84086419D02*
X136176360Y-83086419D01*
X136176360Y-83086419D02*
X136509693Y-84086419D01*
X137271598Y-83419752D02*
X137271598Y-84086419D01*
X137033503Y-83038800D02*
X136795408Y-83753085D01*
X136795408Y-83753085D02*
X137414455Y-83753085D01*
X157321884Y-79514419D02*
X157321884Y-78514419D01*
X157321884Y-78514419D02*
X157559979Y-78514419D01*
X157559979Y-78514419D02*
X157702836Y-78562038D01*
X157702836Y-78562038D02*
X157798074Y-78657276D01*
X157798074Y-78657276D02*
X157845693Y-78752514D01*
X157845693Y-78752514D02*
X157893312Y-78942990D01*
X157893312Y-78942990D02*
X157893312Y-79085847D01*
X157893312Y-79085847D02*
X157845693Y-79276323D01*
X157845693Y-79276323D02*
X157798074Y-79371561D01*
X157798074Y-79371561D02*
X157702836Y-79466800D01*
X157702836Y-79466800D02*
X157559979Y-79514419D01*
X157559979Y-79514419D02*
X157321884Y-79514419D01*
X158226646Y-78514419D02*
X158893312Y-78514419D01*
X158893312Y-78514419D02*
X158464741Y-79514419D01*
X135684265Y-91928704D02*
X136160455Y-91928704D01*
X135589027Y-92214419D02*
X135922360Y-91214419D01*
X135922360Y-91214419D02*
X136255693Y-92214419D01*
X136493789Y-91214419D02*
X137160455Y-91214419D01*
X137160455Y-91214419D02*
X136731884Y-92214419D01*
X157067884Y-69100419D02*
X157067884Y-68100419D01*
X157067884Y-68100419D02*
X157305979Y-68100419D01*
X157305979Y-68100419D02*
X157448836Y-68148038D01*
X157448836Y-68148038D02*
X157544074Y-68243276D01*
X157544074Y-68243276D02*
X157591693Y-68338514D01*
X157591693Y-68338514D02*
X157639312Y-68528990D01*
X157639312Y-68528990D02*
X157639312Y-68671847D01*
X157639312Y-68671847D02*
X157591693Y-68862323D01*
X157591693Y-68862323D02*
X157544074Y-68957561D01*
X157544074Y-68957561D02*
X157448836Y-69052800D01*
X157448836Y-69052800D02*
X157305979Y-69100419D01*
X157305979Y-69100419D02*
X157067884Y-69100419D01*
X158591693Y-69100419D02*
X158020265Y-69100419D01*
X158305979Y-69100419D02*
X158305979Y-68100419D01*
X158305979Y-68100419D02*
X158210741Y-68243276D01*
X158210741Y-68243276D02*
X158115503Y-68338514D01*
X158115503Y-68338514D02*
X158020265Y-68386133D01*
X159544074Y-69100419D02*
X158972646Y-69100419D01*
X159258360Y-69100419D02*
X159258360Y-68100419D01*
X159258360Y-68100419D02*
X159163122Y-68243276D01*
X159163122Y-68243276D02*
X159067884Y-68338514D01*
X159067884Y-68338514D02*
X158972646Y-68386133D01*
X157845693Y-93802038D02*
X157750455Y-93754419D01*
X157750455Y-93754419D02*
X157607598Y-93754419D01*
X157607598Y-93754419D02*
X157464741Y-93802038D01*
X157464741Y-93802038D02*
X157369503Y-93897276D01*
X157369503Y-93897276D02*
X157321884Y-93992514D01*
X157321884Y-93992514D02*
X157274265Y-94182990D01*
X157274265Y-94182990D02*
X157274265Y-94325847D01*
X157274265Y-94325847D02*
X157321884Y-94516323D01*
X157321884Y-94516323D02*
X157369503Y-94611561D01*
X157369503Y-94611561D02*
X157464741Y-94706800D01*
X157464741Y-94706800D02*
X157607598Y-94754419D01*
X157607598Y-94754419D02*
X157702836Y-94754419D01*
X157702836Y-94754419D02*
X157845693Y-94706800D01*
X157845693Y-94706800D02*
X157893312Y-94659180D01*
X157893312Y-94659180D02*
X157893312Y-94325847D01*
X157893312Y-94325847D02*
X157702836Y-94325847D01*
X158321884Y-94754419D02*
X158321884Y-93754419D01*
X158321884Y-93754419D02*
X158893312Y-94754419D01*
X158893312Y-94754419D02*
X158893312Y-93754419D01*
X159369503Y-94754419D02*
X159369503Y-93754419D01*
X159369503Y-93754419D02*
X159607598Y-93754419D01*
X159607598Y-93754419D02*
X159750455Y-93802038D01*
X159750455Y-93802038D02*
X159845693Y-93897276D01*
X159845693Y-93897276D02*
X159893312Y-93992514D01*
X159893312Y-93992514D02*
X159940931Y-94182990D01*
X159940931Y-94182990D02*
X159940931Y-94325847D01*
X159940931Y-94325847D02*
X159893312Y-94516323D01*
X159893312Y-94516323D02*
X159845693Y-94611561D01*
X159845693Y-94611561D02*
X159750455Y-94706800D01*
X159750455Y-94706800D02*
X159607598Y-94754419D01*
X159607598Y-94754419D02*
X159369503Y-94754419D01*
X157321884Y-66814419D02*
X157321884Y-65814419D01*
X157321884Y-65814419D02*
X157559979Y-65814419D01*
X157559979Y-65814419D02*
X157702836Y-65862038D01*
X157702836Y-65862038D02*
X157798074Y-65957276D01*
X157798074Y-65957276D02*
X157845693Y-66052514D01*
X157845693Y-66052514D02*
X157893312Y-66242990D01*
X157893312Y-66242990D02*
X157893312Y-66385847D01*
X157893312Y-66385847D02*
X157845693Y-66576323D01*
X157845693Y-66576323D02*
X157798074Y-66671561D01*
X157798074Y-66671561D02*
X157702836Y-66766800D01*
X157702836Y-66766800D02*
X157559979Y-66814419D01*
X157559979Y-66814419D02*
X157321884Y-66814419D01*
X158845693Y-66814419D02*
X158274265Y-66814419D01*
X158559979Y-66814419D02*
X158559979Y-65814419D01*
X158559979Y-65814419D02*
X158464741Y-65957276D01*
X158464741Y-65957276D02*
X158369503Y-66052514D01*
X158369503Y-66052514D02*
X158274265Y-66100133D01*
X159226646Y-65909657D02*
X159274265Y-65862038D01*
X159274265Y-65862038D02*
X159369503Y-65814419D01*
X159369503Y-65814419D02*
X159607598Y-65814419D01*
X159607598Y-65814419D02*
X159702836Y-65862038D01*
X159702836Y-65862038D02*
X159750455Y-65909657D01*
X159750455Y-65909657D02*
X159798074Y-66004895D01*
X159798074Y-66004895D02*
X159798074Y-66100133D01*
X159798074Y-66100133D02*
X159750455Y-66242990D01*
X159750455Y-66242990D02*
X159179027Y-66814419D01*
X159179027Y-66814419D02*
X159798074Y-66814419D01*
X157321884Y-86880419D02*
X157321884Y-85880419D01*
X157321884Y-85880419D02*
X157559979Y-85880419D01*
X157559979Y-85880419D02*
X157702836Y-85928038D01*
X157702836Y-85928038D02*
X157798074Y-86023276D01*
X157798074Y-86023276D02*
X157845693Y-86118514D01*
X157845693Y-86118514D02*
X157893312Y-86308990D01*
X157893312Y-86308990D02*
X157893312Y-86451847D01*
X157893312Y-86451847D02*
X157845693Y-86642323D01*
X157845693Y-86642323D02*
X157798074Y-86737561D01*
X157798074Y-86737561D02*
X157702836Y-86832800D01*
X157702836Y-86832800D02*
X157559979Y-86880419D01*
X157559979Y-86880419D02*
X157321884Y-86880419D01*
X158750455Y-86213752D02*
X158750455Y-86880419D01*
X158512360Y-85832800D02*
X158274265Y-86547085D01*
X158274265Y-86547085D02*
X158893312Y-86547085D01*
X157067884Y-71894419D02*
X157067884Y-70894419D01*
X157067884Y-70894419D02*
X157305979Y-70894419D01*
X157305979Y-70894419D02*
X157448836Y-70942038D01*
X157448836Y-70942038D02*
X157544074Y-71037276D01*
X157544074Y-71037276D02*
X157591693Y-71132514D01*
X157591693Y-71132514D02*
X157639312Y-71322990D01*
X157639312Y-71322990D02*
X157639312Y-71465847D01*
X157639312Y-71465847D02*
X157591693Y-71656323D01*
X157591693Y-71656323D02*
X157544074Y-71751561D01*
X157544074Y-71751561D02*
X157448836Y-71846800D01*
X157448836Y-71846800D02*
X157305979Y-71894419D01*
X157305979Y-71894419D02*
X157067884Y-71894419D01*
X158591693Y-71894419D02*
X158020265Y-71894419D01*
X158305979Y-71894419D02*
X158305979Y-70894419D01*
X158305979Y-70894419D02*
X158210741Y-71037276D01*
X158210741Y-71037276D02*
X158115503Y-71132514D01*
X158115503Y-71132514D02*
X158020265Y-71180133D01*
X159210741Y-70894419D02*
X159305979Y-70894419D01*
X159305979Y-70894419D02*
X159401217Y-70942038D01*
X159401217Y-70942038D02*
X159448836Y-70989657D01*
X159448836Y-70989657D02*
X159496455Y-71084895D01*
X159496455Y-71084895D02*
X159544074Y-71275371D01*
X159544074Y-71275371D02*
X159544074Y-71513466D01*
X159544074Y-71513466D02*
X159496455Y-71703942D01*
X159496455Y-71703942D02*
X159448836Y-71799180D01*
X159448836Y-71799180D02*
X159401217Y-71846800D01*
X159401217Y-71846800D02*
X159305979Y-71894419D01*
X159305979Y-71894419D02*
X159210741Y-71894419D01*
X159210741Y-71894419D02*
X159115503Y-71846800D01*
X159115503Y-71846800D02*
X159067884Y-71799180D01*
X159067884Y-71799180D02*
X159020265Y-71703942D01*
X159020265Y-71703942D02*
X158972646Y-71513466D01*
X158972646Y-71513466D02*
X158972646Y-71275371D01*
X158972646Y-71275371D02*
X159020265Y-71084895D01*
X159020265Y-71084895D02*
X159067884Y-70989657D01*
X159067884Y-70989657D02*
X159115503Y-70942038D01*
X159115503Y-70942038D02*
X159210741Y-70894419D01*
X135684265Y-86848704D02*
X136160455Y-86848704D01*
X135589027Y-87134419D02*
X135922360Y-86134419D01*
X135922360Y-86134419D02*
X136255693Y-87134419D01*
X137065217Y-86134419D02*
X136589027Y-86134419D01*
X136589027Y-86134419D02*
X136541408Y-86610609D01*
X136541408Y-86610609D02*
X136589027Y-86562990D01*
X136589027Y-86562990D02*
X136684265Y-86515371D01*
X136684265Y-86515371D02*
X136922360Y-86515371D01*
X136922360Y-86515371D02*
X137017598Y-86562990D01*
X137017598Y-86562990D02*
X137065217Y-86610609D01*
X137065217Y-86610609D02*
X137112836Y-86705847D01*
X137112836Y-86705847D02*
X137112836Y-86943942D01*
X137112836Y-86943942D02*
X137065217Y-87039180D01*
X137065217Y-87039180D02*
X137017598Y-87086800D01*
X137017598Y-87086800D02*
X136922360Y-87134419D01*
X136922360Y-87134419D02*
X136684265Y-87134419D01*
X136684265Y-87134419D02*
X136589027Y-87086800D01*
X136589027Y-87086800D02*
X136541408Y-87039180D01*
X147995419Y-122683904D02*
X148804942Y-122683904D01*
X148804942Y-122683904D02*
X148900180Y-122636285D01*
X148900180Y-122636285D02*
X148947800Y-122588666D01*
X148947800Y-122588666D02*
X148995419Y-122493428D01*
X148995419Y-122493428D02*
X148995419Y-122302952D01*
X148995419Y-122302952D02*
X148947800Y-122207714D01*
X148947800Y-122207714D02*
X148900180Y-122160095D01*
X148900180Y-122160095D02*
X148804942Y-122112476D01*
X148804942Y-122112476D02*
X147995419Y-122112476D01*
X148995419Y-121112476D02*
X148995419Y-121683904D01*
X148995419Y-121398190D02*
X147995419Y-121398190D01*
X147995419Y-121398190D02*
X148138276Y-121493428D01*
X148138276Y-121493428D02*
X148233514Y-121588666D01*
X148233514Y-121588666D02*
X148281133Y-121683904D01*
X135578265Y-120824800D02*
X135721122Y-120872419D01*
X135721122Y-120872419D02*
X135959217Y-120872419D01*
X135959217Y-120872419D02*
X136054455Y-120824800D01*
X136054455Y-120824800D02*
X136102074Y-120777180D01*
X136102074Y-120777180D02*
X136149693Y-120681942D01*
X136149693Y-120681942D02*
X136149693Y-120586704D01*
X136149693Y-120586704D02*
X136102074Y-120491466D01*
X136102074Y-120491466D02*
X136054455Y-120443847D01*
X136054455Y-120443847D02*
X135959217Y-120396228D01*
X135959217Y-120396228D02*
X135768741Y-120348609D01*
X135768741Y-120348609D02*
X135673503Y-120300990D01*
X135673503Y-120300990D02*
X135625884Y-120253371D01*
X135625884Y-120253371D02*
X135578265Y-120158133D01*
X135578265Y-120158133D02*
X135578265Y-120062895D01*
X135578265Y-120062895D02*
X135625884Y-119967657D01*
X135625884Y-119967657D02*
X135673503Y-119920038D01*
X135673503Y-119920038D02*
X135768741Y-119872419D01*
X135768741Y-119872419D02*
X136006836Y-119872419D01*
X136006836Y-119872419D02*
X136149693Y-119920038D01*
X136578265Y-120872419D02*
X136578265Y-119872419D01*
X136578265Y-119872419D02*
X136816360Y-119872419D01*
X136816360Y-119872419D02*
X136959217Y-119920038D01*
X136959217Y-119920038D02*
X137054455Y-120015276D01*
X137054455Y-120015276D02*
X137102074Y-120110514D01*
X137102074Y-120110514D02*
X137149693Y-120300990D01*
X137149693Y-120300990D02*
X137149693Y-120443847D01*
X137149693Y-120443847D02*
X137102074Y-120634323D01*
X137102074Y-120634323D02*
X137054455Y-120729561D01*
X137054455Y-120729561D02*
X136959217Y-120824800D01*
X136959217Y-120824800D02*
X136816360Y-120872419D01*
X136816360Y-120872419D02*
X136578265Y-120872419D01*
X137530646Y-120586704D02*
X138006836Y-120586704D01*
X137435408Y-120872419D02*
X137768741Y-119872419D01*
X137768741Y-119872419D02*
X138102074Y-120872419D01*
X135229027Y-117872419D02*
X135562360Y-118872419D01*
X135562360Y-118872419D02*
X135895693Y-117872419D01*
X136800455Y-118777180D02*
X136752836Y-118824800D01*
X136752836Y-118824800D02*
X136609979Y-118872419D01*
X136609979Y-118872419D02*
X136514741Y-118872419D01*
X136514741Y-118872419D02*
X136371884Y-118824800D01*
X136371884Y-118824800D02*
X136276646Y-118729561D01*
X136276646Y-118729561D02*
X136229027Y-118634323D01*
X136229027Y-118634323D02*
X136181408Y-118443847D01*
X136181408Y-118443847D02*
X136181408Y-118300990D01*
X136181408Y-118300990D02*
X136229027Y-118110514D01*
X136229027Y-118110514D02*
X136276646Y-118015276D01*
X136276646Y-118015276D02*
X136371884Y-117920038D01*
X136371884Y-117920038D02*
X136514741Y-117872419D01*
X136514741Y-117872419D02*
X136609979Y-117872419D01*
X136609979Y-117872419D02*
X136752836Y-117920038D01*
X136752836Y-117920038D02*
X136800455Y-117967657D01*
X137800455Y-118777180D02*
X137752836Y-118824800D01*
X137752836Y-118824800D02*
X137609979Y-118872419D01*
X137609979Y-118872419D02*
X137514741Y-118872419D01*
X137514741Y-118872419D02*
X137371884Y-118824800D01*
X137371884Y-118824800D02*
X137276646Y-118729561D01*
X137276646Y-118729561D02*
X137229027Y-118634323D01*
X137229027Y-118634323D02*
X137181408Y-118443847D01*
X137181408Y-118443847D02*
X137181408Y-118300990D01*
X137181408Y-118300990D02*
X137229027Y-118110514D01*
X137229027Y-118110514D02*
X137276646Y-118015276D01*
X137276646Y-118015276D02*
X137371884Y-117920038D01*
X137371884Y-117920038D02*
X137514741Y-117872419D01*
X137514741Y-117872419D02*
X137609979Y-117872419D01*
X137609979Y-117872419D02*
X137752836Y-117920038D01*
X137752836Y-117920038D02*
X137800455Y-117967657D01*
X135578265Y-123824800D02*
X135721122Y-123872419D01*
X135721122Y-123872419D02*
X135959217Y-123872419D01*
X135959217Y-123872419D02*
X136054455Y-123824800D01*
X136054455Y-123824800D02*
X136102074Y-123777180D01*
X136102074Y-123777180D02*
X136149693Y-123681942D01*
X136149693Y-123681942D02*
X136149693Y-123586704D01*
X136149693Y-123586704D02*
X136102074Y-123491466D01*
X136102074Y-123491466D02*
X136054455Y-123443847D01*
X136054455Y-123443847D02*
X135959217Y-123396228D01*
X135959217Y-123396228D02*
X135768741Y-123348609D01*
X135768741Y-123348609D02*
X135673503Y-123300990D01*
X135673503Y-123300990D02*
X135625884Y-123253371D01*
X135625884Y-123253371D02*
X135578265Y-123158133D01*
X135578265Y-123158133D02*
X135578265Y-123062895D01*
X135578265Y-123062895D02*
X135625884Y-122967657D01*
X135625884Y-122967657D02*
X135673503Y-122920038D01*
X135673503Y-122920038D02*
X135768741Y-122872419D01*
X135768741Y-122872419D02*
X136006836Y-122872419D01*
X136006836Y-122872419D02*
X136149693Y-122920038D01*
X137149693Y-123777180D02*
X137102074Y-123824800D01*
X137102074Y-123824800D02*
X136959217Y-123872419D01*
X136959217Y-123872419D02*
X136863979Y-123872419D01*
X136863979Y-123872419D02*
X136721122Y-123824800D01*
X136721122Y-123824800D02*
X136625884Y-123729561D01*
X136625884Y-123729561D02*
X136578265Y-123634323D01*
X136578265Y-123634323D02*
X136530646Y-123443847D01*
X136530646Y-123443847D02*
X136530646Y-123300990D01*
X136530646Y-123300990D02*
X136578265Y-123110514D01*
X136578265Y-123110514D02*
X136625884Y-123015276D01*
X136625884Y-123015276D02*
X136721122Y-122920038D01*
X136721122Y-122920038D02*
X136863979Y-122872419D01*
X136863979Y-122872419D02*
X136959217Y-122872419D01*
X136959217Y-122872419D02*
X137102074Y-122920038D01*
X137102074Y-122920038D02*
X137149693Y-122967657D01*
X138054455Y-123872419D02*
X137578265Y-123872419D01*
X137578265Y-123872419D02*
X137578265Y-122872419D01*
X135827693Y-125920038D02*
X135732455Y-125872419D01*
X135732455Y-125872419D02*
X135589598Y-125872419D01*
X135589598Y-125872419D02*
X135446741Y-125920038D01*
X135446741Y-125920038D02*
X135351503Y-126015276D01*
X135351503Y-126015276D02*
X135303884Y-126110514D01*
X135303884Y-126110514D02*
X135256265Y-126300990D01*
X135256265Y-126300990D02*
X135256265Y-126443847D01*
X135256265Y-126443847D02*
X135303884Y-126634323D01*
X135303884Y-126634323D02*
X135351503Y-126729561D01*
X135351503Y-126729561D02*
X135446741Y-126824800D01*
X135446741Y-126824800D02*
X135589598Y-126872419D01*
X135589598Y-126872419D02*
X135684836Y-126872419D01*
X135684836Y-126872419D02*
X135827693Y-126824800D01*
X135827693Y-126824800D02*
X135875312Y-126777180D01*
X135875312Y-126777180D02*
X135875312Y-126443847D01*
X135875312Y-126443847D02*
X135684836Y-126443847D01*
X136303884Y-126872419D02*
X136303884Y-125872419D01*
X136303884Y-125872419D02*
X136875312Y-126872419D01*
X136875312Y-126872419D02*
X136875312Y-125872419D01*
X137351503Y-126872419D02*
X137351503Y-125872419D01*
X137351503Y-125872419D02*
X137589598Y-125872419D01*
X137589598Y-125872419D02*
X137732455Y-125920038D01*
X137732455Y-125920038D02*
X137827693Y-126015276D01*
X137827693Y-126015276D02*
X137875312Y-126110514D01*
X137875312Y-126110514D02*
X137922931Y-126300990D01*
X137922931Y-126300990D02*
X137922931Y-126443847D01*
X137922931Y-126443847D02*
X137875312Y-126634323D01*
X137875312Y-126634323D02*
X137827693Y-126729561D01*
X137827693Y-126729561D02*
X137732455Y-126824800D01*
X137732455Y-126824800D02*
X137589598Y-126872419D01*
X137589598Y-126872419D02*
X137351503Y-126872419D01*
D11*
X167809819Y-115498094D02*
X166809819Y-115498094D01*
X166809819Y-115498094D02*
X166809819Y-115259999D01*
X166809819Y-115259999D02*
X166857438Y-115117142D01*
X166857438Y-115117142D02*
X166952676Y-115021904D01*
X166952676Y-115021904D02*
X167047914Y-114974285D01*
X167047914Y-114974285D02*
X167238390Y-114926666D01*
X167238390Y-114926666D02*
X167381247Y-114926666D01*
X167381247Y-114926666D02*
X167571723Y-114974285D01*
X167571723Y-114974285D02*
X167666961Y-115021904D01*
X167666961Y-115021904D02*
X167762200Y-115117142D01*
X167762200Y-115117142D02*
X167809819Y-115259999D01*
X167809819Y-115259999D02*
X167809819Y-115498094D01*
X166809819Y-114593332D02*
X166809819Y-113974285D01*
X166809819Y-113974285D02*
X167190771Y-114307618D01*
X167190771Y-114307618D02*
X167190771Y-114164761D01*
X167190771Y-114164761D02*
X167238390Y-114069523D01*
X167238390Y-114069523D02*
X167286009Y-114021904D01*
X167286009Y-114021904D02*
X167381247Y-113974285D01*
X167381247Y-113974285D02*
X167619342Y-113974285D01*
X167619342Y-113974285D02*
X167714580Y-114021904D01*
X167714580Y-114021904D02*
X167762200Y-114069523D01*
X167762200Y-114069523D02*
X167809819Y-114164761D01*
X167809819Y-114164761D02*
X167809819Y-114450475D01*
X167809819Y-114450475D02*
X167762200Y-114545713D01*
X167762200Y-114545713D02*
X167714580Y-114593332D01*
X180833333Y-121584819D02*
X180500000Y-121108628D01*
X180261905Y-121584819D02*
X180261905Y-120584819D01*
X180261905Y-120584819D02*
X180642857Y-120584819D01*
X180642857Y-120584819D02*
X180738095Y-120632438D01*
X180738095Y-120632438D02*
X180785714Y-120680057D01*
X180785714Y-120680057D02*
X180833333Y-120775295D01*
X180833333Y-120775295D02*
X180833333Y-120918152D01*
X180833333Y-120918152D02*
X180785714Y-121013390D01*
X180785714Y-121013390D02*
X180738095Y-121061009D01*
X180738095Y-121061009D02*
X180642857Y-121108628D01*
X180642857Y-121108628D02*
X180261905Y-121108628D01*
X181214286Y-120680057D02*
X181261905Y-120632438D01*
X181261905Y-120632438D02*
X181357143Y-120584819D01*
X181357143Y-120584819D02*
X181595238Y-120584819D01*
X181595238Y-120584819D02*
X181690476Y-120632438D01*
X181690476Y-120632438D02*
X181738095Y-120680057D01*
X181738095Y-120680057D02*
X181785714Y-120775295D01*
X181785714Y-120775295D02*
X181785714Y-120870533D01*
X181785714Y-120870533D02*
X181738095Y-121013390D01*
X181738095Y-121013390D02*
X181166667Y-121584819D01*
X181166667Y-121584819D02*
X181785714Y-121584819D01*
X191916667Y-110807200D02*
X192059524Y-110854819D01*
X192059524Y-110854819D02*
X192297619Y-110854819D01*
X192297619Y-110854819D02*
X192392857Y-110807200D01*
X192392857Y-110807200D02*
X192440476Y-110759580D01*
X192440476Y-110759580D02*
X192488095Y-110664342D01*
X192488095Y-110664342D02*
X192488095Y-110569104D01*
X192488095Y-110569104D02*
X192440476Y-110473866D01*
X192440476Y-110473866D02*
X192392857Y-110426247D01*
X192392857Y-110426247D02*
X192297619Y-110378628D01*
X192297619Y-110378628D02*
X192107143Y-110331009D01*
X192107143Y-110331009D02*
X192011905Y-110283390D01*
X192011905Y-110283390D02*
X191964286Y-110235771D01*
X191964286Y-110235771D02*
X191916667Y-110140533D01*
X191916667Y-110140533D02*
X191916667Y-110045295D01*
X191916667Y-110045295D02*
X191964286Y-109950057D01*
X191964286Y-109950057D02*
X192011905Y-109902438D01*
X192011905Y-109902438D02*
X192107143Y-109854819D01*
X192107143Y-109854819D02*
X192345238Y-109854819D01*
X192345238Y-109854819D02*
X192488095Y-109902438D01*
X192821429Y-109854819D02*
X193059524Y-110854819D01*
X193059524Y-110854819D02*
X193250000Y-110140533D01*
X193250000Y-110140533D02*
X193440476Y-110854819D01*
X193440476Y-110854819D02*
X193678572Y-109854819D01*
X194583333Y-110854819D02*
X194011905Y-110854819D01*
X194297619Y-110854819D02*
X194297619Y-109854819D01*
X194297619Y-109854819D02*
X194202381Y-109997676D01*
X194202381Y-109997676D02*
X194107143Y-110092914D01*
X194107143Y-110092914D02*
X194011905Y-110140533D01*
D12*
%TO.C,D1*%
X170895000Y-131010000D02*
X170895000Y-131010000D01*
X170895000Y-131010000D02*
X171025000Y-131010000D01*
X170895000Y-133550000D02*
X170895000Y-133550000D01*
X170895000Y-133550000D02*
X171025000Y-133550000D01*
X171025000Y-130570000D02*
X171025000Y-133990000D01*
X171025000Y-131010000D02*
X170895000Y-131010000D01*
X171025000Y-131010000D02*
X171025000Y-131010000D01*
X171025000Y-133550000D02*
X170895000Y-133550000D01*
X171025000Y-133550000D02*
X171025000Y-133550000D01*
X171025000Y-133750000D02*
X172745000Y-133750000D01*
X171025000Y-133870000D02*
X172745000Y-133870000D01*
X171025000Y-133990000D02*
X172745000Y-133990000D01*
X172745000Y-130570000D02*
X171025000Y-130570000D01*
X172745000Y-131320000D02*
X172745000Y-133240000D01*
X172745000Y-133240000D02*
X174145000Y-133240000D01*
X172745000Y-133990000D02*
X172745000Y-130570000D01*
X174145000Y-131320000D02*
X172745000Y-131320000D01*
X174145000Y-133240000D02*
X174145000Y-131320000D01*
%TO.C,D2*%
X170395000Y-122000000D02*
X170395000Y-122000000D01*
X170395000Y-122000000D02*
X170525000Y-122000000D01*
X170395000Y-124540000D02*
X170395000Y-124540000D01*
X170395000Y-124540000D02*
X170525000Y-124540000D01*
X170525000Y-121560000D02*
X170525000Y-124980000D01*
X170525000Y-122000000D02*
X170395000Y-122000000D01*
X170525000Y-122000000D02*
X170525000Y-122000000D01*
X170525000Y-124540000D02*
X170395000Y-124540000D01*
X170525000Y-124540000D02*
X170525000Y-124540000D01*
X170525000Y-124740000D02*
X172245000Y-124740000D01*
X170525000Y-124860000D02*
X172245000Y-124860000D01*
X170525000Y-124980000D02*
X172245000Y-124980000D01*
X172245000Y-121560000D02*
X170525000Y-121560000D01*
X172245000Y-122310000D02*
X172245000Y-124230000D01*
X172245000Y-124230000D02*
X173645000Y-124230000D01*
X172245000Y-124980000D02*
X172245000Y-121560000D01*
X173645000Y-122310000D02*
X172245000Y-122310000D01*
X173645000Y-124230000D02*
X173645000Y-122310000D01*
%TO.C,R1*%
X177730000Y-130130000D02*
X184270000Y-130130000D01*
X177730000Y-130460000D02*
X177730000Y-130130000D01*
X177730000Y-132540000D02*
X177730000Y-132870000D01*
X177730000Y-132870000D02*
X184270000Y-132870000D01*
X184270000Y-130130000D02*
X184270000Y-130460000D01*
X184270000Y-132870000D02*
X184270000Y-132540000D01*
%TO.C,SW2*%
X189750000Y-122450000D02*
X189750000Y-123950000D01*
X191000000Y-126450000D02*
X195500000Y-126450000D01*
X195500000Y-119950000D02*
X191000000Y-119950000D01*
X196750000Y-123950000D02*
X196750000Y-122450000D01*
D13*
%TO.C,U2*%
X194304000Y-59100000D02*
X195504000Y-59100000D01*
X194304000Y-104100000D02*
X194304000Y-59100000D01*
X195504000Y-59100000D02*
X195504000Y-60100000D01*
X195504000Y-60100000D02*
X195504000Y-76100000D01*
X195504000Y-60100000D02*
X209304000Y-60100000D01*
X195504000Y-76100000D02*
X195504000Y-87100000D01*
X195504000Y-76100000D02*
X209304000Y-76100000D01*
X195504000Y-87100000D02*
X195504000Y-103100000D01*
X195504000Y-87100000D02*
X209304000Y-87100000D01*
X195504000Y-103100000D02*
X195504000Y-104100000D01*
X195504000Y-103100000D02*
X209304000Y-103100000D01*
X195504000Y-104100000D02*
X194304000Y-104100000D01*
X209304000Y-76100000D02*
X209304000Y-60100000D01*
X209304000Y-103100000D02*
X209304000Y-87100000D01*
D12*
%TO.C,R3*%
X177230000Y-113130000D02*
X183770000Y-113130000D01*
X177230000Y-113460000D02*
X177230000Y-113130000D01*
X177230000Y-115540000D02*
X177230000Y-115870000D01*
X177230000Y-115870000D02*
X183770000Y-115870000D01*
X183770000Y-113130000D02*
X183770000Y-113460000D01*
X183770000Y-115870000D02*
X183770000Y-115540000D01*
%TO.C,SW3*%
X189750000Y-131000000D02*
X189750000Y-132500000D01*
X191000000Y-135000000D02*
X195500000Y-135000000D01*
X195500000Y-128500000D02*
X191000000Y-128500000D01*
X196750000Y-132500000D02*
X196750000Y-131000000D01*
%TO.C,BZ1*%
X176600000Y-93000000D02*
G75*
G02*
X164400000Y-93000000I-6100000J0D01*
G01*
X164400000Y-93000000D02*
G75*
G02*
X176600000Y-93000000I6100000J0D01*
G01*
%TO.C,arduino_nano1*%
D10*
X138222000Y-61354000D02*
X156256000Y-61354000D01*
X156256000Y-105550000D01*
X138222000Y-105550000D01*
X138222000Y-61354000D01*
D13*
%TO.C,U1*%
X138500000Y-109000000D02*
X164500000Y-109000000D01*
X138500000Y-135000000D02*
X138500000Y-109000000D01*
X162500000Y-115000000D02*
X162500000Y-129000000D01*
X162500000Y-129000000D02*
X164500000Y-129000000D01*
X164500000Y-109000000D02*
X164500000Y-115000000D01*
X164500000Y-115000000D02*
X162500000Y-115000000D01*
X164500000Y-129000000D02*
X164500000Y-135000000D01*
X164500000Y-135000000D02*
X138500000Y-135000000D01*
D12*
%TO.C,D3*%
X170395000Y-113490000D02*
X170395000Y-113490000D01*
X170395000Y-113490000D02*
X170525000Y-113490000D01*
X170395000Y-116030000D02*
X170395000Y-116030000D01*
X170395000Y-116030000D02*
X170525000Y-116030000D01*
X170525000Y-113050000D02*
X170525000Y-116470000D01*
X170525000Y-113490000D02*
X170395000Y-113490000D01*
X170525000Y-113490000D02*
X170525000Y-113490000D01*
X170525000Y-116030000D02*
X170395000Y-116030000D01*
X170525000Y-116030000D02*
X170525000Y-116030000D01*
X170525000Y-116230000D02*
X172245000Y-116230000D01*
X170525000Y-116350000D02*
X172245000Y-116350000D01*
X170525000Y-116470000D02*
X172245000Y-116470000D01*
X172245000Y-113050000D02*
X170525000Y-113050000D01*
X172245000Y-113800000D02*
X172245000Y-115720000D01*
X172245000Y-115720000D02*
X173645000Y-115720000D01*
X172245000Y-116470000D02*
X172245000Y-113050000D01*
X173645000Y-113800000D02*
X172245000Y-113800000D01*
X173645000Y-115720000D02*
X173645000Y-113800000D01*
%TO.C,R2*%
X177730000Y-122130000D02*
X184270000Y-122130000D01*
X177730000Y-122460000D02*
X177730000Y-122130000D01*
X177730000Y-124540000D02*
X177730000Y-124870000D01*
X177730000Y-124870000D02*
X184270000Y-124870000D01*
X184270000Y-122130000D02*
X184270000Y-122460000D01*
X184270000Y-124870000D02*
X184270000Y-124540000D01*
%TO.C,SW1*%
X189750000Y-113900000D02*
X189750000Y-115400000D01*
X191000000Y-117900000D02*
X195500000Y-117900000D01*
X195500000Y-111400000D02*
X191000000Y-111400000D01*
X196750000Y-115400000D02*
X196750000Y-113900000D01*
%TD*%
M02*
